999
FBX AutoCAD (*.DXF) exporter
  0
SECTION
  2
HEADER
  9
$ACADVER
  1
AC1008
  9
$UCSORG
 10
0.0
 20
0.0
 30
0.0
  9
$UCSXDIR
 10
1.0
 20
0.0
 30
0.0
  9
$TILEMODE
 70
   1
  9
$UCSYDIR
 10
0.0
 20
1.0
 30
0.0
  0
ENDSEC
  0
SECTION
  2
TABLES
  0
TABLE
  2
LTYPE
 70
   1
  0
LTYPE
  2
CONTINUOUS
 70
   64
  3
Solid line
 72
   65
 73
   0
 40
0.0
  0
ENDTAB
  0
TABLE
  2
LAYER
 70
   9
  0
LAYER
  2
Mesh
 70
   0
 62
   7
  6
CONTINUOUS
  0
LAYER
  2
Mesh_ncl1_1
 70
   0
 62
   7
  6
CONTINUOUS
  0
LAYER
  2
Mesh_ncl1_2
 70
   0
 62
   7
  6
CONTINUOUS
  0
LAYER
  2
Mesh_ncl1_3
 70
   0
 62
   30
  6
CONTINUOUS
  0
LAYER
  2
Mesh_ncl1_4
 70
   0
 62
   7
  6
CONTINUOUS
  0
LAYER
  2
Mesh_ncl1_5
 70
   0
 62
   3
  6
CONTINUOUS
  0
LAYER
  2
Mesh_ncl1_6
 70
   0
 62
   2
  6
CONTINUOUS
  0
LAYER
  2
Mesh_ncl1_7
 70
   0
 62
   5
  6
CONTINUOUS
  0
LAYER
  2
Mesh_ncl1_8
 70
   0
 62
   60
  6
CONTINUOUS
  0
ENDTAB
  0
ENDSEC
  0
SECTION
  2
BLOCKS
  0
ENDSEC
  0
SECTION
  2
ENTITIES
  0
POLYLINE
  8
Mesh
 62
   7
 66
   1
 10
0.0
 20
0.0
 30
0.0
 70
   64
 71
   162
 72
   54
  0
VERTEX
  8
Mesh
 10
492.369000
 20
526.934000
 30
21.545000
 70
   192
  0
VERTEX
  8
Mesh
 10
503.366000
 20
517.336000
 30
21.322000
 70
   192
  0
VERTEX
  8
Mesh
 10
492.978000
 20
516.032000
 30
21.385000
 70
   192
  0
VERTEX
  8
Mesh
 10
492.369000
 20
526.934000
 30
21.545000
 70
   192
  0
VERTEX
  8
Mesh
 10
493.314000
 20
538.689000
 30
21.655000
 70
   192
  0
VERTEX
  8
Mesh
 10
502.926000
 20
527.088000
 30
21.475000
 70
   192
  0
VERTEX
  8
Mesh
 10
492.369000
 20
526.934000
 30
21.545000
 70
   192
  0
VERTEX
  8
Mesh
 10
502.926000
 20
527.088000
 30
21.475000
 70
   192
  0
VERTEX
  8
Mesh
 10
503.366000
 20
517.336000
 30
21.322000
 70
   192
  0
VERTEX
  8
Mesh
 10
492.978000
 20
516.032000
 30
21.385000
 70
   192
  0
VERTEX
  8
Mesh
 10
504.769000
 20
506.188000
 30
21.122000
 70
   192
  0
VERTEX
  8
Mesh
 10
493.076000
 20
505.160000
 30
21.141000
 70
   192
  0
VERTEX
  8
Mesh
 10
492.978000
 20
516.032000
 30
21.385000
 70
   192
  0
VERTEX
  8
Mesh
 10
503.366000
 20
517.336000
 30
21.322000
 70
   192
  0
VERTEX
  8
Mesh
 10
504.769000
 20
506.188000
 30
21.122000
 70
   192
  0
VERTEX
  8
Mesh
 10
493.076000
 20
505.160000
 30
21.141000
 70
   192
  0
VERTEX
  8
Mesh
 10
495.167000
 20
500.384000
 30
20.401000
 70
   192
  0
VERTEX
  8
Mesh
 10
495.273000
 20
496.828000
 30
20.081000
 70
   192
  0
VERTEX
  8
Mesh
 10
493.076000
 20
505.160000
 30
21.141000
 70
   192
  0
VERTEX
  8
Mesh
 10
504.769000
 20
506.188000
 30
21.122000
 70
   192
  0
VERTEX
  8
Mesh
 10
495.167000
 20
500.384000
 30
20.401000
 70
   192
  0
VERTEX
  8
Mesh
 10
493.238000
 20
539.456000
 30
23.296000
 70
   192
  0
VERTEX
  8
Mesh
 10
502.640000
 20
539.306000
 30
21.715000
 70
   192
  0
VERTEX
  8
Mesh
 10
493.314000
 20
538.689000
 30
21.655000
 70
   192
  0
VERTEX
  8
Mesh
 10
493.238000
 20
539.456000
 30
23.296000
 70
   192
  0
VERTEX
  8
Mesh
 10
494.217000
 20
539.742000
 30
23.421000
 70
   192
  0
VERTEX
  8
Mesh
 10
502.125000
 20
540.062000
 30
23.389000
 70
   192
  0
VERTEX
  8
Mesh
 10
493.238000
 20
539.456000
 30
23.296000
 70
   192
  0
VERTEX
  8
Mesh
 10
502.125000
 20
540.062000
 30
23.389000
 70
   192
  0
VERTEX
  8
Mesh
 10
502.640000
 20
539.306000
 30
21.715000
 70
   192
  0
VERTEX
  8
Mesh
 10
493.314000
 20
538.689000
 30
21.655000
 70
   192
  0
VERTEX
  8
Mesh
 10
502.640000
 20
539.306000
 30
21.715000
 70
   192
  0
VERTEX
  8
Mesh
 10
502.926000
 20
527.088000
 30
21.475000
 70
   192
  0
VERTEX
  8
Mesh
 10
495.167000
 20
500.384000
 30
20.401000
 70
   192
  0
VERTEX
  8
Mesh
 10
505.945000
 20
499.931000
 30
20.113000
 70
   192
  0
VERTEX
  8
Mesh
 10
495.477000
 20
498.799000
 30
20.055000
 70
   192
  0
VERTEX
  8
Mesh
 10
495.167000
 20
500.384000
 30
20.401000
 70
   192
  0
VERTEX
  8
Mesh
 10
495.477000
 20
498.799000
 30
20.055000
 70
   192
  0
VERTEX
  8
Mesh
 10
495.273000
 20
496.828000
 30
20.081000
 70
   192
  0
VERTEX
  8
Mesh
 10
495.167000
 20
500.384000
 30
20.401000
 70
   192
  0
VERTEX
  8
Mesh
 10
504.769000
 20
506.188000
 30
21.122000
 70
   192
  0
VERTEX
  8
Mesh
 10
505.945000
 20
499.931000
 30
20.113000
 70
   192
  0
VERTEX
  8
Mesh
 10
495.273000
 20
496.828000
 30
20.081000
 70
   192
  0
VERTEX
  8
Mesh
 10
501.519000
 20
494.839000
 30
19.978000
 70
   192
  0
VERTEX
  8
Mesh
 10
497.798000
 20
494.564000
 30
19.994000
 70
   192
  0
VERTEX
  8
Mesh
 10
495.273000
 20
496.828000
 30
20.081000
 70
   192
  0
VERTEX
  8
Mesh
 10
497.798000
 20
494.564000
 30
19.994000
 70
   192
  0
VERTEX
  8
Mesh
 10
495.523000
 20
494.395000
 30
20.011000
 70
   192
  0
VERTEX
  8
Mesh
 10
495.273000
 20
496.828000
 30
20.081000
 70
   192
  0
VERTEX
  8
Mesh
 10
495.477000
 20
498.799000
 30
20.055000
 70
   192
  0
VERTEX
  8
Mesh
 10
495.831000
 20
498.174000
 30
20.115000
 70
   192
  0
VERTEX
  8
Mesh
 10
495.273000
 20
496.828000
 30
20.081000
 70
   192
  0
VERTEX
  8
Mesh
 10
495.831000
 20
498.174000
 30
20.115000
 70
   192
  0
VERTEX
  8
Mesh
 10
496.849000
 20
498.535000
 30
20.013000
 70
   192
  0
VERTEX
  8
Mesh
 10
495.273000
 20
496.828000
 30
20.081000
 70
   192
  0
VERTEX
  8
Mesh
 10
496.849000
 20
498.535000
 30
20.013000
 70
   192
  0
VERTEX
  8
Mesh
 10
505.699000
 20
497.603000
 30
20.025000
 70
   192
  0
VERTEX
  8
Mesh
 10
495.273000
 20
496.828000
 30
20.081000
 70
   192
  0
VERTEX
  8
Mesh
 10
505.699000
 20
497.603000
 30
20.025000
 70
   192
  0
VERTEX
  8
Mesh
 10
501.519000
 20
494.839000
 30
19.978000
 70
   192
  0
VERTEX
  8
Mesh
 10
495.477000
 20
498.799000
 30
20.055000
 70
   192
  0
VERTEX
  8
Mesh
 10
505.945000
 20
499.931000
 30
20.113000
 70
   192
  0
VERTEX
  8
Mesh
 10
496.822000
 20
498.922000
 30
20.023000
 70
   192
  0
VERTEX
  8
Mesh
 10
495.477000
 20
498.799000
 30
20.055000
 70
   192
  0
VERTEX
  8
Mesh
 10
496.822000
 20
498.922000
 30
20.023000
 70
   192
  0
VERTEX
  8
Mesh
 10
495.831000
 20
498.174000
 30
20.115000
 70
   192
  0
VERTEX
  8
Mesh
 10
495.523000
 20
494.395000
 30
20.011000
 70
   192
  0
VERTEX
  8
Mesh
 10
497.798000
 20
494.564000
 30
19.994000
 70
   192
  0
VERTEX
  8
Mesh
 10
501.519000
 20
494.839000
 30
19.978000
 70
   192
  0
VERTEX
  8
Mesh
 10
495.831000
 20
498.174000
 30
20.115000
 70
   192
  0
VERTEX
  8
Mesh
 10
496.822000
 20
498.922000
 30
20.023000
 70
   192
  0
VERTEX
  8
Mesh
 10
496.849000
 20
498.535000
 30
20.013000
 70
   192
  0
VERTEX
  8
Mesh
 10
496.822000
 20
498.922000
 30
20.023000
 70
   192
  0
VERTEX
  8
Mesh
 10
505.699000
 20
497.603000
 30
20.025000
 70
   192
  0
VERTEX
  8
Mesh
 10
496.849000
 20
498.535000
 30
20.013000
 70
   192
  0
VERTEX
  8
Mesh
 10
496.822000
 20
498.922000
 30
20.023000
 70
   192
  0
VERTEX
  8
Mesh
 10
505.945000
 20
499.931000
 30
20.113000
 70
   192
  0
VERTEX
  8
Mesh
 10
505.699000
 20
497.603000
 30
20.025000
 70
   192
  0
VERTEX
  8
Mesh
 10
501.519000
 20
494.839000
 30
19.978000
 70
   192
  0
VERTEX
  8
Mesh
 10
505.699000
 20
497.603000
 30
20.025000
 70
   192
  0
VERTEX
  8
Mesh
 10
505.315000
 20
496.327000
 30
19.933000
 70
   192
  0
VERTEX
  8
Mesh
 10
501.519000
 20
494.839000
 30
19.978000
 70
   192
  0
VERTEX
  8
Mesh
 10
505.315000
 20
496.327000
 30
19.933000
 70
   192
  0
VERTEX
  8
Mesh
 10
505.367000
 20
495.398000
 30
19.890000
 70
   192
  0
VERTEX
  8
Mesh
 10
502.125000
 20
540.062000
 30
23.389000
 70
   192
  0
VERTEX
  8
Mesh
 10
510.653000
 20
540.813000
 30
23.615000
 70
   192
  0
VERTEX
  8
Mesh
 10
510.428000
 20
540.792000
 30
23.579000
 70
   192
  0
VERTEX
  8
Mesh
 10
502.125000
 20
540.062000
 30
23.389000
 70
   192
  0
VERTEX
  8
Mesh
 10
510.428000
 20
540.792000
 30
23.579000
 70
   192
  0
VERTEX
  8
Mesh
 10
502.640000
 20
539.306000
 30
21.715000
 70
   192
  0
VERTEX
  8
Mesh
 10
502.640000
 20
539.306000
 30
21.715000
 70
   192
  0
VERTEX
  8
Mesh
 10
510.428000
 20
540.792000
 30
23.579000
 70
   192
  0
VERTEX
  8
Mesh
 10
511.631000
 20
539.872000
 30
21.823000
 70
   192
  0
VERTEX
  8
Mesh
 10
502.640000
 20
539.306000
 30
21.715000
 70
   192
  0
VERTEX
  8
Mesh
 10
511.631000
 20
539.872000
 30
21.823000
 70
   192
  0
VERTEX
  8
Mesh
 10
502.926000
 20
527.088000
 30
21.475000
 70
   192
  0
VERTEX
  8
Mesh
 10
502.926000
 20
527.088000
 30
21.475000
 70
   192
  0
VERTEX
  8
Mesh
 10
512.747000
 20
526.573000
 30
21.643000
 70
   192
  0
VERTEX
  8
Mesh
 10
503.366000
 20
517.336000
 30
21.322000
 70
   192
  0
VERTEX
  8
Mesh
 10
502.926000
 20
527.088000
 30
21.475000
 70
   192
  0
VERTEX
  8
Mesh
 10
511.631000
 20
539.872000
 30
21.823000
 70
   192
  0
VERTEX
  8
Mesh
 10
512.747000
 20
526.573000
 30
21.643000
 70
   192
  0
VERTEX
  8
Mesh
 10
503.366000
 20
517.336000
 30
21.322000
 70
   192
  0
VERTEX
  8
Mesh
 10
514.551000
 20
507.077000
 30
21.207000
 70
   192
  0
VERTEX
  8
Mesh
 10
504.769000
 20
506.188000
 30
21.122000
 70
   192
  0
VERTEX
  8
Mesh
 10
503.366000
 20
517.336000
 30
21.322000
 70
   192
  0
VERTEX
  8
Mesh
 10
512.747000
 20
526.573000
 30
21.643000
 70
   192
  0
VERTEX
  8
Mesh
 10
514.410000
 20
518.898000
 30
21.475000
 70
   192
  0
VERTEX
  8
Mesh
 10
503.366000
 20
517.336000
 30
21.322000
 70
   192
  0
VERTEX
  8
Mesh
 10
514.410000
 20
518.898000
 30
21.475000
 70
   192
  0
VERTEX
  8
Mesh
 10
514.551000
 20
507.077000
 30
21.207000
 70
   192
  0
VERTEX
  8
Mesh
 10
504.769000
 20
506.188000
 30
21.122000
 70
   192
  0
VERTEX
  8
Mesh
 10
513.057000
 20
500.068000
 30
20.012000
 70
   192
  0
VERTEX
  8
Mesh
 10
505.945000
 20
499.931000
 30
20.113000
 70
   192
  0
VERTEX
  8
Mesh
 10
504.769000
 20
506.188000
 30
21.122000
 70
   192
  0
VERTEX
  8
Mesh
 10
514.551000
 20
507.077000
 30
21.207000
 70
   192
  0
VERTEX
  8
Mesh
 10
513.057000
 20
500.068000
 30
20.012000
 70
   192
  0
VERTEX
  8
Mesh
 10
505.315000
 20
496.327000
 30
19.933000
 70
   192
  0
VERTEX
  8
Mesh
 10
506.117000
 20
496.017000
 30
19.911000
 70
   192
  0
VERTEX
  8
Mesh
 10
505.367000
 20
495.398000
 30
19.890000
 70
   192
  0
VERTEX
  8
Mesh
 10
505.315000
 20
496.327000
 30
19.933000
 70
   192
  0
VERTEX
  8
Mesh
 10
505.699000
 20
497.603000
 30
20.025000
 70
   192
  0
VERTEX
  8
Mesh
 10
506.376000
 20
496.445000
 30
19.912000
 70
   192
  0
VERTEX
  8
Mesh
 10
505.315000
 20
496.327000
 30
19.933000
 70
   192
  0
VERTEX
  8
Mesh
 10
506.376000
 20
496.445000
 30
19.912000
 70
   192
  0
VERTEX
  8
Mesh
 10
506.117000
 20
496.017000
 30
19.911000
 70
   192
  0
VERTEX
  8
Mesh
 10
505.367000
 20
495.398000
 30
19.890000
 70
   192
  0
VERTEX
  8
Mesh
 10
506.117000
 20
496.017000
 30
19.911000
 70
   192
  0
VERTEX
  8
Mesh
 10
509.535000
 20
495.336000
 30
19.933000
 70
   192
  0
VERTEX
  8
Mesh
 10
505.699000
 20
497.603000
 30
20.025000
 70
   192
  0
VERTEX
  8
Mesh
 10
509.535000
 20
495.336000
 30
19.933000
 70
   192
  0
VERTEX
  8
Mesh
 10
506.376000
 20
496.445000
 30
19.912000
 70
   192
  0
VERTEX
  8
Mesh
 10
505.699000
 20
497.603000
 30
20.025000
 70
   192
  0
VERTEX
  8
Mesh
 10
505.945000
 20
499.931000
 30
20.113000
 70
   192
  0
VERTEX
  8
Mesh
 10
514.574000
 20
498.127000
 30
19.981000
 70
   192
  0
VERTEX
  8
Mesh
 10
505.699000
 20
497.603000
 30
20.025000
 70
   192
  0
VERTEX
  8
Mesh
 10
514.574000
 20
498.127000
 30
19.981000
 70
   192
  0
VERTEX
  8
Mesh
 10
509.535000
 20
495.336000
 30
19.933000
 70
   192
  0
VERTEX
  8
Mesh
 10
505.945000
 20
499.931000
 30
20.113000
 70
   192
  0
VERTEX
  8
Mesh
 10
513.057000
 20
500.068000
 30
20.012000
 70
   192
  0
VERTEX
  8
Mesh
 10
514.251000
 20
500.064000
 30
20.049000
 70
   192
  0
VERTEX
  8
Mesh
 10
505.945000
 20
499.931000
 30
20.113000
 70
   192
  0
VERTEX
  8
Mesh
 10
514.251000
 20
500.064000
 30
20.049000
 70
   192
  0
VERTEX
  8
Mesh
 10
514.574000
 20
498.127000
 30
19.981000
 70
   192
  0
VERTEX
  8
Mesh
 10
506.117000
 20
496.017000
 30
19.911000
 70
   192
  0
VERTEX
  8
Mesh
 10
506.376000
 20
496.445000
 30
19.912000
 70
   192
  0
VERTEX
  8
Mesh
 10
509.535000
 20
495.336000
 30
19.933000
 70
   192
  0
VERTEX
  8
Mesh
 10
509.535000
 20
495.336000
 30
19.933000
 70
   192
  0
VERTEX
  8
Mesh
 10
514.574000
 20
498.127000
 30
19.981000
 70
   192
  0
VERTEX
  8
Mesh
 10
513.383000
 20
496.650000
 30
19.874000
 70
   192
  0
VERTEX
  8
Mesh
 10
509.535000
 20
495.336000
 30
19.933000
 70
   192
  0
VERTEX
  8
Mesh
 10
513.383000
 20
496.650000
 30
19.874000
 70
   192
  0
VERTEX
  8
Mesh
 10
514.180000
 20
495.708000
 30
19.909000
 70
   192
  0
VERTEX
  8
Mesh
 10
510.428000
 20
540.792000
 30
23.579000
 70
   192
  0
VERTEX
  8
Mesh
 10
510.653000
 20
540.813000
 30
23.615000
 70
   192
  0
VERTEX
  8
Mesh
 10
511.631000
 20
539.872000
 30
21.823000
 70
   192
  0
VERTEX
  8
Mesh
 10
513.057000
 20
500.068000
 30
20.012000
 70
   192
  0
VERTEX
  8
Mesh
 10
514.551000
 20
507.077000
 30
21.207000
 70
   192
  0
VERTEX
  8
Mesh
 10
514.251000
 20
500.064000
 30
20.049000
 70
   192
  0
VERTEX
  8
Mesh
 10
513.383000
 20
496.650000
 30
19.874000
 70
   192
  0
VERTEX
  8
Mesh
 10
514.574000
 20
498.127000
 30
19.981000
 70
   192
  0
VERTEX
  8
Mesh
 10
514.180000
 20
495.708000
 30
19.909000
 70
   192
  0
VERTEX
  8
Mesh
 62
   7
 10
0.0
 20
0.0
 30
0.0
 70
   128
 71
   3
 72
   2
 73
   1
  0
VERTEX
  8
Mesh
 62
   7
 10
0.0
 20
0.0
 30
0.0
 70
   128
 71
   6
 72
   5
 73
   4
  0
VERTEX
  8
Mesh
 62
   7
 10
0.0
 20
0.0
 30
0.0
 70
   128
 71
   9
 72
   8
 73
   7
  0
VERTEX
  8
Mesh
 62
   7
 10
0.0
 20
0.0
 30
0.0
 70
   128
 71
   12
 72
   11
 73
   10
  0
VERTEX
  8
Mesh
 62
   7
 10
0.0
 20
0.0
 30
0.0
 70
   128
 71
   15
 72
   14
 73
   13
  0
VERTEX
  8
Mesh
 62
   7
 10
0.0
 20
0.0
 30
0.0
 70
   128
 71
   18
 72
   17
 73
   16
  0
VERTEX
  8
Mesh
 62
   7
 10
0.0
 20
0.0
 30
0.0
 70
   128
 71
   21
 72
   20
 73
   19
  0
VERTEX
  8
Mesh
 62
   7
 10
0.0
 20
0.0
 30
0.0
 70
   128
 71
   24
 72
   23
 73
   22
  0
VERTEX
  8
Mesh
 62
   7
 10
0.0
 20
0.0
 30
0.0
 70
   128
 71
   27
 72
   26
 73
   25
  0
VERTEX
  8
Mesh
 62
   7
 10
0.0
 20
0.0
 30
0.0
 70
   128
 71
   30
 72
   29
 73
   28
  0
VERTEX
  8
Mesh
 62
   7
 10
0.0
 20
0.0
 30
0.0
 70
   128
 71
   33
 72
   32
 73
   31
  0
VERTEX
  8
Mesh
 62
   7
 10
0.0
 20
0.0
 30
0.0
 70
   128
 71
   36
 72
   35
 73
   34
  0
VERTEX
  8
Mesh
 62
   7
 10
0.0
 20
0.0
 30
0.0
 70
   128
 71
   39
 72
   38
 73
   37
  0
VERTEX
  8
Mesh
 62
   7
 10
0.0
 20
0.0
 30
0.0
 70
   128
 71
   42
 72
   41
 73
   40
  0
VERTEX
  8
Mesh
 62
   7
 10
0.0
 20
0.0
 30
0.0
 70
   128
 71
   45
 72
   44
 73
   43
  0
VERTEX
  8
Mesh
 62
   7
 10
0.0
 20
0.0
 30
0.0
 70
   128
 71
   48
 72
   47
 73
   46
  0
VERTEX
  8
Mesh
 62
   7
 10
0.0
 20
0.0
 30
0.0
 70
   128
 71
   51
 72
   50
 73
   49
  0
VERTEX
  8
Mesh
 62
   7
 10
0.0
 20
0.0
 30
0.0
 70
   128
 71
   54
 72
   53
 73
   52
  0
VERTEX
  8
Mesh
 62
   7
 10
0.0
 20
0.0
 30
0.0
 70
   128
 71
   57
 72
   56
 73
   55
  0
VERTEX
  8
Mesh
 62
   7
 10
0.0
 20
0.0
 30
0.0
 70
   128
 71
   60
 72
   59
 73
   58
  0
VERTEX
  8
Mesh
 62
   7
 10
0.0
 20
0.0
 30
0.0
 70
   128
 71
   63
 72
   62
 73
   61
  0
VERTEX
  8
Mesh
 62
   7
 10
0.0
 20
0.0
 30
0.0
 70
   128
 71
   66
 72
   65
 73
   64
  0
VERTEX
  8
Mesh
 62
   7
 10
0.0
 20
0.0
 30
0.0
 70
   128
 71
   69
 72
   68
 73
   67
  0
VERTEX
  8
Mesh
 62
   7
 10
0.0
 20
0.0
 30
0.0
 70
   128
 71
   72
 72
   71
 73
   70
  0
VERTEX
  8
Mesh
 62
   7
 10
0.0
 20
0.0
 30
0.0
 70
   128
 71
   75
 72
   74
 73
   73
  0
VERTEX
  8
Mesh
 62
   7
 10
0.0
 20
0.0
 30
0.0
 70
   128
 71
   78
 72
   77
 73
   76
  0
VERTEX
  8
Mesh
 62
   7
 10
0.0
 20
0.0
 30
0.0
 70
   128
 71
   81
 72
   80
 73
   79
  0
VERTEX
  8
Mesh
 62
   7
 10
0.0
 20
0.0
 30
0.0
 70
   128
 71
   84
 72
   83
 73
   82
  0
VERTEX
  8
Mesh
 62
   7
 10
0.0
 20
0.0
 30
0.0
 70
   128
 71
   87
 72
   86
 73
   85
  0
VERTEX
  8
Mesh
 62
   7
 10
0.0
 20
0.0
 30
0.0
 70
   128
 71
   90
 72
   89
 73
   88
  0
VERTEX
  8
Mesh
 62
   7
 10
0.0
 20
0.0
 30
0.0
 70
   128
 71
   93
 72
   92
 73
   91
  0
VERTEX
  8
Mesh
 62
   7
 10
0.0
 20
0.0
 30
0.0
 70
   128
 71
   96
 72
   95
 73
   94
  0
VERTEX
  8
Mesh
 62
   7
 10
0.0
 20
0.0
 30
0.0
 70
   128
 71
   99
 72
   98
 73
   97
  0
VERTEX
  8
Mesh
 62
   7
 10
0.0
 20
0.0
 30
0.0
 70
   128
 71
   102
 72
   101
 73
   100
  0
VERTEX
  8
Mesh
 62
   7
 10
0.0
 20
0.0
 30
0.0
 70
   128
 71
   105
 72
   104
 73
   103
  0
VERTEX
  8
Mesh
 62
   7
 10
0.0
 20
0.0
 30
0.0
 70
   128
 71
   108
 72
   107
 73
   106
  0
VERTEX
  8
Mesh
 62
   7
 10
0.0
 20
0.0
 30
0.0
 70
   128
 71
   111
 72
   110
 73
   109
  0
VERTEX
  8
Mesh
 62
   7
 10
0.0
 20
0.0
 30
0.0
 70
   128
 71
   114
 72
   113
 73
   112
  0
VERTEX
  8
Mesh
 62
   7
 10
0.0
 20
0.0
 30
0.0
 70
   128
 71
   117
 72
   116
 73
   115
  0
VERTEX
  8
Mesh
 62
   7
 10
0.0
 20
0.0
 30
0.0
 70
   128
 71
   120
 72
   119
 73
   118
  0
VERTEX
  8
Mesh
 62
   7
 10
0.0
 20
0.0
 30
0.0
 70
   128
 71
   123
 72
   122
 73
   121
  0
VERTEX
  8
Mesh
 62
   7
 10
0.0
 20
0.0
 30
0.0
 70
   128
 71
   126
 72
   125
 73
   124
  0
VERTEX
  8
Mesh
 62
   7
 10
0.0
 20
0.0
 30
0.0
 70
   128
 71
   129
 72
   128
 73
   127
  0
VERTEX
  8
Mesh
 62
   7
 10
0.0
 20
0.0
 30
0.0
 70
   128
 71
   132
 72
   131
 73
   130
  0
VERTEX
  8
Mesh
 62
   7
 10
0.0
 20
0.0
 30
0.0
 70
   128
 71
   135
 72
   134
 73
   133
  0
VERTEX
  8
Mesh
 62
   7
 10
0.0
 20
0.0
 30
0.0
 70
   128
 71
   138
 72
   137
 73
   136
  0
VERTEX
  8
Mesh
 62
   7
 10
0.0
 20
0.0
 30
0.0
 70
   128
 71
   141
 72
   140
 73
   139
  0
VERTEX
  8
Mesh
 62
   7
 10
0.0
 20
0.0
 30
0.0
 70
   128
 71
   144
 72
   143
 73
   142
  0
VERTEX
  8
Mesh
 62
   7
 10
0.0
 20
0.0
 30
0.0
 70
   128
 71
   147
 72
   146
 73
   145
  0
VERTEX
  8
Mesh
 62
   7
 10
0.0
 20
0.0
 30
0.0
 70
   128
 71
   150
 72
   149
 73
   148
  0
VERTEX
  8
Mesh
 62
   7
 10
0.0
 20
0.0
 30
0.0
 70
   128
 71
   153
 72
   152
 73
   151
  0
VERTEX
  8
Mesh
 62
   7
 10
0.0
 20
0.0
 30
0.0
 70
   128
 71
   156
 72
   155
 73
   154
  0
VERTEX
  8
Mesh
 62
   7
 10
0.0
 20
0.0
 30
0.0
 70
   128
 71
   159
 72
   158
 73
   157
  0
VERTEX
  8
Mesh
 62
   7
 10
0.0
 20
0.0
 30
0.0
 70
   128
 71
   162
 72
   161
 73
   160
  0
SEQEND
  0
POLYLINE
  8
Mesh_ncl1_1
 62
   7
 66
   1
 10
0.0
 20
0.0
 30
0.0
 70
   64
 71
   120
 72
   40
  0
VERTEX
  8
Mesh_ncl1_1
 10
492.369000
 20
526.934000
 30
19.874000
 70
   192
  0
VERTEX
  8
Mesh_ncl1_1
 10
492.978000
 20
516.032000
 30
21.385000
 70
   192
  0
VERTEX
  8
Mesh_ncl1_1
 10
492.978000
 20
516.032000
 30
19.874000
 70
   192
  0
VERTEX
  8
Mesh_ncl1_1
 10
492.369000
 20
526.934000
 30
19.874000
 70
   192
  0
VERTEX
  8
Mesh_ncl1_1
 10
492.369000
 20
526.934000
 30
21.545000
 70
   192
  0
VERTEX
  8
Mesh_ncl1_1
 10
492.978000
 20
516.032000
 30
21.385000
 70
   192
  0
VERTEX
  8
Mesh_ncl1_1
 10
492.978000
 20
516.032000
 30
19.874000
 70
   192
  0
VERTEX
  8
Mesh_ncl1_1
 10
493.076000
 20
505.160000
 30
21.141000
 70
   192
  0
VERTEX
  8
Mesh_ncl1_1
 10
493.076000
 20
505.160000
 30
19.874000
 70
   192
  0
VERTEX
  8
Mesh_ncl1_1
 10
492.978000
 20
516.032000
 30
19.874000
 70
   192
  0
VERTEX
  8
Mesh_ncl1_1
 10
492.978000
 20
516.032000
 30
21.385000
 70
   192
  0
VERTEX
  8
Mesh_ncl1_1
 10
493.076000
 20
505.160000
 30
21.141000
 70
   192
  0
VERTEX
  8
Mesh_ncl1_1
 10
493.076000
 20
505.160000
 30
19.874000
 70
   192
  0
VERTEX
  8
Mesh_ncl1_1
 10
495.273000
 20
496.828000
 30
20.081000
 70
   192
  0
VERTEX
  8
Mesh_ncl1_1
 10
495.273000
 20
496.828000
 30
19.874000
 70
   192
  0
VERTEX
  8
Mesh_ncl1_1
 10
493.076000
 20
505.160000
 30
19.874000
 70
   192
  0
VERTEX
  8
Mesh_ncl1_1
 10
493.076000
 20
505.160000
 30
21.141000
 70
   192
  0
VERTEX
  8
Mesh_ncl1_1
 10
495.273000
 20
496.828000
 30
20.081000
 70
   192
  0
VERTEX
  8
Mesh_ncl1_1
 10
495.273000
 20
496.828000
 30
19.874000
 70
   192
  0
VERTEX
  8
Mesh_ncl1_1
 10
495.523000
 20
494.395000
 30
20.011000
 70
   192
  0
VERTEX
  8
Mesh_ncl1_1
 10
495.523000
 20
494.395000
 30
19.874000
 70
   192
  0
VERTEX
  8
Mesh_ncl1_1
 10
495.273000
 20
496.828000
 30
19.874000
 70
   192
  0
VERTEX
  8
Mesh_ncl1_1
 10
495.273000
 20
496.828000
 30
20.081000
 70
   192
  0
VERTEX
  8
Mesh_ncl1_1
 10
495.523000
 20
494.395000
 30
20.011000
 70
   192
  0
VERTEX
  8
Mesh_ncl1_1
 10
495.523000
 20
494.395000
 30
19.874000
 70
   192
  0
VERTEX
  8
Mesh_ncl1_1
 10
501.519000
 20
494.839000
 30
19.978000
 70
   192
  0
VERTEX
  8
Mesh_ncl1_1
 10
501.519000
 20
494.839000
 30
19.874000
 70
   192
  0
VERTEX
  8
Mesh_ncl1_1
 10
495.523000
 20
494.395000
 30
19.874000
 70
   192
  0
VERTEX
  8
Mesh_ncl1_1
 10
495.523000
 20
494.395000
 30
20.011000
 70
   192
  0
VERTEX
  8
Mesh_ncl1_1
 10
501.519000
 20
494.839000
 30
19.978000
 70
   192
  0
VERTEX
  8
Mesh_ncl1_1
 10
501.519000
 20
494.839000
 30
19.874000
 70
   192
  0
VERTEX
  8
Mesh_ncl1_1
 10
505.367000
 20
495.398000
 30
19.890000
 70
   192
  0
VERTEX
  8
Mesh_ncl1_1
 10
505.367000
 20
495.398000
 30
19.874000
 70
   192
  0
VERTEX
  8
Mesh_ncl1_1
 10
501.519000
 20
494.839000
 30
19.874000
 70
   192
  0
VERTEX
  8
Mesh_ncl1_1
 10
501.519000
 20
494.839000
 30
19.978000
 70
   192
  0
VERTEX
  8
Mesh_ncl1_1
 10
505.367000
 20
495.398000
 30
19.890000
 70
   192
  0
VERTEX
  8
Mesh_ncl1_1
 10
509.535000
 20
495.336000
 30
19.874000
 70
   192
  0
VERTEX
  8
Mesh_ncl1_1
 10
505.367000
 20
495.398000
 30
19.890000
 70
   192
  0
VERTEX
  8
Mesh_ncl1_1
 10
509.535000
 20
495.336000
 30
19.933000
 70
   192
  0
VERTEX
  8
Mesh_ncl1_1
 10
505.367000
 20
495.398000
 30
19.874000
 70
   192
  0
VERTEX
  8
Mesh_ncl1_1
 10
505.367000
 20
495.398000
 30
19.890000
 70
   192
  0
VERTEX
  8
Mesh_ncl1_1
 10
509.535000
 20
495.336000
 30
19.874000
 70
   192
  0
VERTEX
  8
Mesh_ncl1_1
 10
509.535000
 20
495.336000
 30
19.874000
 70
   192
  0
VERTEX
  8
Mesh_ncl1_1
 10
514.180000
 20
495.708000
 30
19.909000
 70
   192
  0
VERTEX
  8
Mesh_ncl1_1
 10
514.180000
 20
495.708000
 30
19.874000
 70
   192
  0
VERTEX
  8
Mesh_ncl1_1
 10
509.535000
 20
495.336000
 30
19.874000
 70
   192
  0
VERTEX
  8
Mesh_ncl1_1
 10
509.535000
 20
495.336000
 30
19.933000
 70
   192
  0
VERTEX
  8
Mesh_ncl1_1
 10
514.180000
 20
495.708000
 30
19.909000
 70
   192
  0
VERTEX
  8
Mesh_ncl1_1
 10
514.574000
 20
498.127000
 30
19.874000
 70
   192
  0
VERTEX
  8
Mesh_ncl1_1
 10
514.180000
 20
495.708000
 30
19.909000
 70
   192
  0
VERTEX
  8
Mesh_ncl1_1
 10
514.574000
 20
498.127000
 30
19.981000
 70
   192
  0
VERTEX
  8
Mesh_ncl1_1
 10
514.180000
 20
495.708000
 30
19.874000
 70
   192
  0
VERTEX
  8
Mesh_ncl1_1
 10
514.180000
 20
495.708000
 30
19.909000
 70
   192
  0
VERTEX
  8
Mesh_ncl1_1
 10
514.574000
 20
498.127000
 30
19.874000
 70
   192
  0
VERTEX
  8
Mesh_ncl1_1
 10
514.251000
 20
500.064000
 30
19.874000
 70
   192
  0
VERTEX
  8
Mesh_ncl1_1
 10
514.574000
 20
498.127000
 30
19.981000
 70
   192
  0
VERTEX
  8
Mesh_ncl1_1
 10
514.251000
 20
500.064000
 30
20.049000
 70
   192
  0
VERTEX
  8
Mesh_ncl1_1
 10
514.574000
 20
498.127000
 30
19.874000
 70
   192
  0
VERTEX
  8
Mesh_ncl1_1
 10
514.574000
 20
498.127000
 30
19.981000
 70
   192
  0
VERTEX
  8
Mesh_ncl1_1
 10
514.251000
 20
500.064000
 30
19.874000
 70
   192
  0
VERTEX
  8
Mesh_ncl1_1
 10
514.551000
 20
507.077000
 30
19.874000
 70
   192
  0
VERTEX
  8
Mesh_ncl1_1
 10
514.251000
 20
500.064000
 30
20.049000
 70
   192
  0
VERTEX
  8
Mesh_ncl1_1
 10
514.551000
 20
507.077000
 30
21.207000
 70
   192
  0
VERTEX
  8
Mesh_ncl1_1
 10
514.251000
 20
500.064000
 30
19.874000
 70
   192
  0
VERTEX
  8
Mesh_ncl1_1
 10
514.251000
 20
500.064000
 30
20.049000
 70
   192
  0
VERTEX
  8
Mesh_ncl1_1
 10
514.551000
 20
507.077000
 30
19.874000
 70
   192
  0
VERTEX
  8
Mesh_ncl1_1
 10
514.410000
 20
518.898000
 30
19.874000
 70
   192
  0
VERTEX
  8
Mesh_ncl1_1
 10
514.551000
 20
507.077000
 30
21.207000
 70
   192
  0
VERTEX
  8
Mesh_ncl1_1
 10
514.410000
 20
518.898000
 30
21.475000
 70
   192
  0
VERTEX
  8
Mesh_ncl1_1
 10
514.551000
 20
507.077000
 30
19.874000
 70
   192
  0
VERTEX
  8
Mesh_ncl1_1
 10
514.551000
 20
507.077000
 30
21.207000
 70
   192
  0
VERTEX
  8
Mesh_ncl1_1
 10
514.410000
 20
518.898000
 30
19.874000
 70
   192
  0
VERTEX
  8
Mesh_ncl1_1
 10
512.747000
 20
526.573000
 30
19.874000
 70
   192
  0
VERTEX
  8
Mesh_ncl1_1
 10
514.410000
 20
518.898000
 30
21.475000
 70
   192
  0
VERTEX
  8
Mesh_ncl1_1
 10
512.747000
 20
526.573000
 30
21.643000
 70
   192
  0
VERTEX
  8
Mesh_ncl1_1
 10
514.410000
 20
518.898000
 30
19.874000
 70
   192
  0
VERTEX
  8
Mesh_ncl1_1
 10
514.410000
 20
518.898000
 30
21.475000
 70
   192
  0
VERTEX
  8
Mesh_ncl1_1
 10
512.747000
 20
526.573000
 30
19.874000
 70
   192
  0
VERTEX
  8
Mesh_ncl1_1
 10
511.631000
 20
539.872000
 30
19.874000
 70
   192
  0
VERTEX
  8
Mesh_ncl1_1
 10
512.747000
 20
526.573000
 30
21.643000
 70
   192
  0
VERTEX
  8
Mesh_ncl1_1
 10
511.631000
 20
539.872000
 30
21.823000
 70
   192
  0
VERTEX
  8
Mesh_ncl1_1
 10
512.747000
 20
526.573000
 30
19.874000
 70
   192
  0
VERTEX
  8
Mesh_ncl1_1
 10
512.747000
 20
526.573000
 30
21.643000
 70
   192
  0
VERTEX
  8
Mesh_ncl1_1
 10
511.631000
 20
539.872000
 30
19.874000
 70
   192
  0
VERTEX
  8
Mesh_ncl1_1
 10
510.653000
 20
540.813000
 30
19.874000
 70
   192
  0
VERTEX
  8
Mesh_ncl1_1
 10
511.631000
 20
539.872000
 30
21.823000
 70
   192
  0
VERTEX
  8
Mesh_ncl1_1
 10
510.653000
 20
540.813000
 30
23.615000
 70
   192
  0
VERTEX
  8
Mesh_ncl1_1
 10
511.631000
 20
539.872000
 30
19.874000
 70
   192
  0
VERTEX
  8
Mesh_ncl1_1
 10
511.631000
 20
539.872000
 30
21.823000
 70
   192
  0
VERTEX
  8
Mesh_ncl1_1
 10
510.653000
 20
540.813000
 30
19.874000
 70
   192
  0
VERTEX
  8
Mesh_ncl1_1
 10
510.653000
 20
540.813000
 30
19.874000
 70
   192
  0
VERTEX
  8
Mesh_ncl1_1
 10
502.125000
 20
540.062000
 30
23.389000
 70
   192
  0
VERTEX
  8
Mesh_ncl1_1
 10
502.125000
 20
540.062000
 30
19.874000
 70
   192
  0
VERTEX
  8
Mesh_ncl1_1
 10
510.653000
 20
540.813000
 30
19.874000
 70
   192
  0
VERTEX
  8
Mesh_ncl1_1
 10
510.653000
 20
540.813000
 30
23.615000
 70
   192
  0
VERTEX
  8
Mesh_ncl1_1
 10
502.125000
 20
540.062000
 30
23.389000
 70
   192
  0
VERTEX
  8
Mesh_ncl1_1
 10
494.217000
 20
539.742000
 30
19.874000
 70
   192
  0
VERTEX
  8
Mesh_ncl1_1
 10
502.125000
 20
540.062000
 30
23.389000
 70
   192
  0
VERTEX
  8
Mesh_ncl1_1
 10
494.217000
 20
539.742000
 30
23.421000
 70
   192
  0
VERTEX
  8
Mesh_ncl1_1
 10
502.125000
 20
540.062000
 30
19.874000
 70
   192
  0
VERTEX
  8
Mesh_ncl1_1
 10
502.125000
 20
540.062000
 30
23.389000
 70
   192
  0
VERTEX
  8
Mesh_ncl1_1
 10
494.217000
 20
539.742000
 30
19.874000
 70
   192
  0
VERTEX
  8
Mesh_ncl1_1
 10
494.217000
 20
539.742000
 30
19.874000
 70
   192
  0
VERTEX
  8
Mesh_ncl1_1
 10
493.238000
 20
539.456000
 30
23.296000
 70
   192
  0
VERTEX
  8
Mesh_ncl1_1
 10
493.238000
 20
539.456000
 30
19.874000
 70
   192
  0
VERTEX
  8
Mesh_ncl1_1
 10
494.217000
 20
539.742000
 30
19.874000
 70
   192
  0
VERTEX
  8
Mesh_ncl1_1
 10
494.217000
 20
539.742000
 30
23.421000
 70
   192
  0
VERTEX
  8
Mesh_ncl1_1
 10
493.238000
 20
539.456000
 30
23.296000
 70
   192
  0
VERTEX
  8
Mesh_ncl1_1
 10
493.238000
 20
539.456000
 30
19.874000
 70
   192
  0
VERTEX
  8
Mesh_ncl1_1
 10
493.314000
 20
538.689000
 30
21.655000
 70
   192
  0
VERTEX
  8
Mesh_ncl1_1
 10
493.314000
 20
538.689000
 30
19.874000
 70
   192
  0
VERTEX
  8
Mesh_ncl1_1
 10
493.238000
 20
539.456000
 30
19.874000
 70
   192
  0
VERTEX
  8
Mesh_ncl1_1
 10
493.238000
 20
539.456000
 30
23.296000
 70
   192
  0
VERTEX
  8
Mesh_ncl1_1
 10
493.314000
 20
538.689000
 30
21.655000
 70
   192
  0
VERTEX
  8
Mesh_ncl1_1
 10
493.314000
 20
538.689000
 30
19.874000
 70
   192
  0
VERTEX
  8
Mesh_ncl1_1
 10
492.369000
 20
526.934000
 30
21.545000
 70
   192
  0
VERTEX
  8
Mesh_ncl1_1
 10
492.369000
 20
526.934000
 30
19.874000
 70
   192
  0
VERTEX
  8
Mesh_ncl1_1
 10
493.314000
 20
538.689000
 30
19.874000
 70
   192
  0
VERTEX
  8
Mesh_ncl1_1
 10
493.314000
 20
538.689000
 30
21.655000
 70
   192
  0
VERTEX
  8
Mesh_ncl1_1
 10
492.369000
 20
526.934000
 30
21.545000
 70
   192
  0
VERTEX
  8
Mesh_ncl1_1
 62
   7
 10
0.0
 20
0.0
 30
0.0
 70
   128
 71
   3
 72
   2
 73
   1
  0
VERTEX
  8
Mesh_ncl1_1
 62
   7
 10
0.0
 20
0.0
 30
0.0
 70
   128
 71
   6
 72
   5
 73
   4
  0
VERTEX
  8
Mesh_ncl1_1
 62
   7
 10
0.0
 20
0.0
 30
0.0
 70
   128
 71
   9
 72
   8
 73
   7
  0
VERTEX
  8
Mesh_ncl1_1
 62
   7
 10
0.0
 20
0.0
 30
0.0
 70
   128
 71
   12
 72
   11
 73
   10
  0
VERTEX
  8
Mesh_ncl1_1
 62
   7
 10
0.0
 20
0.0
 30
0.0
 70
   128
 71
   15
 72
   14
 73
   13
  0
VERTEX
  8
Mesh_ncl1_1
 62
   7
 10
0.0
 20
0.0
 30
0.0
 70
   128
 71
   18
 72
   17
 73
   16
  0
VERTEX
  8
Mesh_ncl1_1
 62
   7
 10
0.0
 20
0.0
 30
0.0
 70
   128
 71
   21
 72
   20
 73
   19
  0
VERTEX
  8
Mesh_ncl1_1
 62
   7
 10
0.0
 20
0.0
 30
0.0
 70
   128
 71
   24
 72
   23
 73
   22
  0
VERTEX
  8
Mesh_ncl1_1
 62
   7
 10
0.0
 20
0.0
 30
0.0
 70
   128
 71
   27
 72
   26
 73
   25
  0
VERTEX
  8
Mesh_ncl1_1
 62
   7
 10
0.0
 20
0.0
 30
0.0
 70
   128
 71
   30
 72
   29
 73
   28
  0
VERTEX
  8
Mesh_ncl1_1
 62
   7
 10
0.0
 20
0.0
 30
0.0
 70
   128
 71
   33
 72
   32
 73
   31
  0
VERTEX
  8
Mesh_ncl1_1
 62
   7
 10
0.0
 20
0.0
 30
0.0
 70
   128
 71
   36
 72
   35
 73
   34
  0
VERTEX
  8
Mesh_ncl1_1
 62
   7
 10
0.0
 20
0.0
 30
0.0
 70
   128
 71
   39
 72
   38
 73
   37
  0
VERTEX
  8
Mesh_ncl1_1
 62
   7
 10
0.0
 20
0.0
 30
0.0
 70
   128
 71
   42
 72
   41
 73
   40
  0
VERTEX
  8
Mesh_ncl1_1
 62
   7
 10
0.0
 20
0.0
 30
0.0
 70
   128
 71
   45
 72
   44
 73
   43
  0
VERTEX
  8
Mesh_ncl1_1
 62
   7
 10
0.0
 20
0.0
 30
0.0
 70
   128
 71
   48
 72
   47
 73
   46
  0
VERTEX
  8
Mesh_ncl1_1
 62
   7
 10
0.0
 20
0.0
 30
0.0
 70
   128
 71
   51
 72
   50
 73
   49
  0
VERTEX
  8
Mesh_ncl1_1
 62
   7
 10
0.0
 20
0.0
 30
0.0
 70
   128
 71
   54
 72
   53
 73
   52
  0
VERTEX
  8
Mesh_ncl1_1
 62
   7
 10
0.0
 20
0.0
 30
0.0
 70
   128
 71
   57
 72
   56
 73
   55
  0
VERTEX
  8
Mesh_ncl1_1
 62
   7
 10
0.0
 20
0.0
 30
0.0
 70
   128
 71
   60
 72
   59
 73
   58
  0
VERTEX
  8
Mesh_ncl1_1
 62
   7
 10
0.0
 20
0.0
 30
0.0
 70
   128
 71
   63
 72
   62
 73
   61
  0
VERTEX
  8
Mesh_ncl1_1
 62
   7
 10
0.0
 20
0.0
 30
0.0
 70
   128
 71
   66
 72
   65
 73
   64
  0
VERTEX
  8
Mesh_ncl1_1
 62
   7
 10
0.0
 20
0.0
 30
0.0
 70
   128
 71
   69
 72
   68
 73
   67
  0
VERTEX
  8
Mesh_ncl1_1
 62
   7
 10
0.0
 20
0.0
 30
0.0
 70
   128
 71
   72
 72
   71
 73
   70
  0
VERTEX
  8
Mesh_ncl1_1
 62
   7
 10
0.0
 20
0.0
 30
0.0
 70
   128
 71
   75
 72
   74
 73
   73
  0
VERTEX
  8
Mesh_ncl1_1
 62
   7
 10
0.0
 20
0.0
 30
0.0
 70
   128
 71
   78
 72
   77
 73
   76
  0
VERTEX
  8
Mesh_ncl1_1
 62
   7
 10
0.0
 20
0.0
 30
0.0
 70
   128
 71
   81
 72
   80
 73
   79
  0
VERTEX
  8
Mesh_ncl1_1
 62
   7
 10
0.0
 20
0.0
 30
0.0
 70
   128
 71
   84
 72
   83
 73
   82
  0
VERTEX
  8
Mesh_ncl1_1
 62
   7
 10
0.0
 20
0.0
 30
0.0
 70
   128
 71
   87
 72
   86
 73
   85
  0
VERTEX
  8
Mesh_ncl1_1
 62
   7
 10
0.0
 20
0.0
 30
0.0
 70
   128
 71
   90
 72
   89
 73
   88
  0
VERTEX
  8
Mesh_ncl1_1
 62
   7
 10
0.0
 20
0.0
 30
0.0
 70
   128
 71
   93
 72
   92
 73
   91
  0
VERTEX
  8
Mesh_ncl1_1
 62
   7
 10
0.0
 20
0.0
 30
0.0
 70
   128
 71
   96
 72
   95
 73
   94
  0
VERTEX
  8
Mesh_ncl1_1
 62
   7
 10
0.0
 20
0.0
 30
0.0
 70
   128
 71
   99
 72
   98
 73
   97
  0
VERTEX
  8
Mesh_ncl1_1
 62
   7
 10
0.0
 20
0.0
 30
0.0
 70
   128
 71
   102
 72
   101
 73
   100
  0
VERTEX
  8
Mesh_ncl1_1
 62
   7
 10
0.0
 20
0.0
 30
0.0
 70
   128
 71
   105
 72
   104
 73
   103
  0
VERTEX
  8
Mesh_ncl1_1
 62
   7
 10
0.0
 20
0.0
 30
0.0
 70
   128
 71
   108
 72
   107
 73
   106
  0
VERTEX
  8
Mesh_ncl1_1
 62
   7
 10
0.0
 20
0.0
 30
0.0
 70
   128
 71
   111
 72
   110
 73
   109
  0
VERTEX
  8
Mesh_ncl1_1
 62
   7
 10
0.0
 20
0.0
 30
0.0
 70
   128
 71
   114
 72
   113
 73
   112
  0
VERTEX
  8
Mesh_ncl1_1
 62
   7
 10
0.0
 20
0.0
 30
0.0
 70
   128
 71
   117
 72
   116
 73
   115
  0
VERTEX
  8
Mesh_ncl1_1
 62
   7
 10
0.0
 20
0.0
 30
0.0
 70
   128
 71
   120
 72
   119
 73
   118
  0
SEQEND
  0
POLYLINE
  8
Mesh_ncl1_2
 62
   7
 66
   1
 10
0.0
 20
0.0
 30
0.0
 70
   64
 71
   3
 72
   1
  0
VERTEX
  8
Mesh_ncl1_2
 10
499.777000
 20
499.875000
 30
20.291000
 70
   192
  0
VERTEX
  8
Mesh_ncl1_2
 10
500.223000
 20
499.875000
 30
20.291000
 70
   192
  0
VERTEX
  8
Mesh_ncl1_2
 10
500.000000
 20
500.249000
 30
20.291000
 70
   192
  0
VERTEX
  8
Mesh_ncl1_2
 62
   7
 10
0.0
 20
0.0
 30
0.0
 70
   128
 71
   3
 72
   2
 73
   1
  0
SEQEND
  0
POLYLINE
  8
Mesh_ncl1_3
 62
   30
 66
   1
 10
0.0
 20
0.0
 30
0.0
 70
   64
 71
   288
 72
   96
  0
VERTEX
  8
Mesh_ncl1_3
 10
497.146601
 20
494.599935
 30
20.000000
 70
   192
  0
VERTEX
  8
Mesh_ncl1_3
 10
497.285183
 20
494.542532
 30
20.000000
 70
   192
  0
VERTEX
  8
Mesh_ncl1_3
 10
497.296601
 20
494.599935
 30
20.000000
 70
   192
  0
VERTEX
  8
Mesh_ncl1_3
 10
497.146601
 20
494.599935
 30
20.000000
 70
   192
  0
VERTEX
  8
Mesh_ncl1_3
 10
497.296601
 20
494.599935
 30
20.000000
 70
   192
  0
VERTEX
  8
Mesh_ncl1_3
 10
497.285183
 20
494.657337
 30
20.000000
 70
   192
  0
VERTEX
  8
Mesh_ncl1_3
 10
497.146601
 20
494.599935
 30
20.000000
 70
   192
  0
VERTEX
  8
Mesh_ncl1_3
 10
497.285183
 20
494.657337
 30
20.000000
 70
   192
  0
VERTEX
  8
Mesh_ncl1_3
 10
497.252667
 20
494.706001
 30
20.000000
 70
   192
  0
VERTEX
  8
Mesh_ncl1_3
 10
497.146601
 20
494.599935
 30
20.000000
 70
   192
  0
VERTEX
  8
Mesh_ncl1_3
 10
497.252667
 20
494.706001
 30
20.000000
 70
   192
  0
VERTEX
  8
Mesh_ncl1_3
 10
497.204003
 20
494.738516
 30
20.000000
 70
   192
  0
VERTEX
  8
Mesh_ncl1_3
 10
497.146601
 20
494.599935
 30
20.000000
 70
   192
  0
VERTEX
  8
Mesh_ncl1_3
 10
497.204003
 20
494.738516
 30
20.000000
 70
   192
  0
VERTEX
  8
Mesh_ncl1_3
 10
497.146601
 20
494.749935
 30
20.000000
 70
   192
  0
VERTEX
  8
Mesh_ncl1_3
 10
497.146601
 20
494.599935
 30
20.000000
 70
   192
  0
VERTEX
  8
Mesh_ncl1_3
 10
497.146601
 20
494.749935
 30
20.000000
 70
   192
  0
VERTEX
  8
Mesh_ncl1_3
 10
497.089198
 20
494.738516
 30
20.000000
 70
   192
  0
VERTEX
  8
Mesh_ncl1_3
 10
497.146601
 20
494.599935
 30
20.000000
 70
   192
  0
VERTEX
  8
Mesh_ncl1_3
 10
497.089198
 20
494.738516
 30
20.000000
 70
   192
  0
VERTEX
  8
Mesh_ncl1_3
 10
497.040535
 20
494.706001
 30
20.000000
 70
   192
  0
VERTEX
  8
Mesh_ncl1_3
 10
497.146601
 20
494.599935
 30
20.000000
 70
   192
  0
VERTEX
  8
Mesh_ncl1_3
 10
497.040535
 20
494.706001
 30
20.000000
 70
   192
  0
VERTEX
  8
Mesh_ncl1_3
 10
497.008019
 20
494.657337
 30
20.000000
 70
   192
  0
VERTEX
  8
Mesh_ncl1_3
 10
497.146601
 20
494.599935
 30
20.000000
 70
   192
  0
VERTEX
  8
Mesh_ncl1_3
 10
497.008019
 20
494.657337
 30
20.000000
 70
   192
  0
VERTEX
  8
Mesh_ncl1_3
 10
496.996601
 20
494.599935
 30
20.000000
 70
   192
  0
VERTEX
  8
Mesh_ncl1_3
 10
497.146601
 20
494.599935
 30
20.000000
 70
   192
  0
VERTEX
  8
Mesh_ncl1_3
 10
496.996601
 20
494.599935
 30
20.000000
 70
   192
  0
VERTEX
  8
Mesh_ncl1_3
 10
497.008019
 20
494.542532
 30
20.000000
 70
   192
  0
VERTEX
  8
Mesh_ncl1_3
 10
497.146601
 20
494.599935
 30
20.000000
 70
   192
  0
VERTEX
  8
Mesh_ncl1_3
 10
497.008019
 20
494.542532
 30
20.000000
 70
   192
  0
VERTEX
  8
Mesh_ncl1_3
 10
497.040535
 20
494.493869
 30
20.000000
 70
   192
  0
VERTEX
  8
Mesh_ncl1_3
 10
497.146601
 20
494.599935
 30
20.000000
 70
   192
  0
VERTEX
  8
Mesh_ncl1_3
 10
497.040535
 20
494.493869
 30
20.000000
 70
   192
  0
VERTEX
  8
Mesh_ncl1_3
 10
497.089198
 20
494.461353
 30
20.000000
 70
   192
  0
VERTEX
  8
Mesh_ncl1_3
 10
497.146601
 20
494.599935
 30
20.000000
 70
   192
  0
VERTEX
  8
Mesh_ncl1_3
 10
497.089198
 20
494.461353
 30
20.000000
 70
   192
  0
VERTEX
  8
Mesh_ncl1_3
 10
497.146601
 20
494.449935
 30
20.000000
 70
   192
  0
VERTEX
  8
Mesh_ncl1_3
 10
497.146601
 20
494.599935
 30
20.000000
 70
   192
  0
VERTEX
  8
Mesh_ncl1_3
 10
497.146601
 20
494.449935
 30
20.000000
 70
   192
  0
VERTEX
  8
Mesh_ncl1_3
 10
497.204003
 20
494.461353
 30
20.000000
 70
   192
  0
VERTEX
  8
Mesh_ncl1_3
 10
497.146601
 20
494.599935
 30
20.000000
 70
   192
  0
VERTEX
  8
Mesh_ncl1_3
 10
497.204003
 20
494.461353
 30
20.000000
 70
   192
  0
VERTEX
  8
Mesh_ncl1_3
 10
497.252667
 20
494.493869
 30
20.000000
 70
   192
  0
VERTEX
  8
Mesh_ncl1_3
 10
497.146601
 20
494.599935
 30
20.000000
 70
   192
  0
VERTEX
  8
Mesh_ncl1_3
 10
497.252667
 20
494.493869
 30
20.000000
 70
   192
  0
VERTEX
  8
Mesh_ncl1_3
 10
497.285183
 20
494.542532
 30
20.000000
 70
   192
  0
VERTEX
  8
Mesh_ncl1_3
 10
497.150601
 20
494.597935
 30
20.003000
 70
   192
  0
VERTEX
  8
Mesh_ncl1_3
 10
497.289183
 20
494.540532
 30
20.003000
 70
   192
  0
VERTEX
  8
Mesh_ncl1_3
 10
497.300601
 20
494.597935
 30
20.003000
 70
   192
  0
VERTEX
  8
Mesh_ncl1_3
 10
497.150601
 20
494.597935
 30
20.003000
 70
   192
  0
VERTEX
  8
Mesh_ncl1_3
 10
497.300601
 20
494.597935
 30
20.003000
 70
   192
  0
VERTEX
  8
Mesh_ncl1_3
 10
497.289183
 20
494.655337
 30
20.003000
 70
   192
  0
VERTEX
  8
Mesh_ncl1_3
 10
497.150601
 20
494.597935
 30
20.003000
 70
   192
  0
VERTEX
  8
Mesh_ncl1_3
 10
497.289183
 20
494.655337
 30
20.003000
 70
   192
  0
VERTEX
  8
Mesh_ncl1_3
 10
497.256667
 20
494.704001
 30
20.003000
 70
   192
  0
VERTEX
  8
Mesh_ncl1_3
 10
497.150601
 20
494.597935
 30
20.003000
 70
   192
  0
VERTEX
  8
Mesh_ncl1_3
 10
497.256667
 20
494.704001
 30
20.003000
 70
   192
  0
VERTEX
  8
Mesh_ncl1_3
 10
497.208003
 20
494.736516
 30
20.003000
 70
   192
  0
VERTEX
  8
Mesh_ncl1_3
 10
497.150601
 20
494.597935
 30
20.003000
 70
   192
  0
VERTEX
  8
Mesh_ncl1_3
 10
497.208003
 20
494.736516
 30
20.003000
 70
   192
  0
VERTEX
  8
Mesh_ncl1_3
 10
497.150601
 20
494.747935
 30
20.003000
 70
   192
  0
VERTEX
  8
Mesh_ncl1_3
 10
497.150601
 20
494.597935
 30
20.003000
 70
   192
  0
VERTEX
  8
Mesh_ncl1_3
 10
497.150601
 20
494.747935
 30
20.003000
 70
   192
  0
VERTEX
  8
Mesh_ncl1_3
 10
497.093198
 20
494.736516
 30
20.003000
 70
   192
  0
VERTEX
  8
Mesh_ncl1_3
 10
497.150601
 20
494.597935
 30
20.003000
 70
   192
  0
VERTEX
  8
Mesh_ncl1_3
 10
497.093198
 20
494.736516
 30
20.003000
 70
   192
  0
VERTEX
  8
Mesh_ncl1_3
 10
497.044535
 20
494.704001
 30
20.003000
 70
   192
  0
VERTEX
  8
Mesh_ncl1_3
 10
497.150601
 20
494.597935
 30
20.003000
 70
   192
  0
VERTEX
  8
Mesh_ncl1_3
 10
497.044535
 20
494.704001
 30
20.003000
 70
   192
  0
VERTEX
  8
Mesh_ncl1_3
 10
497.012019
 20
494.655337
 30
20.003000
 70
   192
  0
VERTEX
  8
Mesh_ncl1_3
 10
497.150601
 20
494.597935
 30
20.003000
 70
   192
  0
VERTEX
  8
Mesh_ncl1_3
 10
497.012019
 20
494.655337
 30
20.003000
 70
   192
  0
VERTEX
  8
Mesh_ncl1_3
 10
497.000601
 20
494.597935
 30
20.003000
 70
   192
  0
VERTEX
  8
Mesh_ncl1_3
 10
497.150601
 20
494.597935
 30
20.003000
 70
   192
  0
VERTEX
  8
Mesh_ncl1_3
 10
497.000601
 20
494.597935
 30
20.003000
 70
   192
  0
VERTEX
  8
Mesh_ncl1_3
 10
497.012019
 20
494.540532
 30
20.003000
 70
   192
  0
VERTEX
  8
Mesh_ncl1_3
 10
497.150601
 20
494.597935
 30
20.003000
 70
   192
  0
VERTEX
  8
Mesh_ncl1_3
 10
497.012019
 20
494.540532
 30
20.003000
 70
   192
  0
VERTEX
  8
Mesh_ncl1_3
 10
497.044535
 20
494.491869
 30
20.003000
 70
   192
  0
VERTEX
  8
Mesh_ncl1_3
 10
497.150601
 20
494.597935
 30
20.003000
 70
   192
  0
VERTEX
  8
Mesh_ncl1_3
 10
497.044535
 20
494.491869
 30
20.003000
 70
   192
  0
VERTEX
  8
Mesh_ncl1_3
 10
497.093198
 20
494.459353
 30
20.003000
 70
   192
  0
VERTEX
  8
Mesh_ncl1_3
 10
497.150601
 20
494.597935
 30
20.003000
 70
   192
  0
VERTEX
  8
Mesh_ncl1_3
 10
497.093198
 20
494.459353
 30
20.003000
 70
   192
  0
VERTEX
  8
Mesh_ncl1_3
 10
497.150601
 20
494.447935
 30
20.003000
 70
   192
  0
VERTEX
  8
Mesh_ncl1_3
 10
497.150601
 20
494.597935
 30
20.003000
 70
   192
  0
VERTEX
  8
Mesh_ncl1_3
 10
497.150601
 20
494.447935
 30
20.003000
 70
   192
  0
VERTEX
  8
Mesh_ncl1_3
 10
497.208003
 20
494.459353
 30
20.003000
 70
   192
  0
VERTEX
  8
Mesh_ncl1_3
 10
497.150601
 20
494.597935
 30
20.003000
 70
   192
  0
VERTEX
  8
Mesh_ncl1_3
 10
497.208003
 20
494.459353
 30
20.003000
 70
   192
  0
VERTEX
  8
Mesh_ncl1_3
 10
497.256667
 20
494.491869
 30
20.003000
 70
   192
  0
VERTEX
  8
Mesh_ncl1_3
 10
497.150601
 20
494.597935
 30
20.003000
 70
   192
  0
VERTEX
  8
Mesh_ncl1_3
 10
497.256667
 20
494.491869
 30
20.003000
 70
   192
  0
VERTEX
  8
Mesh_ncl1_3
 10
497.289183
 20
494.540532
 30
20.003000
 70
   192
  0
VERTEX
  8
Mesh_ncl1_3
 10
513.057064
 20
500.067674
 30
20.012000
 70
   192
  0
VERTEX
  8
Mesh_ncl1_3
 10
513.119058
 20
499.918005
 30
20.012000
 70
   192
  0
VERTEX
  8
Mesh_ncl1_3
 10
513.171615
 20
499.953122
 30
20.012000
 70
   192
  0
VERTEX
  8
Mesh_ncl1_3
 10
513.057064
 20
500.067674
 30
20.012000
 70
   192
  0
VERTEX
  8
Mesh_ncl1_3
 10
513.171615
 20
499.953122
 30
20.012000
 70
   192
  0
VERTEX
  8
Mesh_ncl1_3
 10
513.206732
 20
500.005679
 30
20.012000
 70
   192
  0
VERTEX
  8
Mesh_ncl1_3
 10
513.057064
 20
500.067674
 30
20.012000
 70
   192
  0
VERTEX
  8
Mesh_ncl1_3
 10
513.206732
 20
500.005679
 30
20.012000
 70
   192
  0
VERTEX
  8
Mesh_ncl1_3
 10
513.219064
 20
500.067674
 30
20.012000
 70
   192
  0
VERTEX
  8
Mesh_ncl1_3
 10
513.057064
 20
500.067674
 30
20.012000
 70
   192
  0
VERTEX
  8
Mesh_ncl1_3
 10
513.219064
 20
500.067674
 30
20.012000
 70
   192
  0
VERTEX
  8
Mesh_ncl1_3
 10
513.206732
 20
500.129668
 30
20.012000
 70
   192
  0
VERTEX
  8
Mesh_ncl1_3
 10
513.057064
 20
500.067674
 30
20.012000
 70
   192
  0
VERTEX
  8
Mesh_ncl1_3
 10
513.206732
 20
500.129668
 30
20.012000
 70
   192
  0
VERTEX
  8
Mesh_ncl1_3
 10
513.171615
 20
500.182225
 30
20.012000
 70
   192
  0
VERTEX
  8
Mesh_ncl1_3
 10
513.057064
 20
500.067674
 30
20.012000
 70
   192
  0
VERTEX
  8
Mesh_ncl1_3
 10
513.171615
 20
500.182225
 30
20.012000
 70
   192
  0
VERTEX
  8
Mesh_ncl1_3
 10
513.119058
 20
500.217342
 30
20.012000
 70
   192
  0
VERTEX
  8
Mesh_ncl1_3
 10
513.057064
 20
500.067674
 30
20.012000
 70
   192
  0
VERTEX
  8
Mesh_ncl1_3
 10
513.119058
 20
500.217342
 30
20.012000
 70
   192
  0
VERTEX
  8
Mesh_ncl1_3
 10
513.057064
 20
500.229674
 30
20.012000
 70
   192
  0
VERTEX
  8
Mesh_ncl1_3
 10
513.057064
 20
500.067674
 30
20.012000
 70
   192
  0
VERTEX
  8
Mesh_ncl1_3
 10
513.057064
 20
500.229674
 30
20.012000
 70
   192
  0
VERTEX
  8
Mesh_ncl1_3
 10
512.995069
 20
500.217342
 30
20.012000
 70
   192
  0
VERTEX
  8
Mesh_ncl1_3
 10
513.057064
 20
500.067674
 30
20.012000
 70
   192
  0
VERTEX
  8
Mesh_ncl1_3
 10
512.995069
 20
500.217342
 30
20.012000
 70
   192
  0
VERTEX
  8
Mesh_ncl1_3
 10
512.942512
 20
500.182225
 30
20.012000
 70
   192
  0
VERTEX
  8
Mesh_ncl1_3
 10
513.057064
 20
500.067674
 30
20.012000
 70
   192
  0
VERTEX
  8
Mesh_ncl1_3
 10
512.942512
 20
500.182225
 30
20.012000
 70
   192
  0
VERTEX
  8
Mesh_ncl1_3
 10
512.907395
 20
500.129668
 30
20.012000
 70
   192
  0
VERTEX
  8
Mesh_ncl1_3
 10
513.057064
 20
500.067674
 30
20.012000
 70
   192
  0
VERTEX
  8
Mesh_ncl1_3
 10
512.907395
 20
500.129668
 30
20.012000
 70
   192
  0
VERTEX
  8
Mesh_ncl1_3
 10
512.895064
 20
500.067674
 30
20.012000
 70
   192
  0
VERTEX
  8
Mesh_ncl1_3
 10
513.057064
 20
500.067674
 30
20.012000
 70
   192
  0
VERTEX
  8
Mesh_ncl1_3
 10
512.895064
 20
500.067674
 30
20.012000
 70
   192
  0
VERTEX
  8
Mesh_ncl1_3
 10
512.907395
 20
500.005679
 30
20.012000
 70
   192
  0
VERTEX
  8
Mesh_ncl1_3
 10
513.057064
 20
500.067674
 30
20.012000
 70
   192
  0
VERTEX
  8
Mesh_ncl1_3
 10
512.907395
 20
500.005679
 30
20.012000
 70
   192
  0
VERTEX
  8
Mesh_ncl1_3
 10
512.942512
 20
499.953122
 30
20.012000
 70
   192
  0
VERTEX
  8
Mesh_ncl1_3
 10
513.057064
 20
500.067674
 30
20.012000
 70
   192
  0
VERTEX
  8
Mesh_ncl1_3
 10
512.942512
 20
499.953122
 30
20.012000
 70
   192
  0
VERTEX
  8
Mesh_ncl1_3
 10
512.995069
 20
499.918005
 30
20.012000
 70
   192
  0
VERTEX
  8
Mesh_ncl1_3
 10
513.057064
 20
500.067674
 30
20.012000
 70
   192
  0
VERTEX
  8
Mesh_ncl1_3
 10
512.995069
 20
499.918005
 30
20.012000
 70
   192
  0
VERTEX
  8
Mesh_ncl1_3
 10
513.057064
 20
499.905674
 30
20.012000
 70
   192
  0
VERTEX
  8
Mesh_ncl1_3
 10
513.057064
 20
500.067674
 30
20.012000
 70
   192
  0
VERTEX
  8
Mesh_ncl1_3
 10
513.057064
 20
499.905674
 30
20.012000
 70
   192
  0
VERTEX
  8
Mesh_ncl1_3
 10
513.119058
 20
499.918005
 30
20.012000
 70
   192
  0
VERTEX
  8
Mesh_ncl1_3
 10
496.822064
 20
498.921674
 30
20.023000
 70
   192
  0
VERTEX
  8
Mesh_ncl1_3
 10
496.884058
 20
498.772005
 30
20.023000
 70
   192
  0
VERTEX
  8
Mesh_ncl1_3
 10
496.936615
 20
498.807122
 30
20.023000
 70
   192
  0
VERTEX
  8
Mesh_ncl1_3
 10
496.822064
 20
498.921674
 30
20.023000
 70
   192
  0
VERTEX
  8
Mesh_ncl1_3
 10
496.936615
 20
498.807122
 30
20.023000
 70
   192
  0
VERTEX
  8
Mesh_ncl1_3
 10
496.971732
 20
498.859679
 30
20.023000
 70
   192
  0
VERTEX
  8
Mesh_ncl1_3
 10
496.822064
 20
498.921674
 30
20.023000
 70
   192
  0
VERTEX
  8
Mesh_ncl1_3
 10
496.971732
 20
498.859679
 30
20.023000
 70
   192
  0
VERTEX
  8
Mesh_ncl1_3
 10
496.984064
 20
498.921674
 30
20.023000
 70
   192
  0
VERTEX
  8
Mesh_ncl1_3
 10
496.822064
 20
498.921674
 30
20.023000
 70
   192
  0
VERTEX
  8
Mesh_ncl1_3
 10
496.984064
 20
498.921674
 30
20.023000
 70
   192
  0
VERTEX
  8
Mesh_ncl1_3
 10
496.971732
 20
498.983668
 30
20.023000
 70
   192
  0
VERTEX
  8
Mesh_ncl1_3
 10
496.822064
 20
498.921674
 30
20.023000
 70
   192
  0
VERTEX
  8
Mesh_ncl1_3
 10
496.971732
 20
498.983668
 30
20.023000
 70
   192
  0
VERTEX
  8
Mesh_ncl1_3
 10
496.936615
 20
499.036225
 30
20.023000
 70
   192
  0
VERTEX
  8
Mesh_ncl1_3
 10
496.822064
 20
498.921674
 30
20.023000
 70
   192
  0
VERTEX
  8
Mesh_ncl1_3
 10
496.936615
 20
499.036225
 30
20.023000
 70
   192
  0
VERTEX
  8
Mesh_ncl1_3
 10
496.884058
 20
499.071342
 30
20.023000
 70
   192
  0
VERTEX
  8
Mesh_ncl1_3
 10
496.822064
 20
498.921674
 30
20.023000
 70
   192
  0
VERTEX
  8
Mesh_ncl1_3
 10
496.884058
 20
499.071342
 30
20.023000
 70
   192
  0
VERTEX
  8
Mesh_ncl1_3
 10
496.822064
 20
499.083674
 30
20.023000
 70
   192
  0
VERTEX
  8
Mesh_ncl1_3
 10
496.822064
 20
498.921674
 30
20.023000
 70
   192
  0
VERTEX
  8
Mesh_ncl1_3
 10
496.822064
 20
499.083674
 30
20.023000
 70
   192
  0
VERTEX
  8
Mesh_ncl1_3
 10
496.760069
 20
499.071342
 30
20.023000
 70
   192
  0
VERTEX
  8
Mesh_ncl1_3
 10
496.822064
 20
498.921674
 30
20.023000
 70
   192
  0
VERTEX
  8
Mesh_ncl1_3
 10
496.760069
 20
499.071342
 30
20.023000
 70
   192
  0
VERTEX
  8
Mesh_ncl1_3
 10
496.707512
 20
499.036225
 30
20.023000
 70
   192
  0
VERTEX
  8
Mesh_ncl1_3
 10
496.822064
 20
498.921674
 30
20.023000
 70
   192
  0
VERTEX
  8
Mesh_ncl1_3
 10
496.707512
 20
499.036225
 30
20.023000
 70
   192
  0
VERTEX
  8
Mesh_ncl1_3
 10
496.672395
 20
498.983668
 30
20.023000
 70
   192
  0
VERTEX
  8
Mesh_ncl1_3
 10
496.822064
 20
498.921674
 30
20.023000
 70
   192
  0
VERTEX
  8
Mesh_ncl1_3
 10
496.672395
 20
498.983668
 30
20.023000
 70
   192
  0
VERTEX
  8
Mesh_ncl1_3
 10
496.660064
 20
498.921674
 30
20.023000
 70
   192
  0
VERTEX
  8
Mesh_ncl1_3
 10
496.822064
 20
498.921674
 30
20.023000
 70
   192
  0
VERTEX
  8
Mesh_ncl1_3
 10
496.660064
 20
498.921674
 30
20.023000
 70
   192
  0
VERTEX
  8
Mesh_ncl1_3
 10
496.672395
 20
498.859679
 30
20.023000
 70
   192
  0
VERTEX
  8
Mesh_ncl1_3
 10
496.822064
 20
498.921674
 30
20.023000
 70
   192
  0
VERTEX
  8
Mesh_ncl1_3
 10
496.672395
 20
498.859679
 30
20.023000
 70
   192
  0
VERTEX
  8
Mesh_ncl1_3
 10
496.707512
 20
498.807122
 30
20.023000
 70
   192
  0
VERTEX
  8
Mesh_ncl1_3
 10
496.822064
 20
498.921674
 30
20.023000
 70
   192
  0
VERTEX
  8
Mesh_ncl1_3
 10
496.707512
 20
498.807122
 30
20.023000
 70
   192
  0
VERTEX
  8
Mesh_ncl1_3
 10
496.760069
 20
498.772005
 30
20.023000
 70
   192
  0
VERTEX
  8
Mesh_ncl1_3
 10
496.822064
 20
498.921674
 30
20.023000
 70
   192
  0
VERTEX
  8
Mesh_ncl1_3
 10
496.760069
 20
498.772005
 30
20.023000
 70
   192
  0
VERTEX
  8
Mesh_ncl1_3
 10
496.822064
 20
498.759674
 30
20.023000
 70
   192
  0
VERTEX
  8
Mesh_ncl1_3
 10
496.822064
 20
498.921674
 30
20.023000
 70
   192
  0
VERTEX
  8
Mesh_ncl1_3
 10
496.822064
 20
498.759674
 30
20.023000
 70
   192
  0
VERTEX
  8
Mesh_ncl1_3
 10
496.884058
 20
498.772005
 30
20.023000
 70
   192
  0
VERTEX
  8
Mesh_ncl1_3
 10
494.217064
 20
539.741674
 30
23.421000
 70
   192
  0
VERTEX
  8
Mesh_ncl1_3
 10
494.279058
 20
539.592005
 30
23.421000
 70
   192
  0
VERTEX
  8
Mesh_ncl1_3
 10
494.331615
 20
539.627122
 30
23.421000
 70
   192
  0
VERTEX
  8
Mesh_ncl1_3
 10
494.217064
 20
539.741674
 30
23.421000
 70
   192
  0
VERTEX
  8
Mesh_ncl1_3
 10
494.331615
 20
539.627122
 30
23.421000
 70
   192
  0
VERTEX
  8
Mesh_ncl1_3
 10
494.366732
 20
539.679679
 30
23.421000
 70
   192
  0
VERTEX
  8
Mesh_ncl1_3
 10
494.217064
 20
539.741674
 30
23.421000
 70
   192
  0
VERTEX
  8
Mesh_ncl1_3
 10
494.366732
 20
539.679679
 30
23.421000
 70
   192
  0
VERTEX
  8
Mesh_ncl1_3
 10
494.379064
 20
539.741674
 30
23.421000
 70
   192
  0
VERTEX
  8
Mesh_ncl1_3
 10
494.217064
 20
539.741674
 30
23.421000
 70
   192
  0
VERTEX
  8
Mesh_ncl1_3
 10
494.379064
 20
539.741674
 30
23.421000
 70
   192
  0
VERTEX
  8
Mesh_ncl1_3
 10
494.366732
 20
539.803668
 30
23.421000
 70
   192
  0
VERTEX
  8
Mesh_ncl1_3
 10
494.217064
 20
539.741674
 30
23.421000
 70
   192
  0
VERTEX
  8
Mesh_ncl1_3
 10
494.366732
 20
539.803668
 30
23.421000
 70
   192
  0
VERTEX
  8
Mesh_ncl1_3
 10
494.331615
 20
539.856225
 30
23.421000
 70
   192
  0
VERTEX
  8
Mesh_ncl1_3
 10
494.217064
 20
539.741674
 30
23.421000
 70
   192
  0
VERTEX
  8
Mesh_ncl1_3
 10
494.331615
 20
539.856225
 30
23.421000
 70
   192
  0
VERTEX
  8
Mesh_ncl1_3
 10
494.279058
 20
539.891342
 30
23.421000
 70
   192
  0
VERTEX
  8
Mesh_ncl1_3
 10
494.217064
 20
539.741674
 30
23.421000
 70
   192
  0
VERTEX
  8
Mesh_ncl1_3
 10
494.279058
 20
539.891342
 30
23.421000
 70
   192
  0
VERTEX
  8
Mesh_ncl1_3
 10
494.217064
 20
539.903674
 30
23.421000
 70
   192
  0
VERTEX
  8
Mesh_ncl1_3
 10
494.217064
 20
539.741674
 30
23.421000
 70
   192
  0
VERTEX
  8
Mesh_ncl1_3
 10
494.217064
 20
539.903674
 30
23.421000
 70
   192
  0
VERTEX
  8
Mesh_ncl1_3
 10
494.155069
 20
539.891342
 30
23.421000
 70
   192
  0
VERTEX
  8
Mesh_ncl1_3
 10
494.217064
 20
539.741674
 30
23.421000
 70
   192
  0
VERTEX
  8
Mesh_ncl1_3
 10
494.155069
 20
539.891342
 30
23.421000
 70
   192
  0
VERTEX
  8
Mesh_ncl1_3
 10
494.102512
 20
539.856225
 30
23.421000
 70
   192
  0
VERTEX
  8
Mesh_ncl1_3
 10
494.217064
 20
539.741674
 30
23.421000
 70
   192
  0
VERTEX
  8
Mesh_ncl1_3
 10
494.102512
 20
539.856225
 30
23.421000
 70
   192
  0
VERTEX
  8
Mesh_ncl1_3
 10
494.067395
 20
539.803668
 30
23.421000
 70
   192
  0
VERTEX
  8
Mesh_ncl1_3
 10
494.217064
 20
539.741674
 30
23.421000
 70
   192
  0
VERTEX
  8
Mesh_ncl1_3
 10
494.067395
 20
539.803668
 30
23.421000
 70
   192
  0
VERTEX
  8
Mesh_ncl1_3
 10
494.055064
 20
539.741674
 30
23.421000
 70
   192
  0
VERTEX
  8
Mesh_ncl1_3
 10
494.217064
 20
539.741674
 30
23.421000
 70
   192
  0
VERTEX
  8
Mesh_ncl1_3
 10
494.055064
 20
539.741674
 30
23.421000
 70
   192
  0
VERTEX
  8
Mesh_ncl1_3
 10
494.067395
 20
539.679679
 30
23.421000
 70
   192
  0
VERTEX
  8
Mesh_ncl1_3
 10
494.217064
 20
539.741674
 30
23.421000
 70
   192
  0
VERTEX
  8
Mesh_ncl1_3
 10
494.067395
 20
539.679679
 30
23.421000
 70
   192
  0
VERTEX
  8
Mesh_ncl1_3
 10
494.102512
 20
539.627122
 30
23.421000
 70
   192
  0
VERTEX
  8
Mesh_ncl1_3
 10
494.217064
 20
539.741674
 30
23.421000
 70
   192
  0
VERTEX
  8
Mesh_ncl1_3
 10
494.102512
 20
539.627122
 30
23.421000
 70
   192
  0
VERTEX
  8
Mesh_ncl1_3
 10
494.155069
 20
539.592005
 30
23.421000
 70
   192
  0
VERTEX
  8
Mesh_ncl1_3
 10
494.217064
 20
539.741674
 30
23.421000
 70
   192
  0
VERTEX
  8
Mesh_ncl1_3
 10
494.155069
 20
539.592005
 30
23.421000
 70
   192
  0
VERTEX
  8
Mesh_ncl1_3
 10
494.217064
 20
539.579674
 30
23.421000
 70
   192
  0
VERTEX
  8
Mesh_ncl1_3
 10
494.217064
 20
539.741674
 30
23.421000
 70
   192
  0
VERTEX
  8
Mesh_ncl1_3
 10
494.217064
 20
539.579674
 30
23.421000
 70
   192
  0
VERTEX
  8
Mesh_ncl1_3
 10
494.279058
 20
539.592005
 30
23.421000
 70
   192
  0
VERTEX
  8
Mesh_ncl1_3
 10
510.428064
 20
540.791674
 30
23.579000
 70
   192
  0
VERTEX
  8
Mesh_ncl1_3
 10
510.490058
 20
540.642005
 30
23.579000
 70
   192
  0
VERTEX
  8
Mesh_ncl1_3
 10
510.542615
 20
540.677122
 30
23.579000
 70
   192
  0
VERTEX
  8
Mesh_ncl1_3
 10
510.428064
 20
540.791674
 30
23.579000
 70
   192
  0
VERTEX
  8
Mesh_ncl1_3
 10
510.542615
 20
540.677122
 30
23.579000
 70
   192
  0
VERTEX
  8
Mesh_ncl1_3
 10
510.577732
 20
540.729679
 30
23.579000
 70
   192
  0
VERTEX
  8
Mesh_ncl1_3
 10
510.428064
 20
540.791674
 30
23.579000
 70
   192
  0
VERTEX
  8
Mesh_ncl1_3
 10
510.577732
 20
540.729679
 30
23.579000
 70
   192
  0
VERTEX
  8
Mesh_ncl1_3
 10
510.590064
 20
540.791674
 30
23.579000
 70
   192
  0
VERTEX
  8
Mesh_ncl1_3
 10
510.428064
 20
540.791674
 30
23.579000
 70
   192
  0
VERTEX
  8
Mesh_ncl1_3
 10
510.590064
 20
540.791674
 30
23.579000
 70
   192
  0
VERTEX
  8
Mesh_ncl1_3
 10
510.577732
 20
540.853668
 30
23.579000
 70
   192
  0
VERTEX
  8
Mesh_ncl1_3
 10
510.428064
 20
540.791674
 30
23.579000
 70
   192
  0
VERTEX
  8
Mesh_ncl1_3
 10
510.577732
 20
540.853668
 30
23.579000
 70
   192
  0
VERTEX
  8
Mesh_ncl1_3
 10
510.542615
 20
540.906225
 30
23.579000
 70
   192
  0
VERTEX
  8
Mesh_ncl1_3
 10
510.428064
 20
540.791674
 30
23.579000
 70
   192
  0
VERTEX
  8
Mesh_ncl1_3
 10
510.542615
 20
540.906225
 30
23.579000
 70
   192
  0
VERTEX
  8
Mesh_ncl1_3
 10
510.490058
 20
540.941342
 30
23.579000
 70
   192
  0
VERTEX
  8
Mesh_ncl1_3
 10
510.428064
 20
540.791674
 30
23.579000
 70
   192
  0
VERTEX
  8
Mesh_ncl1_3
 10
510.490058
 20
540.941342
 30
23.579000
 70
   192
  0
VERTEX
  8
Mesh_ncl1_3
 10
510.428064
 20
540.953674
 30
23.579000
 70
   192
  0
VERTEX
  8
Mesh_ncl1_3
 10
510.428064
 20
540.791674
 30
23.579000
 70
   192
  0
VERTEX
  8
Mesh_ncl1_3
 10
510.428064
 20
540.953674
 30
23.579000
 70
   192
  0
VERTEX
  8
Mesh_ncl1_3
 10
510.366069
 20
540.941342
 30
23.579000
 70
   192
  0
VERTEX
  8
Mesh_ncl1_3
 10
510.428064
 20
540.791674
 30
23.579000
 70
   192
  0
VERTEX
  8
Mesh_ncl1_3
 10
510.366069
 20
540.941342
 30
23.579000
 70
   192
  0
VERTEX
  8
Mesh_ncl1_3
 10
510.313512
 20
540.906225
 30
23.579000
 70
   192
  0
VERTEX
  8
Mesh_ncl1_3
 10
510.428064
 20
540.791674
 30
23.579000
 70
   192
  0
VERTEX
  8
Mesh_ncl1_3
 10
510.313512
 20
540.906225
 30
23.579000
 70
   192
  0
VERTEX
  8
Mesh_ncl1_3
 10
510.278395
 20
540.853668
 30
23.579000
 70
   192
  0
VERTEX
  8
Mesh_ncl1_3
 10
510.428064
 20
540.791674
 30
23.579000
 70
   192
  0
VERTEX
  8
Mesh_ncl1_3
 10
510.278395
 20
540.853668
 30
23.579000
 70
   192
  0
VERTEX
  8
Mesh_ncl1_3
 10
510.266064
 20
540.791674
 30
23.579000
 70
   192
  0
VERTEX
  8
Mesh_ncl1_3
 10
510.428064
 20
540.791674
 30
23.579000
 70
   192
  0
VERTEX
  8
Mesh_ncl1_3
 10
510.266064
 20
540.791674
 30
23.579000
 70
   192
  0
VERTEX
  8
Mesh_ncl1_3
 10
510.278395
 20
540.729679
 30
23.579000
 70
   192
  0
VERTEX
  8
Mesh_ncl1_3
 10
510.428064
 20
540.791674
 30
23.579000
 70
   192
  0
VERTEX
  8
Mesh_ncl1_3
 10
510.278395
 20
540.729679
 30
23.579000
 70
   192
  0
VERTEX
  8
Mesh_ncl1_3
 10
510.313512
 20
540.677122
 30
23.579000
 70
   192
  0
VERTEX
  8
Mesh_ncl1_3
 10
510.428064
 20
540.791674
 30
23.579000
 70
   192
  0
VERTEX
  8
Mesh_ncl1_3
 10
510.313512
 20
540.677122
 30
23.579000
 70
   192
  0
VERTEX
  8
Mesh_ncl1_3
 10
510.366069
 20
540.642005
 30
23.579000
 70
   192
  0
VERTEX
  8
Mesh_ncl1_3
 10
510.428064
 20
540.791674
 30
23.579000
 70
   192
  0
VERTEX
  8
Mesh_ncl1_3
 10
510.366069
 20
540.642005
 30
23.579000
 70
   192
  0
VERTEX
  8
Mesh_ncl1_3
 10
510.428064
 20
540.629674
 30
23.579000
 70
   192
  0
VERTEX
  8
Mesh_ncl1_3
 10
510.428064
 20
540.791674
 30
23.579000
 70
   192
  0
VERTEX
  8
Mesh_ncl1_3
 10
510.428064
 20
540.629674
 30
23.579000
 70
   192
  0
VERTEX
  8
Mesh_ncl1_3
 10
510.490058
 20
540.642005
 30
23.579000
 70
   192
  0
VERTEX
  8
Mesh_ncl1_3
 62
   30
 10
0.0
 20
0.0
 30
0.0
 70
   128
 71
   3
 72
   2
 73
   1
  0
VERTEX
  8
Mesh_ncl1_3
 62
   30
 10
0.0
 20
0.0
 30
0.0
 70
   128
 71
   6
 72
   5
 73
   4
  0
VERTEX
  8
Mesh_ncl1_3
 62
   30
 10
0.0
 20
0.0
 30
0.0
 70
   128
 71
   9
 72
   8
 73
   7
  0
VERTEX
  8
Mesh_ncl1_3
 62
   30
 10
0.0
 20
0.0
 30
0.0
 70
   128
 71
   12
 72
   11
 73
   10
  0
VERTEX
  8
Mesh_ncl1_3
 62
   30
 10
0.0
 20
0.0
 30
0.0
 70
   128
 71
   15
 72
   14
 73
   13
  0
VERTEX
  8
Mesh_ncl1_3
 62
   30
 10
0.0
 20
0.0
 30
0.0
 70
   128
 71
   18
 72
   17
 73
   16
  0
VERTEX
  8
Mesh_ncl1_3
 62
   30
 10
0.0
 20
0.0
 30
0.0
 70
   128
 71
   21
 72
   20
 73
   19
  0
VERTEX
  8
Mesh_ncl1_3
 62
   30
 10
0.0
 20
0.0
 30
0.0
 70
   128
 71
   24
 72
   23
 73
   22
  0
VERTEX
  8
Mesh_ncl1_3
 62
   30
 10
0.0
 20
0.0
 30
0.0
 70
   128
 71
   27
 72
   26
 73
   25
  0
VERTEX
  8
Mesh_ncl1_3
 62
   30
 10
0.0
 20
0.0
 30
0.0
 70
   128
 71
   30
 72
   29
 73
   28
  0
VERTEX
  8
Mesh_ncl1_3
 62
   30
 10
0.0
 20
0.0
 30
0.0
 70
   128
 71
   33
 72
   32
 73
   31
  0
VERTEX
  8
Mesh_ncl1_3
 62
   30
 10
0.0
 20
0.0
 30
0.0
 70
   128
 71
   36
 72
   35
 73
   34
  0
VERTEX
  8
Mesh_ncl1_3
 62
   30
 10
0.0
 20
0.0
 30
0.0
 70
   128
 71
   39
 72
   38
 73
   37
  0
VERTEX
  8
Mesh_ncl1_3
 62
   30
 10
0.0
 20
0.0
 30
0.0
 70
   128
 71
   42
 72
   41
 73
   40
  0
VERTEX
  8
Mesh_ncl1_3
 62
   30
 10
0.0
 20
0.0
 30
0.0
 70
   128
 71
   45
 72
   44
 73
   43
  0
VERTEX
  8
Mesh_ncl1_3
 62
   30
 10
0.0
 20
0.0
 30
0.0
 70
   128
 71
   48
 72
   47
 73
   46
  0
VERTEX
  8
Mesh_ncl1_3
 62
   30
 10
0.0
 20
0.0
 30
0.0
 70
   128
 71
   51
 72
   50
 73
   49
  0
VERTEX
  8
Mesh_ncl1_3
 62
   30
 10
0.0
 20
0.0
 30
0.0
 70
   128
 71
   54
 72
   53
 73
   52
  0
VERTEX
  8
Mesh_ncl1_3
 62
   30
 10
0.0
 20
0.0
 30
0.0
 70
   128
 71
   57
 72
   56
 73
   55
  0
VERTEX
  8
Mesh_ncl1_3
 62
   30
 10
0.0
 20
0.0
 30
0.0
 70
   128
 71
   60
 72
   59
 73
   58
  0
VERTEX
  8
Mesh_ncl1_3
 62
   30
 10
0.0
 20
0.0
 30
0.0
 70
   128
 71
   63
 72
   62
 73
   61
  0
VERTEX
  8
Mesh_ncl1_3
 62
   30
 10
0.0
 20
0.0
 30
0.0
 70
   128
 71
   66
 72
   65
 73
   64
  0
VERTEX
  8
Mesh_ncl1_3
 62
   30
 10
0.0
 20
0.0
 30
0.0
 70
   128
 71
   69
 72
   68
 73
   67
  0
VERTEX
  8
Mesh_ncl1_3
 62
   30
 10
0.0
 20
0.0
 30
0.0
 70
   128
 71
   72
 72
   71
 73
   70
  0
VERTEX
  8
Mesh_ncl1_3
 62
   30
 10
0.0
 20
0.0
 30
0.0
 70
   128
 71
   75
 72
   74
 73
   73
  0
VERTEX
  8
Mesh_ncl1_3
 62
   30
 10
0.0
 20
0.0
 30
0.0
 70
   128
 71
   78
 72
   77
 73
   76
  0
VERTEX
  8
Mesh_ncl1_3
 62
   30
 10
0.0
 20
0.0
 30
0.0
 70
   128
 71
   81
 72
   80
 73
   79
  0
VERTEX
  8
Mesh_ncl1_3
 62
   30
 10
0.0
 20
0.0
 30
0.0
 70
   128
 71
   84
 72
   83
 73
   82
  0
VERTEX
  8
Mesh_ncl1_3
 62
   30
 10
0.0
 20
0.0
 30
0.0
 70
   128
 71
   87
 72
   86
 73
   85
  0
VERTEX
  8
Mesh_ncl1_3
 62
   30
 10
0.0
 20
0.0
 30
0.0
 70
   128
 71
   90
 72
   89
 73
   88
  0
VERTEX
  8
Mesh_ncl1_3
 62
   30
 10
0.0
 20
0.0
 30
0.0
 70
   128
 71
   93
 72
   92
 73
   91
  0
VERTEX
  8
Mesh_ncl1_3
 62
   30
 10
0.0
 20
0.0
 30
0.0
 70
   128
 71
   96
 72
   95
 73
   94
  0
VERTEX
  8
Mesh_ncl1_3
 62
   30
 10
0.0
 20
0.0
 30
0.0
 70
   128
 71
   99
 72
   98
 73
   97
  0
VERTEX
  8
Mesh_ncl1_3
 62
   30
 10
0.0
 20
0.0
 30
0.0
 70
   128
 71
   102
 72
   101
 73
   100
  0
VERTEX
  8
Mesh_ncl1_3
 62
   30
 10
0.0
 20
0.0
 30
0.0
 70
   128
 71
   105
 72
   104
 73
   103
  0
VERTEX
  8
Mesh_ncl1_3
 62
   30
 10
0.0
 20
0.0
 30
0.0
 70
   128
 71
   108
 72
   107
 73
   106
  0
VERTEX
  8
Mesh_ncl1_3
 62
   30
 10
0.0
 20
0.0
 30
0.0
 70
   128
 71
   111
 72
   110
 73
   109
  0
VERTEX
  8
Mesh_ncl1_3
 62
   30
 10
0.0
 20
0.0
 30
0.0
 70
   128
 71
   114
 72
   113
 73
   112
  0
VERTEX
  8
Mesh_ncl1_3
 62
   30
 10
0.0
 20
0.0
 30
0.0
 70
   128
 71
   117
 72
   116
 73
   115
  0
VERTEX
  8
Mesh_ncl1_3
 62
   30
 10
0.0
 20
0.0
 30
0.0
 70
   128
 71
   120
 72
   119
 73
   118
  0
VERTEX
  8
Mesh_ncl1_3
 62
   30
 10
0.0
 20
0.0
 30
0.0
 70
   128
 71
   123
 72
   122
 73
   121
  0
VERTEX
  8
Mesh_ncl1_3
 62
   30
 10
0.0
 20
0.0
 30
0.0
 70
   128
 71
   126
 72
   125
 73
   124
  0
VERTEX
  8
Mesh_ncl1_3
 62
   30
 10
0.0
 20
0.0
 30
0.0
 70
   128
 71
   129
 72
   128
 73
   127
  0
VERTEX
  8
Mesh_ncl1_3
 62
   30
 10
0.0
 20
0.0
 30
0.0
 70
   128
 71
   132
 72
   131
 73
   130
  0
VERTEX
  8
Mesh_ncl1_3
 62
   30
 10
0.0
 20
0.0
 30
0.0
 70
   128
 71
   135
 72
   134
 73
   133
  0
VERTEX
  8
Mesh_ncl1_3
 62
   30
 10
0.0
 20
0.0
 30
0.0
 70
   128
 71
   138
 72
   137
 73
   136
  0
VERTEX
  8
Mesh_ncl1_3
 62
   30
 10
0.0
 20
0.0
 30
0.0
 70
   128
 71
   141
 72
   140
 73
   139
  0
VERTEX
  8
Mesh_ncl1_3
 62
   30
 10
0.0
 20
0.0
 30
0.0
 70
   128
 71
   144
 72
   143
 73
   142
  0
VERTEX
  8
Mesh_ncl1_3
 62
   30
 10
0.0
 20
0.0
 30
0.0
 70
   128
 71
   147
 72
   146
 73
   145
  0
VERTEX
  8
Mesh_ncl1_3
 62
   30
 10
0.0
 20
0.0
 30
0.0
 70
   128
 71
   150
 72
   149
 73
   148
  0
VERTEX
  8
Mesh_ncl1_3
 62
   30
 10
0.0
 20
0.0
 30
0.0
 70
   128
 71
   153
 72
   152
 73
   151
  0
VERTEX
  8
Mesh_ncl1_3
 62
   30
 10
0.0
 20
0.0
 30
0.0
 70
   128
 71
   156
 72
   155
 73
   154
  0
VERTEX
  8
Mesh_ncl1_3
 62
   30
 10
0.0
 20
0.0
 30
0.0
 70
   128
 71
   159
 72
   158
 73
   157
  0
VERTEX
  8
Mesh_ncl1_3
 62
   30
 10
0.0
 20
0.0
 30
0.0
 70
   128
 71
   162
 72
   161
 73
   160
  0
VERTEX
  8
Mesh_ncl1_3
 62
   30
 10
0.0
 20
0.0
 30
0.0
 70
   128
 71
   165
 72
   164
 73
   163
  0
VERTEX
  8
Mesh_ncl1_3
 62
   30
 10
0.0
 20
0.0
 30
0.0
 70
   128
 71
   168
 72
   167
 73
   166
  0
VERTEX
  8
Mesh_ncl1_3
 62
   30
 10
0.0
 20
0.0
 30
0.0
 70
   128
 71
   171
 72
   170
 73
   169
  0
VERTEX
  8
Mesh_ncl1_3
 62
   30
 10
0.0
 20
0.0
 30
0.0
 70
   128
 71
   174
 72
   173
 73
   172
  0
VERTEX
  8
Mesh_ncl1_3
 62
   30
 10
0.0
 20
0.0
 30
0.0
 70
   128
 71
   177
 72
   176
 73
   175
  0
VERTEX
  8
Mesh_ncl1_3
 62
   30
 10
0.0
 20
0.0
 30
0.0
 70
   128
 71
   180
 72
   179
 73
   178
  0
VERTEX
  8
Mesh_ncl1_3
 62
   30
 10
0.0
 20
0.0
 30
0.0
 70
   128
 71
   183
 72
   182
 73
   181
  0
VERTEX
  8
Mesh_ncl1_3
 62
   30
 10
0.0
 20
0.0
 30
0.0
 70
   128
 71
   186
 72
   185
 73
   184
  0
VERTEX
  8
Mesh_ncl1_3
 62
   30
 10
0.0
 20
0.0
 30
0.0
 70
   128
 71
   189
 72
   188
 73
   187
  0
VERTEX
  8
Mesh_ncl1_3
 62
   30
 10
0.0
 20
0.0
 30
0.0
 70
   128
 71
   192
 72
   191
 73
   190
  0
VERTEX
  8
Mesh_ncl1_3
 62
   30
 10
0.0
 20
0.0
 30
0.0
 70
   128
 71
   195
 72
   194
 73
   193
  0
VERTEX
  8
Mesh_ncl1_3
 62
   30
 10
0.0
 20
0.0
 30
0.0
 70
   128
 71
   198
 72
   197
 73
   196
  0
VERTEX
  8
Mesh_ncl1_3
 62
   30
 10
0.0
 20
0.0
 30
0.0
 70
   128
 71
   201
 72
   200
 73
   199
  0
VERTEX
  8
Mesh_ncl1_3
 62
   30
 10
0.0
 20
0.0
 30
0.0
 70
   128
 71
   204
 72
   203
 73
   202
  0
VERTEX
  8
Mesh_ncl1_3
 62
   30
 10
0.0
 20
0.0
 30
0.0
 70
   128
 71
   207
 72
   206
 73
   205
  0
VERTEX
  8
Mesh_ncl1_3
 62
   30
 10
0.0
 20
0.0
 30
0.0
 70
   128
 71
   210
 72
   209
 73
   208
  0
VERTEX
  8
Mesh_ncl1_3
 62
   30
 10
0.0
 20
0.0
 30
0.0
 70
   128
 71
   213
 72
   212
 73
   211
  0
VERTEX
  8
Mesh_ncl1_3
 62
   30
 10
0.0
 20
0.0
 30
0.0
 70
   128
 71
   216
 72
   215
 73
   214
  0
VERTEX
  8
Mesh_ncl1_3
 62
   30
 10
0.0
 20
0.0
 30
0.0
 70
   128
 71
   219
 72
   218
 73
   217
  0
VERTEX
  8
Mesh_ncl1_3
 62
   30
 10
0.0
 20
0.0
 30
0.0
 70
   128
 71
   222
 72
   221
 73
   220
  0
VERTEX
  8
Mesh_ncl1_3
 62
   30
 10
0.0
 20
0.0
 30
0.0
 70
   128
 71
   225
 72
   224
 73
   223
  0
VERTEX
  8
Mesh_ncl1_3
 62
   30
 10
0.0
 20
0.0
 30
0.0
 70
   128
 71
   228
 72
   227
 73
   226
  0
VERTEX
  8
Mesh_ncl1_3
 62
   30
 10
0.0
 20
0.0
 30
0.0
 70
   128
 71
   231
 72
   230
 73
   229
  0
VERTEX
  8
Mesh_ncl1_3
 62
   30
 10
0.0
 20
0.0
 30
0.0
 70
   128
 71
   234
 72
   233
 73
   232
  0
VERTEX
  8
Mesh_ncl1_3
 62
   30
 10
0.0
 20
0.0
 30
0.0
 70
   128
 71
   237
 72
   236
 73
   235
  0
VERTEX
  8
Mesh_ncl1_3
 62
   30
 10
0.0
 20
0.0
 30
0.0
 70
   128
 71
   240
 72
   239
 73
   238
  0
VERTEX
  8
Mesh_ncl1_3
 62
   30
 10
0.0
 20
0.0
 30
0.0
 70
   128
 71
   243
 72
   242
 73
   241
  0
VERTEX
  8
Mesh_ncl1_3
 62
   30
 10
0.0
 20
0.0
 30
0.0
 70
   128
 71
   246
 72
   245
 73
   244
  0
VERTEX
  8
Mesh_ncl1_3
 62
   30
 10
0.0
 20
0.0
 30
0.0
 70
   128
 71
   249
 72
   248
 73
   247
  0
VERTEX
  8
Mesh_ncl1_3
 62
   30
 10
0.0
 20
0.0
 30
0.0
 70
   128
 71
   252
 72
   251
 73
   250
  0
VERTEX
  8
Mesh_ncl1_3
 62
   30
 10
0.0
 20
0.0
 30
0.0
 70
   128
 71
   255
 72
   254
 73
   253
  0
VERTEX
  8
Mesh_ncl1_3
 62
   30
 10
0.0
 20
0.0
 30
0.0
 70
   128
 71
   258
 72
   257
 73
   256
  0
VERTEX
  8
Mesh_ncl1_3
 62
   30
 10
0.0
 20
0.0
 30
0.0
 70
   128
 71
   261
 72
   260
 73
   259
  0
VERTEX
  8
Mesh_ncl1_3
 62
   30
 10
0.0
 20
0.0
 30
0.0
 70
   128
 71
   264
 72
   263
 73
   262
  0
VERTEX
  8
Mesh_ncl1_3
 62
   30
 10
0.0
 20
0.0
 30
0.0
 70
   128
 71
   267
 72
   266
 73
   265
  0
VERTEX
  8
Mesh_ncl1_3
 62
   30
 10
0.0
 20
0.0
 30
0.0
 70
   128
 71
   270
 72
   269
 73
   268
  0
VERTEX
  8
Mesh_ncl1_3
 62
   30
 10
0.0
 20
0.0
 30
0.0
 70
   128
 71
   273
 72
   272
 73
   271
  0
VERTEX
  8
Mesh_ncl1_3
 62
   30
 10
0.0
 20
0.0
 30
0.0
 70
   128
 71
   276
 72
   275
 73
   274
  0
VERTEX
  8
Mesh_ncl1_3
 62
   30
 10
0.0
 20
0.0
 30
0.0
 70
   128
 71
   279
 72
   278
 73
   277
  0
VERTEX
  8
Mesh_ncl1_3
 62
   30
 10
0.0
 20
0.0
 30
0.0
 70
   128
 71
   282
 72
   281
 73
   280
  0
VERTEX
  8
Mesh_ncl1_3
 62
   30
 10
0.0
 20
0.0
 30
0.0
 70
   128
 71
   285
 72
   284
 73
   283
  0
VERTEX
  8
Mesh_ncl1_3
 62
   30
 10
0.0
 20
0.0
 30
0.0
 70
   128
 71
   288
 72
   287
 73
   286
  0
SEQEND
  0
POLYLINE
  8
Mesh_ncl1_4
 62
   7
 66
   1
 10
0.0
 20
0.0
 30
0.0
 70
   64
 71
   48
 72
   16
  0
VERTEX
  8
Mesh_ncl1_4
 10
497.151000
 20
494.598000
 30
20.003000
 70
   192
  0
VERTEX
  8
Mesh_ncl1_4
 10
497.298821
 20
494.536771
 30
20.003000
 70
   192
  0
VERTEX
  8
Mesh_ncl1_4
 10
497.311000
 20
494.598000
 30
20.003000
 70
   192
  0
VERTEX
  8
Mesh_ncl1_4
 10
497.151000
 20
494.598000
 30
20.003000
 70
   192
  0
VERTEX
  8
Mesh_ncl1_4
 10
497.311000
 20
494.598000
 30
20.003000
 70
   192
  0
VERTEX
  8
Mesh_ncl1_4
 10
497.298821
 20
494.659229
 30
20.003000
 70
   192
  0
VERTEX
  8
Mesh_ncl1_4
 10
497.151000
 20
494.598000
 30
20.003000
 70
   192
  0
VERTEX
  8
Mesh_ncl1_4
 10
497.298821
 20
494.659229
 30
20.003000
 70
   192
  0
VERTEX
  8
Mesh_ncl1_4
 10
497.264137
 20
494.711137
 30
20.003000
 70
   192
  0
VERTEX
  8
Mesh_ncl1_4
 10
497.151000
 20
494.598000
 30
20.003000
 70
   192
  0
VERTEX
  8
Mesh_ncl1_4
 10
497.264137
 20
494.711137
 30
20.003000
 70
   192
  0
VERTEX
  8
Mesh_ncl1_4
 10
497.212229
 20
494.745821
 30
20.003000
 70
   192
  0
VERTEX
  8
Mesh_ncl1_4
 10
497.151000
 20
494.598000
 30
20.003000
 70
   192
  0
VERTEX
  8
Mesh_ncl1_4
 10
497.212229
 20
494.745821
 30
20.003000
 70
   192
  0
VERTEX
  8
Mesh_ncl1_4
 10
497.151000
 20
494.758000
 30
20.003000
 70
   192
  0
VERTEX
  8
Mesh_ncl1_4
 10
497.151000
 20
494.598000
 30
20.003000
 70
   192
  0
VERTEX
  8
Mesh_ncl1_4
 10
497.151000
 20
494.758000
 30
20.003000
 70
   192
  0
VERTEX
  8
Mesh_ncl1_4
 10
497.089771
 20
494.745821
 30
20.003000
 70
   192
  0
VERTEX
  8
Mesh_ncl1_4
 10
497.151000
 20
494.598000
 30
20.003000
 70
   192
  0
VERTEX
  8
Mesh_ncl1_4
 10
497.089771
 20
494.745821
 30
20.003000
 70
   192
  0
VERTEX
  8
Mesh_ncl1_4
 10
497.037863
 20
494.711137
 30
20.003000
 70
   192
  0
VERTEX
  8
Mesh_ncl1_4
 10
497.151000
 20
494.598000
 30
20.003000
 70
   192
  0
VERTEX
  8
Mesh_ncl1_4
 10
497.037863
 20
494.711137
 30
20.003000
 70
   192
  0
VERTEX
  8
Mesh_ncl1_4
 10
497.003179
 20
494.659229
 30
20.003000
 70
   192
  0
VERTEX
  8
Mesh_ncl1_4
 10
497.151000
 20
494.598000
 30
20.003000
 70
   192
  0
VERTEX
  8
Mesh_ncl1_4
 10
497.003179
 20
494.659229
 30
20.003000
 70
   192
  0
VERTEX
  8
Mesh_ncl1_4
 10
496.991000
 20
494.598000
 30
20.003000
 70
   192
  0
VERTEX
  8
Mesh_ncl1_4
 10
497.151000
 20
494.598000
 30
20.003000
 70
   192
  0
VERTEX
  8
Mesh_ncl1_4
 10
496.991000
 20
494.598000
 30
20.003000
 70
   192
  0
VERTEX
  8
Mesh_ncl1_4
 10
497.003179
 20
494.536771
 30
20.003000
 70
   192
  0
VERTEX
  8
Mesh_ncl1_4
 10
497.151000
 20
494.598000
 30
20.003000
 70
   192
  0
VERTEX
  8
Mesh_ncl1_4
 10
497.003179
 20
494.536771
 30
20.003000
 70
   192
  0
VERTEX
  8
Mesh_ncl1_4
 10
497.037863
 20
494.484863
 30
20.003000
 70
   192
  0
VERTEX
  8
Mesh_ncl1_4
 10
497.151000
 20
494.598000
 30
20.003000
 70
   192
  0
VERTEX
  8
Mesh_ncl1_4
 10
497.037863
 20
494.484863
 30
20.003000
 70
   192
  0
VERTEX
  8
Mesh_ncl1_4
 10
497.089771
 20
494.450179
 30
20.003000
 70
   192
  0
VERTEX
  8
Mesh_ncl1_4
 10
497.151000
 20
494.598000
 30
20.003000
 70
   192
  0
VERTEX
  8
Mesh_ncl1_4
 10
497.089771
 20
494.450179
 30
20.003000
 70
   192
  0
VERTEX
  8
Mesh_ncl1_4
 10
497.151000
 20
494.438000
 30
20.003000
 70
   192
  0
VERTEX
  8
Mesh_ncl1_4
 10
497.151000
 20
494.598000
 30
20.003000
 70
   192
  0
VERTEX
  8
Mesh_ncl1_4
 10
497.151000
 20
494.438000
 30
20.003000
 70
   192
  0
VERTEX
  8
Mesh_ncl1_4
 10
497.212229
 20
494.450179
 30
20.003000
 70
   192
  0
VERTEX
  8
Mesh_ncl1_4
 10
497.151000
 20
494.598000
 30
20.003000
 70
   192
  0
VERTEX
  8
Mesh_ncl1_4
 10
497.212229
 20
494.450179
 30
20.003000
 70
   192
  0
VERTEX
  8
Mesh_ncl1_4
 10
497.264137
 20
494.484863
 30
20.003000
 70
   192
  0
VERTEX
  8
Mesh_ncl1_4
 10
497.151000
 20
494.598000
 30
20.003000
 70
   192
  0
VERTEX
  8
Mesh_ncl1_4
 10
497.264137
 20
494.484863
 30
20.003000
 70
   192
  0
VERTEX
  8
Mesh_ncl1_4
 10
497.298821
 20
494.536771
 30
20.003000
 70
   192
  0
VERTEX
  8
Mesh_ncl1_4
 62
   7
 10
0.0
 20
0.0
 30
0.0
 70
   128
 71
   3
 72
   2
 73
   1
  0
VERTEX
  8
Mesh_ncl1_4
 62
   7
 10
0.0
 20
0.0
 30
0.0
 70
   128
 71
   6
 72
   5
 73
   4
  0
VERTEX
  8
Mesh_ncl1_4
 62
   7
 10
0.0
 20
0.0
 30
0.0
 70
   128
 71
   9
 72
   8
 73
   7
  0
VERTEX
  8
Mesh_ncl1_4
 62
   7
 10
0.0
 20
0.0
 30
0.0
 70
   128
 71
   12
 72
   11
 73
   10
  0
VERTEX
  8
Mesh_ncl1_4
 62
   7
 10
0.0
 20
0.0
 30
0.0
 70
   128
 71
   15
 72
   14
 73
   13
  0
VERTEX
  8
Mesh_ncl1_4
 62
   7
 10
0.0
 20
0.0
 30
0.0
 70
   128
 71
   18
 72
   17
 73
   16
  0
VERTEX
  8
Mesh_ncl1_4
 62
   7
 10
0.0
 20
0.0
 30
0.0
 70
   128
 71
   21
 72
   20
 73
   19
  0
VERTEX
  8
Mesh_ncl1_4
 62
   7
 10
0.0
 20
0.0
 30
0.0
 70
   128
 71
   24
 72
   23
 73
   22
  0
VERTEX
  8
Mesh_ncl1_4
 62
   7
 10
0.0
 20
0.0
 30
0.0
 70
   128
 71
   27
 72
   26
 73
   25
  0
VERTEX
  8
Mesh_ncl1_4
 62
   7
 10
0.0
 20
0.0
 30
0.0
 70
   128
 71
   30
 72
   29
 73
   28
  0
VERTEX
  8
Mesh_ncl1_4
 62
   7
 10
0.0
 20
0.0
 30
0.0
 70
   128
 71
   33
 72
   32
 73
   31
  0
VERTEX
  8
Mesh_ncl1_4
 62
   7
 10
0.0
 20
0.0
 30
0.0
 70
   128
 71
   36
 72
   35
 73
   34
  0
VERTEX
  8
Mesh_ncl1_4
 62
   7
 10
0.0
 20
0.0
 30
0.0
 70
   128
 71
   39
 72
   38
 73
   37
  0
VERTEX
  8
Mesh_ncl1_4
 62
   7
 10
0.0
 20
0.0
 30
0.0
 70
   128
 71
   42
 72
   41
 73
   40
  0
VERTEX
  8
Mesh_ncl1_4
 62
   7
 10
0.0
 20
0.0
 30
0.0
 70
   128
 71
   45
 72
   44
 73
   43
  0
VERTEX
  8
Mesh_ncl1_4
 62
   7
 10
0.0
 20
0.0
 30
0.0
 70
   128
 71
   48
 72
   47
 73
   46
  0
SEQEND
  0
POLYLINE
  8
Mesh_ncl1_5
 62
   3
 66
   1
 10
0.0
 20
0.0
 30
0.0
 70
   64
 71
   48
 72
   16
  0
VERTEX
  8
Mesh_ncl1_5
 10
506.117055
 20
496.017441
 30
19.911000
 70
   192
  0
VERTEX
  8
Mesh_ncl1_5
 10
506.140016
 20
495.962009
 30
19.911000
 70
   192
  0
VERTEX
  8
Mesh_ncl1_5
 10
506.159481
 20
495.975015
 30
19.911000
 70
   192
  0
VERTEX
  8
Mesh_ncl1_5
 10
506.117055
 20
496.017441
 30
19.911000
 70
   192
  0
VERTEX
  8
Mesh_ncl1_5
 10
506.159481
 20
495.975015
 30
19.911000
 70
   192
  0
VERTEX
  8
Mesh_ncl1_5
 10
506.172488
 20
495.994480
 30
19.911000
 70
   192
  0
VERTEX
  8
Mesh_ncl1_5
 10
506.117055
 20
496.017441
 30
19.911000
 70
   192
  0
VERTEX
  8
Mesh_ncl1_5
 10
506.172488
 20
495.994480
 30
19.911000
 70
   192
  0
VERTEX
  8
Mesh_ncl1_5
 10
506.177055
 20
496.017441
 30
19.911000
 70
   192
  0
VERTEX
  8
Mesh_ncl1_5
 10
506.117055
 20
496.017441
 30
19.911000
 70
   192
  0
VERTEX
  8
Mesh_ncl1_5
 10
506.177055
 20
496.017441
 30
19.911000
 70
   192
  0
VERTEX
  8
Mesh_ncl1_5
 10
506.172488
 20
496.040402
 30
19.911000
 70
   192
  0
VERTEX
  8
Mesh_ncl1_5
 10
506.117055
 20
496.017441
 30
19.911000
 70
   192
  0
VERTEX
  8
Mesh_ncl1_5
 10
506.172488
 20
496.040402
 30
19.911000
 70
   192
  0
VERTEX
  8
Mesh_ncl1_5
 10
506.159481
 20
496.059868
 30
19.911000
 70
   192
  0
VERTEX
  8
Mesh_ncl1_5
 10
506.117055
 20
496.017441
 30
19.911000
 70
   192
  0
VERTEX
  8
Mesh_ncl1_5
 10
506.159481
 20
496.059868
 30
19.911000
 70
   192
  0
VERTEX
  8
Mesh_ncl1_5
 10
506.140016
 20
496.072874
 30
19.911000
 70
   192
  0
VERTEX
  8
Mesh_ncl1_5
 10
506.117055
 20
496.017441
 30
19.911000
 70
   192
  0
VERTEX
  8
Mesh_ncl1_5
 10
506.140016
 20
496.072874
 30
19.911000
 70
   192
  0
VERTEX
  8
Mesh_ncl1_5
 10
506.117055
 20
496.077441
 30
19.911000
 70
   192
  0
VERTEX
  8
Mesh_ncl1_5
 10
506.117055
 20
496.017441
 30
19.911000
 70
   192
  0
VERTEX
  8
Mesh_ncl1_5
 10
506.117055
 20
496.077441
 30
19.911000
 70
   192
  0
VERTEX
  8
Mesh_ncl1_5
 10
506.094094
 20
496.072874
 30
19.911000
 70
   192
  0
VERTEX
  8
Mesh_ncl1_5
 10
506.117055
 20
496.017441
 30
19.911000
 70
   192
  0
VERTEX
  8
Mesh_ncl1_5
 10
506.094094
 20
496.072874
 30
19.911000
 70
   192
  0
VERTEX
  8
Mesh_ncl1_5
 10
506.074628
 20
496.059868
 30
19.911000
 70
   192
  0
VERTEX
  8
Mesh_ncl1_5
 10
506.117055
 20
496.017441
 30
19.911000
 70
   192
  0
VERTEX
  8
Mesh_ncl1_5
 10
506.074628
 20
496.059868
 30
19.911000
 70
   192
  0
VERTEX
  8
Mesh_ncl1_5
 10
506.061622
 20
496.040402
 30
19.911000
 70
   192
  0
VERTEX
  8
Mesh_ncl1_5
 10
506.117055
 20
496.017441
 30
19.911000
 70
   192
  0
VERTEX
  8
Mesh_ncl1_5
 10
506.061622
 20
496.040402
 30
19.911000
 70
   192
  0
VERTEX
  8
Mesh_ncl1_5
 10
506.057055
 20
496.017441
 30
19.911000
 70
   192
  0
VERTEX
  8
Mesh_ncl1_5
 10
506.117055
 20
496.017441
 30
19.911000
 70
   192
  0
VERTEX
  8
Mesh_ncl1_5
 10
506.057055
 20
496.017441
 30
19.911000
 70
   192
  0
VERTEX
  8
Mesh_ncl1_5
 10
506.061622
 20
495.994480
 30
19.911000
 70
   192
  0
VERTEX
  8
Mesh_ncl1_5
 10
506.117055
 20
496.017441
 30
19.911000
 70
   192
  0
VERTEX
  8
Mesh_ncl1_5
 10
506.061622
 20
495.994480
 30
19.911000
 70
   192
  0
VERTEX
  8
Mesh_ncl1_5
 10
506.074628
 20
495.975015
 30
19.911000
 70
   192
  0
VERTEX
  8
Mesh_ncl1_5
 10
506.117055
 20
496.017441
 30
19.911000
 70
   192
  0
VERTEX
  8
Mesh_ncl1_5
 10
506.074628
 20
495.975015
 30
19.911000
 70
   192
  0
VERTEX
  8
Mesh_ncl1_5
 10
506.094094
 20
495.962009
 30
19.911000
 70
   192
  0
VERTEX
  8
Mesh_ncl1_5
 10
506.117055
 20
496.017441
 30
19.911000
 70
   192
  0
VERTEX
  8
Mesh_ncl1_5
 10
506.094094
 20
495.962009
 30
19.911000
 70
   192
  0
VERTEX
  8
Mesh_ncl1_5
 10
506.117055
 20
495.957441
 30
19.911000
 70
   192
  0
VERTEX
  8
Mesh_ncl1_5
 10
506.117055
 20
496.017441
 30
19.911000
 70
   192
  0
VERTEX
  8
Mesh_ncl1_5
 10
506.117055
 20
495.957441
 30
19.911000
 70
   192
  0
VERTEX
  8
Mesh_ncl1_5
 10
506.140016
 20
495.962009
 30
19.911000
 70
   192
  0
VERTEX
  8
Mesh_ncl1_5
 62
   3
 10
0.0
 20
0.0
 30
0.0
 70
   128
 71
   3
 72
   2
 73
   1
  0
VERTEX
  8
Mesh_ncl1_5
 62
   3
 10
0.0
 20
0.0
 30
0.0
 70
   128
 71
   6
 72
   5
 73
   4
  0
VERTEX
  8
Mesh_ncl1_5
 62
   3
 10
0.0
 20
0.0
 30
0.0
 70
   128
 71
   9
 72
   8
 73
   7
  0
VERTEX
  8
Mesh_ncl1_5
 62
   3
 10
0.0
 20
0.0
 30
0.0
 70
   128
 71
   12
 72
   11
 73
   10
  0
VERTEX
  8
Mesh_ncl1_5
 62
   3
 10
0.0
 20
0.0
 30
0.0
 70
   128
 71
   15
 72
   14
 73
   13
  0
VERTEX
  8
Mesh_ncl1_5
 62
   3
 10
0.0
 20
0.0
 30
0.0
 70
   128
 71
   18
 72
   17
 73
   16
  0
VERTEX
  8
Mesh_ncl1_5
 62
   3
 10
0.0
 20
0.0
 30
0.0
 70
   128
 71
   21
 72
   20
 73
   19
  0
VERTEX
  8
Mesh_ncl1_5
 62
   3
 10
0.0
 20
0.0
 30
0.0
 70
   128
 71
   24
 72
   23
 73
   22
  0
VERTEX
  8
Mesh_ncl1_5
 62
   3
 10
0.0
 20
0.0
 30
0.0
 70
   128
 71
   27
 72
   26
 73
   25
  0
VERTEX
  8
Mesh_ncl1_5
 62
   3
 10
0.0
 20
0.0
 30
0.0
 70
   128
 71
   30
 72
   29
 73
   28
  0
VERTEX
  8
Mesh_ncl1_5
 62
   3
 10
0.0
 20
0.0
 30
0.0
 70
   128
 71
   33
 72
   32
 73
   31
  0
VERTEX
  8
Mesh_ncl1_5
 62
   3
 10
0.0
 20
0.0
 30
0.0
 70
   128
 71
   36
 72
   35
 73
   34
  0
VERTEX
  8
Mesh_ncl1_5
 62
   3
 10
0.0
 20
0.0
 30
0.0
 70
   128
 71
   39
 72
   38
 73
   37
  0
VERTEX
  8
Mesh_ncl1_5
 62
   3
 10
0.0
 20
0.0
 30
0.0
 70
   128
 71
   42
 72
   41
 73
   40
  0
VERTEX
  8
Mesh_ncl1_5
 62
   3
 10
0.0
 20
0.0
 30
0.0
 70
   128
 71
   45
 72
   44
 73
   43
  0
VERTEX
  8
Mesh_ncl1_5
 62
   3
 10
0.0
 20
0.0
 30
0.0
 70
   128
 71
   48
 72
   47
 73
   46
  0
SEQEND
  0
POLYLINE
  8
Mesh_ncl1_6
 62
   2
 66
   1
 10
0.0
 20
0.0
 30
0.0
 70
   64
 71
   60
 72
   20
  0
VERTEX
  8
Mesh_ncl1_6
 10
513.392131
 20
496.655091
 30
19.874000
 70
   192
  0
VERTEX
  8
Mesh_ncl1_6
 10
513.471347
 20
496.846334
 30
19.874000
 70
   192
  0
VERTEX
  8
Mesh_ncl1_6
 10
513.392131
 20
496.862091
 30
19.874000
 70
   192
  0
VERTEX
  8
Mesh_ncl1_6
 10
513.392131
 20
496.655091
 30
19.874000
 70
   192
  0
VERTEX
  8
Mesh_ncl1_6
 10
513.392131
 20
496.862091
 30
19.874000
 70
   192
  0
VERTEX
  8
Mesh_ncl1_6
 10
513.312916
 20
496.846334
 30
19.874000
 70
   192
  0
VERTEX
  8
Mesh_ncl1_6
 10
513.392131
 20
496.655091
 30
19.874000
 70
   192
  0
VERTEX
  8
Mesh_ncl1_6
 10
513.312916
 20
496.846334
 30
19.874000
 70
   192
  0
VERTEX
  8
Mesh_ncl1_6
 10
513.245760
 20
496.801462
 30
19.874000
 70
   192
  0
VERTEX
  8
Mesh_ncl1_6
 10
513.392131
 20
496.655091
 30
19.874000
 70
   192
  0
VERTEX
  8
Mesh_ncl1_6
 10
513.245760
 20
496.801462
 30
19.874000
 70
   192
  0
VERTEX
  8
Mesh_ncl1_6
 10
513.200888
 20
496.734306
 30
19.874000
 70
   192
  0
VERTEX
  8
Mesh_ncl1_6
 10
513.392131
 20
496.655091
 30
19.874000
 70
   192
  0
VERTEX
  8
Mesh_ncl1_6
 10
513.200888
 20
496.734306
 30
19.874000
 70
   192
  0
VERTEX
  8
Mesh_ncl1_6
 10
513.185131
 20
496.655091
 30
19.874000
 70
   192
  0
VERTEX
  8
Mesh_ncl1_6
 10
513.392131
 20
496.655091
 30
19.874000
 70
   192
  0
VERTEX
  8
Mesh_ncl1_6
 10
513.185131
 20
496.655091
 30
19.874000
 70
   192
  0
VERTEX
  8
Mesh_ncl1_6
 10
513.200888
 20
496.575875
 30
19.874000
 70
   192
  0
VERTEX
  8
Mesh_ncl1_6
 10
513.392131
 20
496.655091
 30
19.874000
 70
   192
  0
VERTEX
  8
Mesh_ncl1_6
 10
513.200888
 20
496.575875
 30
19.874000
 70
   192
  0
VERTEX
  8
Mesh_ncl1_6
 10
513.245760
 20
496.508720
 30
19.874000
 70
   192
  0
VERTEX
  8
Mesh_ncl1_6
 10
513.392131
 20
496.655091
 30
19.874000
 70
   192
  0
VERTEX
  8
Mesh_ncl1_6
 10
513.245760
 20
496.508720
 30
19.874000
 70
   192
  0
VERTEX
  8
Mesh_ncl1_6
 10
513.312916
 20
496.463848
 30
19.874000
 70
   192
  0
VERTEX
  8
Mesh_ncl1_6
 10
513.392131
 20
496.655091
 30
19.874000
 70
   192
  0
VERTEX
  8
Mesh_ncl1_6
 10
513.312916
 20
496.463848
 30
19.874000
 70
   192
  0
VERTEX
  8
Mesh_ncl1_6
 10
513.392131
 20
496.448091
 30
19.874000
 70
   192
  0
VERTEX
  8
Mesh_ncl1_6
 10
513.392131
 20
496.655091
 30
19.874000
 70
   192
  0
VERTEX
  8
Mesh_ncl1_6
 10
513.392131
 20
496.448091
 30
19.874000
 70
   192
  0
VERTEX
  8
Mesh_ncl1_6
 10
513.471347
 20
496.463848
 30
19.874000
 70
   192
  0
VERTEX
  8
Mesh_ncl1_6
 10
513.392131
 20
496.655091
 30
19.874000
 70
   192
  0
VERTEX
  8
Mesh_ncl1_6
 10
513.471347
 20
496.463848
 30
19.874000
 70
   192
  0
VERTEX
  8
Mesh_ncl1_6
 10
513.538502
 20
496.508720
 30
19.874000
 70
   192
  0
VERTEX
  8
Mesh_ncl1_6
 10
513.392131
 20
496.655091
 30
19.874000
 70
   192
  0
VERTEX
  8
Mesh_ncl1_6
 10
513.538502
 20
496.508720
 30
19.874000
 70
   192
  0
VERTEX
  8
Mesh_ncl1_6
 10
513.583374
 20
496.575875
 30
19.874000
 70
   192
  0
VERTEX
  8
Mesh_ncl1_6
 10
513.392131
 20
496.655091
 30
19.874000
 70
   192
  0
VERTEX
  8
Mesh_ncl1_6
 10
513.583374
 20
496.575875
 30
19.874000
 70
   192
  0
VERTEX
  8
Mesh_ncl1_6
 10
513.599131
 20
496.655091
 30
19.874000
 70
   192
  0
VERTEX
  8
Mesh_ncl1_6
 10
513.392131
 20
496.655091
 30
19.874000
 70
   192
  0
VERTEX
  8
Mesh_ncl1_6
 10
513.599131
 20
496.655091
 30
19.874000
 70
   192
  0
VERTEX
  8
Mesh_ncl1_6
 10
513.583374
 20
496.734306
 30
19.874000
 70
   192
  0
VERTEX
  8
Mesh_ncl1_6
 10
513.392131
 20
496.655091
 30
19.874000
 70
   192
  0
VERTEX
  8
Mesh_ncl1_6
 10
513.583374
 20
496.734306
 30
19.874000
 70
   192
  0
VERTEX
  8
Mesh_ncl1_6
 10
513.538502
 20
496.801462
 30
19.874000
 70
   192
  0
VERTEX
  8
Mesh_ncl1_6
 10
513.392131
 20
496.655091
 30
19.874000
 70
   192
  0
VERTEX
  8
Mesh_ncl1_6
 10
513.538502
 20
496.801462
 30
19.874000
 70
   192
  0
VERTEX
  8
Mesh_ncl1_6
 10
513.471347
 20
496.846334
 30
19.874000
 70
   192
  0
VERTEX
  8
Mesh_ncl1_6
 10
514.248000
 20
496.513000
 30
19.874000
 70
   192
  0
VERTEX
  8
Mesh_ncl1_6
 10
515.696000
 20
496.785000
 30
19.874000
 70
   192
  0
VERTEX
  8
Mesh_ncl1_6
 10
515.696000
 20
496.513000
 30
19.874000
 70
   192
  0
VERTEX
  8
Mesh_ncl1_6
 10
514.248000
 20
496.513000
 30
19.874000
 70
   192
  0
VERTEX
  8
Mesh_ncl1_6
 10
514.248000
 20
496.785000
 30
19.874000
 70
   192
  0
VERTEX
  8
Mesh_ncl1_6
 10
515.696000
 20
496.785000
 30
19.874000
 70
   192
  0
VERTEX
  8
Mesh_ncl1_6
 10
496.977000
 20
498.407000
 30
20.013000
 70
   192
  0
VERTEX
  8
Mesh_ncl1_6
 10
496.721000
 20
498.663000
 30
20.013000
 70
   192
  0
VERTEX
  8
Mesh_ncl1_6
 10
496.977000
 20
498.663000
 30
20.013000
 70
   192
  0
VERTEX
  8
Mesh_ncl1_6
 10
496.977000
 20
498.407000
 30
20.013000
 70
   192
  0
VERTEX
  8
Mesh_ncl1_6
 10
496.721000
 20
498.407000
 30
20.013000
 70
   192
  0
VERTEX
  8
Mesh_ncl1_6
 10
496.721000
 20
498.663000
 30
20.013000
 70
   192
  0
VERTEX
  8
Mesh_ncl1_6
 62
   2
 10
0.0
 20
0.0
 30
0.0
 70
   128
 71
   3
 72
   2
 73
   1
  0
VERTEX
  8
Mesh_ncl1_6
 62
   2
 10
0.0
 20
0.0
 30
0.0
 70
   128
 71
   6
 72
   5
 73
   4
  0
VERTEX
  8
Mesh_ncl1_6
 62
   2
 10
0.0
 20
0.0
 30
0.0
 70
   128
 71
   9
 72
   8
 73
   7
  0
VERTEX
  8
Mesh_ncl1_6
 62
   2
 10
0.0
 20
0.0
 30
0.0
 70
   128
 71
   12
 72
   11
 73
   10
  0
VERTEX
  8
Mesh_ncl1_6
 62
   2
 10
0.0
 20
0.0
 30
0.0
 70
   128
 71
   15
 72
   14
 73
   13
  0
VERTEX
  8
Mesh_ncl1_6
 62
   2
 10
0.0
 20
0.0
 30
0.0
 70
   128
 71
   18
 72
   17
 73
   16
  0
VERTEX
  8
Mesh_ncl1_6
 62
   2
 10
0.0
 20
0.0
 30
0.0
 70
   128
 71
   21
 72
   20
 73
   19
  0
VERTEX
  8
Mesh_ncl1_6
 62
   2
 10
0.0
 20
0.0
 30
0.0
 70
   128
 71
   24
 72
   23
 73
   22
  0
VERTEX
  8
Mesh_ncl1_6
 62
   2
 10
0.0
 20
0.0
 30
0.0
 70
   128
 71
   27
 72
   26
 73
   25
  0
VERTEX
  8
Mesh_ncl1_6
 62
   2
 10
0.0
 20
0.0
 30
0.0
 70
   128
 71
   30
 72
   29
 73
   28
  0
VERTEX
  8
Mesh_ncl1_6
 62
   2
 10
0.0
 20
0.0
 30
0.0
 70
   128
 71
   33
 72
   32
 73
   31
  0
VERTEX
  8
Mesh_ncl1_6
 62
   2
 10
0.0
 20
0.0
 30
0.0
 70
   128
 71
   36
 72
   35
 73
   34
  0
VERTEX
  8
Mesh_ncl1_6
 62
   2
 10
0.0
 20
0.0
 30
0.0
 70
   128
 71
   39
 72
   38
 73
   37
  0
VERTEX
  8
Mesh_ncl1_6
 62
   2
 10
0.0
 20
0.0
 30
0.0
 70
   128
 71
   42
 72
   41
 73
   40
  0
VERTEX
  8
Mesh_ncl1_6
 62
   2
 10
0.0
 20
0.0
 30
0.0
 70
   128
 71
   45
 72
   44
 73
   43
  0
VERTEX
  8
Mesh_ncl1_6
 62
   2
 10
0.0
 20
0.0
 30
0.0
 70
   128
 71
   48
 72
   47
 73
   46
  0
VERTEX
  8
Mesh_ncl1_6
 62
   2
 10
0.0
 20
0.0
 30
0.0
 70
   128
 71
   51
 72
   50
 73
   49
  0
VERTEX
  8
Mesh_ncl1_6
 62
   2
 10
0.0
 20
0.0
 30
0.0
 70
   128
 71
   54
 72
   53
 73
   52
  0
VERTEX
  8
Mesh_ncl1_6
 62
   2
 10
0.0
 20
0.0
 30
0.0
 70
   128
 71
   57
 72
   56
 73
   55
  0
VERTEX
  8
Mesh_ncl1_6
 62
   2
 10
0.0
 20
0.0
 30
0.0
 70
   128
 71
   60
 72
   59
 73
   58
  0
SEQEND
  0
POLYLINE
  8
Mesh_ncl1_7
 62
   5
 66
   1
 10
0.0
 20
0.0
 30
0.0
 70
   64
 71
   6
 72
   2
  0
VERTEX
  8
Mesh_ncl1_7
 10
495.481000
 20
498.350000
 30
20.115000
 70
   192
  0
VERTEX
  8
Mesh_ncl1_7
 10
496.181000
 20
497.999000
 30
20.115000
 70
   192
  0
VERTEX
  8
Mesh_ncl1_7
 10
496.181000
 20
498.350000
 30
20.115000
 70
   192
  0
VERTEX
  8
Mesh_ncl1_7
 10
495.481000
 20
498.350000
 30
20.115000
 70
   192
  0
VERTEX
  8
Mesh_ncl1_7
 10
495.481000
 20
497.999000
 30
20.115000
 70
   192
  0
VERTEX
  8
Mesh_ncl1_7
 10
496.181000
 20
497.999000
 30
20.115000
 70
   192
  0
VERTEX
  8
Mesh_ncl1_7
 62
   5
 10
0.0
 20
0.0
 30
0.0
 70
   128
 71
   3
 72
   2
 73
   1
  0
VERTEX
  8
Mesh_ncl1_7
 62
   5
 10
0.0
 20
0.0
 30
0.0
 70
   128
 71
   6
 72
   5
 73
   4
  0
SEQEND
  0
POLYLINE
  8
Mesh_ncl1_8
 62
   60
 66
   1
 10
0.0
 20
0.0
 30
0.0
 70
   64
 71
   48
 72
   16
  0
VERTEX
  8
Mesh_ncl1_8
 10
495.167259
 20
500.383815
 30
20.401000
 70
   192
  0
VERTEX
  8
Mesh_ncl1_8
 10
495.459944
 20
500.262581
 30
20.401000
 70
   192
  0
VERTEX
  8
Mesh_ncl1_8
 10
495.484059
 20
500.383815
 30
20.401000
 70
   192
  0
VERTEX
  8
Mesh_ncl1_8
 10
495.167259
 20
500.383815
 30
20.401000
 70
   192
  0
VERTEX
  8
Mesh_ncl1_8
 10
495.484059
 20
500.383815
 30
20.401000
 70
   192
  0
VERTEX
  8
Mesh_ncl1_8
 10
495.459944
 20
500.505049
 30
20.401000
 70
   192
  0
VERTEX
  8
Mesh_ncl1_8
 10
495.167259
 20
500.383815
 30
20.401000
 70
   192
  0
VERTEX
  8
Mesh_ncl1_8
 10
495.459944
 20
500.505049
 30
20.401000
 70
   192
  0
VERTEX
  8
Mesh_ncl1_8
 10
495.391270
 20
500.607826
 30
20.401000
 70
   192
  0
VERTEX
  8
Mesh_ncl1_8
 10
495.167259
 20
500.383815
 30
20.401000
 70
   192
  0
VERTEX
  8
Mesh_ncl1_8
 10
495.391270
 20
500.607826
 30
20.401000
 70
   192
  0
VERTEX
  8
Mesh_ncl1_8
 10
495.288493
 20
500.676500
 30
20.401000
 70
   192
  0
VERTEX
  8
Mesh_ncl1_8
 10
495.167259
 20
500.383815
 30
20.401000
 70
   192
  0
VERTEX
  8
Mesh_ncl1_8
 10
495.288493
 20
500.676500
 30
20.401000
 70
   192
  0
VERTEX
  8
Mesh_ncl1_8
 10
495.167259
 20
500.700615
 30
20.401000
 70
   192
  0
VERTEX
  8
Mesh_ncl1_8
 10
495.167259
 20
500.383815
 30
20.401000
 70
   192
  0
VERTEX
  8
Mesh_ncl1_8
 10
495.167259
 20
500.700615
 30
20.401000
 70
   192
  0
VERTEX
  8
Mesh_ncl1_8
 10
495.046025
 20
500.676500
 30
20.401000
 70
   192
  0
VERTEX
  8
Mesh_ncl1_8
 10
495.167259
 20
500.383815
 30
20.401000
 70
   192
  0
VERTEX
  8
Mesh_ncl1_8
 10
495.046025
 20
500.676500
 30
20.401000
 70
   192
  0
VERTEX
  8
Mesh_ncl1_8
 10
494.943247
 20
500.607826
 30
20.401000
 70
   192
  0
VERTEX
  8
Mesh_ncl1_8
 10
495.167259
 20
500.383815
 30
20.401000
 70
   192
  0
VERTEX
  8
Mesh_ncl1_8
 10
494.943247
 20
500.607826
 30
20.401000
 70
   192
  0
VERTEX
  8
Mesh_ncl1_8
 10
494.874574
 20
500.505049
 30
20.401000
 70
   192
  0
VERTEX
  8
Mesh_ncl1_8
 10
495.167259
 20
500.383815
 30
20.401000
 70
   192
  0
VERTEX
  8
Mesh_ncl1_8
 10
494.874574
 20
500.505049
 30
20.401000
 70
   192
  0
VERTEX
  8
Mesh_ncl1_8
 10
494.850459
 20
500.383815
 30
20.401000
 70
   192
  0
VERTEX
  8
Mesh_ncl1_8
 10
495.167259
 20
500.383815
 30
20.401000
 70
   192
  0
VERTEX
  8
Mesh_ncl1_8
 10
494.850459
 20
500.383815
 30
20.401000
 70
   192
  0
VERTEX
  8
Mesh_ncl1_8
 10
494.874574
 20
500.262581
 30
20.401000
 70
   192
  0
VERTEX
  8
Mesh_ncl1_8
 10
495.167259
 20
500.383815
 30
20.401000
 70
   192
  0
VERTEX
  8
Mesh_ncl1_8
 10
494.874574
 20
500.262581
 30
20.401000
 70
   192
  0
VERTEX
  8
Mesh_ncl1_8
 10
494.943247
 20
500.159804
 30
20.401000
 70
   192
  0
VERTEX
  8
Mesh_ncl1_8
 10
495.167259
 20
500.383815
 30
20.401000
 70
   192
  0
VERTEX
  8
Mesh_ncl1_8
 10
494.943247
 20
500.159804
 30
20.401000
 70
   192
  0
VERTEX
  8
Mesh_ncl1_8
 10
495.046025
 20
500.091130
 30
20.401000
 70
   192
  0
VERTEX
  8
Mesh_ncl1_8
 10
495.167259
 20
500.383815
 30
20.401000
 70
   192
  0
VERTEX
  8
Mesh_ncl1_8
 10
495.046025
 20
500.091130
 30
20.401000
 70
   192
  0
VERTEX
  8
Mesh_ncl1_8
 10
495.167259
 20
500.067015
 30
20.401000
 70
   192
  0
VERTEX
  8
Mesh_ncl1_8
 10
495.167259
 20
500.383815
 30
20.401000
 70
   192
  0
VERTEX
  8
Mesh_ncl1_8
 10
495.167259
 20
500.067015
 30
20.401000
 70
   192
  0
VERTEX
  8
Mesh_ncl1_8
 10
495.288493
 20
500.091130
 30
20.401000
 70
   192
  0
VERTEX
  8
Mesh_ncl1_8
 10
495.167259
 20
500.383815
 30
20.401000
 70
   192
  0
VERTEX
  8
Mesh_ncl1_8
 10
495.288493
 20
500.091130
 30
20.401000
 70
   192
  0
VERTEX
  8
Mesh_ncl1_8
 10
495.391270
 20
500.159804
 30
20.401000
 70
   192
  0
VERTEX
  8
Mesh_ncl1_8
 10
495.167259
 20
500.383815
 30
20.401000
 70
   192
  0
VERTEX
  8
Mesh_ncl1_8
 10
495.391270
 20
500.159804
 30
20.401000
 70
   192
  0
VERTEX
  8
Mesh_ncl1_8
 10
495.459944
 20
500.262581
 30
20.401000
 70
   192
  0
VERTEX
  8
Mesh_ncl1_8
 62
   60
 10
0.0
 20
0.0
 30
0.0
 70
   128
 71
   3
 72
   2
 73
   1
  0
VERTEX
  8
Mesh_ncl1_8
 62
   60
 10
0.0
 20
0.0
 30
0.0
 70
   128
 71
   6
 72
   5
 73
   4
  0
VERTEX
  8
Mesh_ncl1_8
 62
   60
 10
0.0
 20
0.0
 30
0.0
 70
   128
 71
   9
 72
   8
 73
   7
  0
VERTEX
  8
Mesh_ncl1_8
 62
   60
 10
0.0
 20
0.0
 30
0.0
 70
   128
 71
   12
 72
   11
 73
   10
  0
VERTEX
  8
Mesh_ncl1_8
 62
   60
 10
0.0
 20
0.0
 30
0.0
 70
   128
 71
   15
 72
   14
 73
   13
  0
VERTEX
  8
Mesh_ncl1_8
 62
   60
 10
0.0
 20
0.0
 30
0.0
 70
   128
 71
   18
 72
   17
 73
   16
  0
VERTEX
  8
Mesh_ncl1_8
 62
   60
 10
0.0
 20
0.0
 30
0.0
 70
   128
 71
   21
 72
   20
 73
   19
  0
VERTEX
  8
Mesh_ncl1_8
 62
   60
 10
0.0
 20
0.0
 30
0.0
 70
   128
 71
   24
 72
   23
 73
   22
  0
VERTEX
  8
Mesh_ncl1_8
 62
   60
 10
0.0
 20
0.0
 30
0.0
 70
   128
 71
   27
 72
   26
 73
   25
  0
VERTEX
  8
Mesh_ncl1_8
 62
   60
 10
0.0
 20
0.0
 30
0.0
 70
   128
 71
   30
 72
   29
 73
   28
  0
VERTEX
  8
Mesh_ncl1_8
 62
   60
 10
0.0
 20
0.0
 30
0.0
 70
   128
 71
   33
 72
   32
 73
   31
  0
VERTEX
  8
Mesh_ncl1_8
 62
   60
 10
0.0
 20
0.0
 30
0.0
 70
   128
 71
   36
 72
   35
 73
   34
  0
VERTEX
  8
Mesh_ncl1_8
 62
   60
 10
0.0
 20
0.0
 30
0.0
 70
   128
 71
   39
 72
   38
 73
   37
  0
VERTEX
  8
Mesh_ncl1_8
 62
   60
 10
0.0
 20
0.0
 30
0.0
 70
   128
 71
   42
 72
   41
 73
   40
  0
VERTEX
  8
Mesh_ncl1_8
 62
   60
 10
0.0
 20
0.0
 30
0.0
 70
   128
 71
   45
 72
   44
 73
   43
  0
VERTEX
  8
Mesh_ncl1_8
 62
   60
 10
0.0
 20
0.0
 30
0.0
 70
   128
 71
   48
 72
   47
 73
   46
  0
SEQEND
  0
ENDSEC
  0
EOF
