999
DXF generated by PSUTool
  0
SECTION
  2
HEADER
  0
ENDSEC
  0
SECTION
  2
TABLES
  0
TABLE
  2
LTYPE
  70
1
  0
LTYPE
  2
CONTINUOUS
  3
Solid Line
  72
65
  73
0
  40
0.0
  0
ENDTAB
  0
TABLE
  2
LAYER
  70
1
  0
LAYER
  2
PSUTool
  62
7
  6
continuous
  0
ENDTAB
  0
TABLE
  2
STYLE
  70
0
  0
ENDTAB
  0
TABLE
  2
VIEW
  70
0
  0
ENDTAB
  0
ENDSEC
  0
SECTION
  2
BLOCKS
  0
ENDSEC
  0
SECTION
  2
ENTITIES
  0
LWPOLYLINE
  8
PSUTool
  90
19
  70
0
 10
-5.495366078668426
 20
-2.996469115002945
 30
0.0
 10
-5.413762205000305
 20
-2.6240678434568814
 30
0.0
 10
-5.400031733392917
 20
-2.8529397445200178
 30
0.0
 10
-5.403662191479328
 20
-2.882748678135258
 30
0.0
 10
-5.394326128527786
 20
-2.857888064473606
 30
0.0
 10
-5.340410800919549
 20
-2.857678387045221
 30
0.0
 10
-4.214287502417204
 20
-2.4936552599446955
 30
0.0
 10
-2.8744364659905357
 20
-1.3700980097544115
 30
0.0
 10
-3.1772521159480296
 20
-0.7631104470114036
 30
0.0
 10
-4.34280580295272
 20
2.230470577335719
 30
0.0
 10
-3.872890716886288
 20
3.4673707133219107
 30
0.0
 10
-2.7424082287310356
 20
5.789638831558619
 30
0.0
 10
-3.012829756080059
 20
6.74007016135403
 30
0.0
 10
-2.961819036167152
 20
8.204685521862686
 30
0.0
 10
-0.651315817137605
 20
12.522107386320389
 30
0.0
 10
-0.22716171106412242
 20
13.085539436040401
 30
0.0
 10
-0.8871536580622683
 20
14.009220428534885
 30
0.0
 10
-1.4537967359057578
 20
14.226286514575781
 30
0.0
 10
-3.4927211260472517
 20
14.20583246608553
 30
0.0
  0
LWPOLYLINE
  8
PSUTool
  90
11
  70
0
 10
-1.7420189399184092
 20
14.26296459921011
 30
0.0
 10
0.9792989373606261
 20
14.290264271570882
 30
0.0
 10
1.1703322904748297
 20
13.292350945523602
 30
0.0
 10
1.1041876122887728
 20
11.653811490115771
 30
0.0
 10
0.469192411350034
 20
5.843858782157913
 30
0.0
 10
0.0922762775418633
 20
-1.8984730662886828
 30
0.0
 10
-0.39283581328324646
 20
-3.953442608332479
 30
0.0
 10
-0.5357238682687853
 20
-4.653577796901929
 30
0.0
 10
-1.8529828997856619
 20
-4.766587262016828
 30
0.0
 10
-2.2403157909778937
 20
-4.972942236211002
 30
0.0
 10
-3.8049608261173766
 20
-4.8859371452351485
 30
0.0
  0
LWPOLYLINE
  8
PSUTool
  90
11
  70
0
 10
0.008683246210402729
 20
14.320096732334687
 30
0.0
 10
2.1897575106922624
 20
14.341976797619234
 30
0.0
 10
2.3428663898915087
 20
13.542172007521922
 30
0.0
 10
2.2063774184310234
 20
10.161060010318465
 30
0.0
 10
1.7090510996529307
 20
5.610722640442422
 30
0.0
 10
1.4138515248565022
 20
-0.4530482215326477
 30
0.0
 10
0.3807565143477889
 20
-4.829312637086428
 30
0.0
 10
0.38008026414497476
 20
-4.832626186027348
 30
0.0
 10
0.3738460363271754
 20
-4.83316102901133
 30
0.0
 10
-0.6671621968684365
 20
-5.387767239797571
 30
0.0
 10
-1.8991953166565256
 20
-5.319257672921356
 30
0.0
  0
LWPOLYLINE
  8
PSUTool
  90
10
  70
0
 10
1.7593854323392142
 20
14.377228865459266
 30
0.0
 10
3.400216084023899
 20
14.393689323667585
 30
0.0
 10
3.515400489308188
 20
13.791993069520244
 30
0.0
 10
3.308567224573274
 20
8.668308530521161
 30
0.0
 10
2.9489097879558273
 20
5.377586498726931
 30
0.0
 10
2.7354267721711416
 20
0.9923766232233877
 30
0.0
 10
1.9854393756061766
 20
-2.184623674246729
 30
0.0
 10
1.669207697129826
 20
-5.3959821066014015
 30
0.0
 10
0.9059913972410198
 20
-5.802592243384142
 30
0.0
 10
0.006570192804326247
 20
-5.752578200607564
 30
0.0
  0
LWPOLYLINE
  8
PSUTool
  90
10
  70
0
 10
3.5100876184680256
 20
14.434360998583843
 30
0.0
 10
4.610674657355535
 20
14.445401849715937
 30
0.0
 10
4.6879345887248665
 20
14.041814131518565
 30
0.0
 10
4.410757030715524
 20
7.175557050723856
 30
0.0
 10
4.1887684762587245
 20
5.14445035701144
 30
0.0
 10
4.05700201948578
 20
2.4378014679794227
 30
0.0
 10
3.59409314822737
 20
0.47688635337171537
 30
0.0
 10
2.9601188512332026
 20
-5.961174230430931
 30
0.0
 10
2.479144991350477
 20
-6.217417246970712
 30
0.0
 10
1.9123357022651764
 20
-6.185898728293772
 30
0.0
  0
LWPOLYLINE
  8
PSUTool
  90
10
  70
0
 10
5.260789804596839
 20
14.491493131708422
 30
0.0
 10
5.821133230687171
 20
14.497114375764289
 30
0.0
 10
5.8604686881415455
 20
14.291635193516885
 30
0.0
 10
5.512946836857774
 20
5.682805570926551
 30
0.0
 10
5.428627164561621
 20
4.911314215295949
 30
0.0
 10
5.378577266800419
 20
3.8832263127354585
 30
0.0
 10
5.202746920848564
 20
3.1383963809901596
 30
0.0
 10
4.251030005336579
 20
-6.5263663542604595
 30
0.0
 10
4.052298585459933
 20
-6.632242250557281
 30
0.0
 10
3.8181012117260282
 20
-6.61921925597998
 30
0.0
  0
LWPOLYLINE
  8
PSUTool
  90
8
  70
0
 10
7.01149199072568
 20
14.548625264833001
 30
0.0
 10
7.03159180401883
 20
14.54882690181264
 30
0.0
 10
7.033002787558246
 20
14.541456255515211
 30
0.0
 10
6.998786285053022
 20
13.693843251440029
 30
0.0
 10
10.518933836776348
 20
4.223666933635243
 30
0.0
 10
9.09328947978122
 20
1.2886044542786084
 30
0.0
 10
7.793741609095381
 20
-6.948014664381939
 30
0.0
 10
8.349844407319924
 20
-7.0277976317146855
 30
0.0
  0
LWPOLYLINE
  8
PSUTool
  90
7
  70
0
 10
15.599406286904802
 20
14.44940443136177
 30
0.0
 10
18.134573037744495
 20
9.014534046715385
 30
0.0
 10
19.577389641548056
 20
5.6425593343366796
 30
0.0
 10
22.31467094982709
 20
3.141322971460996
 30
0.0
 10
20.696792441023494
 20
-0.48482026027625125
 30
0.0
 10
17.049461236078034
 20
-7.078915240666306
 30
0.0
 10
19.130634415187387
 20
-7.377497035781865
 30
0.0
  0
LWPOLYLINE
  8
PSUTool
  90
9
  70
0
 10
27.328538451710475
 20
-7.603195684381105
 30
0.0
 10
32.82635580643695
 20
-7.157210178332732
 30
0.0
 10
35.150157460467106
 20
-3.7540269345848603
 30
0.0
 10
33.46614006856037
 20
2.776730943164593
 30
0.0
 10
31.682765037105966
 20
6.054439654901305
 30
0.0
 10
26.70554994532768
 20
10.21695714658998
 30
0.0
 10
25.324424901774783
 20
11.478983146681536
 30
0.0
 10
24.59892000586633
 20
13.174544561944625
 30
0.0
 10
26.446548684711505
 20
13.409743653859016
 30
0.0
  0
LWPOLYLINE
  8
PSUTool
  90
10
  70
0
 10
38.47844682588227
 20
11.815184207274523
 30
0.0
 10
38.157927243861835
 20
11.774382765136753
 30
0.0
 10
39.02184144239346
 20
11.051878734992204
 30
0.0
 10
39.75096586595873
 20
9.711803073446752
 30
0.0
 10
39.37420890211721
 20
2.996808288067817
 30
0.0
 10
39.34451641161777
 20
2.6140153040246115
 30
0.0
 10
39.32795227979042
 20
2.218878742814827
 30
0.0
 10
38.775485031219745
 20
-6.612087395510998
 30
0.0
 10
38.756797735612956
 20
-6.692897293531017
 30
0.0
 10
28.75841495527536
 20
-7.503970764373166
 30
0.0
  0
LWPOLYLINE
  8
PSUTool
  90
8
  70
0
 10
30.188291458840247
 20
-7.404745844365227
 30
0.0
 10
38.85023374311641
 20
-6.702085049405642
 30
0.0
 10
38.894689758922894
 20
-6.509842887709798
 30
0.0
 10
39.37899896019525
 20
1.231644355164435
 30
0.0
 10
39.43437684864841
 20
2.5526811978150468
 30
0.0
 10
39.533646007087505
 20
3.8324504843649865
 30
0.0
 10
39.964377295001164
 20
11.509437587001349
 30
0.0
 10
39.964561361539204
 20
11.534057369425225
 30
0.0
  0
LWPOLYLINE
  8
PSUTool
  90
8
  70
0
 10
31.61816796240516
 20
-7.305520924357285
 30
0.0
 10
38.943669750619875
 20
-6.711272805280266
 30
0.0
 10
39.01389448662604
 20
-6.407598379908595
 30
0.0
 10
39.43004564060006
 20
0.24440996751402544
 30
0.0
 10
39.52423728567906
 20
2.4913470916054816
 30
0.0
 10
39.6930831120578
 20
4.668092680662172
 30
0.0
 10
40.06924433198025
 20
11.372469434540887
 30
0.0
 10
40.06963656977318
 20
11.424933120898414
 30
0.0
  0
LWPOLYLINE
  8
PSUTool
  90
8
  70
0
 10
33.048044465970044
 20
-7.206296004349347
 30
0.0
 10
39.03710575812333
 20
-6.720460561154891
 30
0.0
 10
39.13309921432919
 20
-6.305353872107395
 30
0.0
 10
39.48109232100488
 20
-0.7428244201363667
 30
0.0
 10
39.6140977227097
 20
2.4300129853959174
 30
0.0
 10
39.85252021702809
 20
5.503734876959341
 30
0.0
 10
40.17411136895933
 20
11.235501282080428
 30
0.0
 10
40.174711778007165
 20
11.315808872371605
 30
0.0
  0
LWPOLYLINE
  8
PSUTool
  90
8
  70
0
 10
34.477920969534935
 20
-7.107071084341407
 30
0.0
 10
39.13054176562679
 20
-6.729648317029515
 30
0.0
 10
39.25230394203234
 20
-6.2031093643061945
 30
0.0
 10
39.532139001409696
 20
-1.7300588077867585
 30
0.0
 10
39.70395815974034
 20
2.368678879186353
 30
0.0
 10
40.01195732199839
 20
6.339377073256511
 30
0.0
 10
40.27897840593841
 20
11.098533129619968
 30
0.0
 10
40.27978698624114
 20
11.206684623844794
 30
0.0
  0
LWPOLYLINE
  8
PSUTool
  90
8
  70
0
 10
35.90779747309982
 20
-7.0078461643334675
 30
0.0
 10
39.223977773130244
 20
-6.73883607290414
 30
0.0
 10
39.37150866973549
 20
-6.1008648565049945
 30
0.0
 10
39.58318568181451
 20
-2.717293195437151
 30
0.0
 10
39.79381859677098
 20
2.307344772976789
 30
0.0
 10
40.17139442696868
 20
7.175019269553681
 30
0.0
 10
40.38384544291749
 20
10.961564977159508
 30
0.0
 10
40.38486219447512
 20
11.097560375317984
 30
0.0
  0
LWPOLYLINE
  8
PSUTool
  90
8
  70
0
 10
37.3376739766647
 20
-6.908621244325528
 30
0.0
 10
39.3174137806337
 20
-6.748023828778764
 30
0.0
 10
39.49071339743864
 20
-5.998620348703794
 30
0.0
 10
39.634232362219336
 20
-3.704527583087543
 30
0.0
 10
39.88367903380163
 20
2.2460106667672246
 30
0.0
 10
40.330831531938976
 20
8.01066146585085
 30
0.0
 10
40.48871247989657
 20
10.824596824699048
 30
0.0
 10
40.4899374027091
 20
10.988436126791175
 30
0.0
  0
LWPOLYLINE
  8
PSUTool
  90
8
  70
0
 10
38.767550480229616
 20
-6.8093963243175875
 30
0.0
 10
39.410849788137156
 20
-6.757211584653389
 30
0.0
 10
39.60991812514179
 20
-5.896375840902591
 30
0.0
 10
39.68527904262415
 20
-4.691761970737952
 30
0.0
 10
39.973539470832264
 20
2.184676560557659
 30
0.0
 10
40.49026863690927
 20
8.846303662148035
 30
0.0
 10
40.59357951687566
 20
10.687628672238587
 30
0.0
 10
40.59501261094308
 20
10.879311878264364
 30
0.0
  0
LWPOLYLINE
  8
PSUTool
  90
8
  70
0
 10
39.693327212199264
 20
-5.94892323723798
 30
0.0
 10
39.72912285284494
 20
-5.794131333101391
 30
0.0
 10
39.73632572302897
 20
-5.6789963583883445
 30
0.0
 10
40.01408139044833
 20
0.9468516138809644
 30
0.0
 10
40.07655239720558
 20
2.2929031937267443
 30
0.0
 10
40.649705741879565
 20
9.681945858445205
 30
0.0
 10
40.69844655385474
 20
10.550660519778127
 30
0.0
 10
40.700087819177064
 20
10.770187629737555
 30
0.0
  0
LWPOLYLINE
  8
PSUTool
  90
3
  70
0
 10
40.80516302741104
 20
10.661063381210745
 30
0.0
 10
40.80440452132644
 20
10.559609553865364
 30
0.0
 10
40.72939841830535
 20
9.368300854104731
 30
0.0
  0
ENDSEC
  0
EOF
