  0
SECTION
  2
HEADER
  9
$ACADVER
  1
AC1015
  9
$ACADMAINTVER
 70
     6
  9
$DWGCODEPAGE
  3
DOS850
  9
$INSBASE
 10
0.0
 20
0.0
 30
0.0
  9
$EXTMIN
 10
1.000000E+20
 20
1.000000E+20
 30
1.000000E+20
  9
$EXTMAX
 10
-1.000000E+20
 20
-1.000000E+20
 30
-1.000000E+20
  9
$LIMMIN
 10
0.0
 20
0.0
  9
$LIMMAX
 10
0.0
 20
0.0
  9
$ORTHOMODE
 70
     0
  9
$REGENMODE
 70
     1
  9
$FILLMODE
 70
     1
  9
$QTEXTMODE
 70
     0
  9
$MIRRTEXT
 70
     1
  9
$LTSCALE
 40
1.0
  9
$ATTMODE
 70
     1
  9
$TEXTSIZE
 40
0.2
  9
$TRACEWID
 40
0.05
  9
$TEXTSTYLE
  7
Standard
  9
$CLAYER
  8
0
  9
$CELTYPE
  6
ByLayer
  9
$CECOLOR
 62
   256
  9
$CELTSCALE
 40
1.0
  9
$DISPSILH
 70
     0
  9
$DIMSCALE
 40
1.0
  9
$DIMASZ
 40
0.18
  9
$DIMEXO
 40
0.0625
  9
$DIMDLI
 40
0.38
  9
$DIMRND
 40
0.0
  9
$DIMDLE
 40
0.0
  9
$DIMEXE
 40
0.18
  9
$DIMTP
 40
0.0
  9
$DIMTM
 40
0.0
  9
$DIMTXT
 40
0.18
  9
$DIMCEN
 40
0.09
  9
$DIMTSZ
 40
0.0
  9
$DIMTOL
 70
     0
  9
$DIMLIM
 70
     0
  9
$DIMTIH
 70
     1
  9
$DIMTOH
 70
     1
  9
$DIMSE1
 70
     0
  9
$DIMSE2
 70
     0
  9
$DIMTAD
 70
     0
  9
$DIMZIN
 70
     0
  9
$DIMBLK
  1

  9
$DIMASO
 70
     1
  9
$DIMSHO
 70
     1
  9
$DIMPOST
  1

  9
$DIMAPOST
  1

  9
$DIMALT
 70
     0
  9
$DIMALTD
 70
     2
  9
$DIMALTF
 40
25.4
  9
$DIMLFAC
 40
1.0
  9
$DIMTOFL
 70
     0
  9
$DIMTVP
 40
0.0
  9
$DIMTIX
 70
     0
  9
$DIMSOXD
 70
     0
  9
$DIMSAH
 70
     0
  9
$DIMBLK1
  1

  9
$DIMBLK2
  1

  9
$DIMSTYLE
  2
Standard
  9
$DIMCLRD
 70
     0
  9
$DIMCLRE
 70
     0
  9
$DIMCLRT
 70
     0
  9
$DIMTFAC
 40
1.0
  9
$DIMGAP
 40
0.09
  9
$DIMJUST
 70
     0
  9
$DIMSD1
 70
     0
  9
$DIMSD2
 70
     0
  9
$DIMTOLJ
 70
     1
  9
$DIMTZIN
 70
     0
  9
$DIMALTZ
 70
     0
  9
$DIMALTTZ
 70
     0
  9
$DIMUPT
 70
     0
  9
$DIMDEC
 70
     4
  9
$DIMTDEC
 70
     4
  9
$DIMALTU
 70
     2
  9
$DIMALTTD
 70
     2
  9
$DIMTXSTY
  7
Standard
  9
$DIMAUNIT
 70
     0
  9
$DIMADEC
 70
     0
  9
$DIMALTRND
 40
0.0
  9
$DIMAZIN
 70
     0
  9
$DIMDSEP
 70
     0
  9
$DIMATFIT
 70
     3
  9
$DIMFRAC
 70
     0
  9
$DIMLDRBLK
  1

  9
$DIMLUNIT
 70
     2
  9
$DIMLWD
 70
     0
  9
$DIMLWE
 70
     0
  9
$DIMTMOVE
 70
     0
  9
$LUNITS
 70
     2
  9
$LUPREC
 70
     4
  9
$SKETCHINC
 40
0.1
  9
$FILLETRAD
 40
0.0
  9
$AUNITS
 70
     0
  9
$AUPREC
 70
     0
  9
$MENU
  1
acad
  9
$ELEVATION
 40
0.0
  9
$PELEVATION
 40
0.0
  9
$THICKNESS
 40
0.0
  9
$LIMCHECK
 70
     0
  9
$CHAMFERA
 40
0.0
  9
$CHAMFERB
 40
0.0
  9
$CHAMFERC
 40
0.0
  9
$CHAMFERD
 40
0.0
  9
$SKPOLY
 70
     0
  9
$TDCREATE
 40
0.000000000
  9
$TDUCREATE
 40
0.000000000
  9
$TDUPDATE
 40
0.000000000
  9
$TDUUPDATE
 40
0.000000000
  9
$TDINDWG
 40
0.0000000000
  9
$TDUSRTIMER
 40
0.0000000000
  9
$USRTIMER
 70
     1
  9
$ANGBASE
 50
0.0
  9
$ANGDIR
 70
     0
  9
$PDMODE
 70
     0
  9
$PDSIZE
 40
0.0
  9
$PLINEWID
 40
0.0
  9
$SPLFRAME
 70
     0
  9
$SPLINETYPE
 70
     6
  9
$SPLINESEGS
 70
     8
  9
$HANDSEED
  5
7A
  9
$SURFTAB1
 70
     6
  9
$SURFTAB2
 70
     6
  9
$SURFTYPE
 70
     6
  9
$SURFU
 70
     6
  9
$SURFV
 70
     6
  9
$UCSBASE
  2

  9
$UCSNAME
  2

  9
$UCSORG
 10
0.0
 20
0.0
 30
0.0
  9
$UCSXDIR
 10
1.0
 20
0.0
 30
0.0
  9
$UCSYDIR
 10
0.0
 20
1.0
 30
0.0
  9
$UCSORTHOREF
  2

  9
$UCSORTHOVIEW
 70
     0
  9
$UCSORGTOP
 10
0.0
 20
0.0
 30
0.0
  9
$UCSORGBOTTOM
 10
0.0
 20
0.0
 30
0.0
  9
$UCSORGLEFT
 10
0.0
 20
0.0
 30
0.0
  9
$UCSORGRIGHT
 10
0.0
 20
0.0
 30
0.0
  9
$UCSORGFRONT
 10
0.0
 20
0.0
 30
0.0
  9
$UCSORGBACK
 10
0.0
 20
0.0
 30
0.0
  9
$PUCSBASE
  2

  9
$PUCSNAME
  2

  9
$PUCSORG
 10
0.0
 20
0.0
 30
0.0
  9
$PUCSXDIR
 10
1.0
 20
0.0
 30
0.0
  9
$PUCSYDIR
 10
0.0
 20
1.0
 30
0.0
  9
$PUCSORTHOREF
  2

  9
$PUCSORTHOVIEW
 70
     0
  9
$PUCSORGTOP
 10
0.0
 20
0.0
 30
0.0
  9
$PUCSORGBOTTOM
 10
0.0
 20
0.0
 30
0.0
  9
$PUCSORGLEFT
 10
0.0
 20
0.0
 30
0.0
  9
$PUCSORGRIGHT
 10
0.0
 20
0.0
 30
0.0
  9
$PUCSORGFRONT
 10
0.0
 20
0.0
 30
0.0
  9
$PUCSORGBACK
 10
0.0
 20
0.0
 30
0.0
  9
$USERI1
 70
     0
  9
$USERI2
 70
     0
  9
$USERI3
 70
     0
  9
$USERI4
 70
     0
  9
$USERI5
 70
     0
  9
$USERR1
 40
0.0
  9
$USERR2
 40
0.0
  9
$USERR3
 40
0.0
  9
$USERR4
 40
0.0
  9
$USERR5
 40
0.0
  9
$WORLDVIEW
 70
     1
  9
$SHADEDGE
 70
     3
  9
$SHADEDIF
 70
    70
  9
$TILEMODE
 70
     1
  9
$MAXACTVP
 70
    16
  9
$PINSBASE
 10
0.0
 20
0.0
 30
0.0
  9
$PLIMCHECK
 70
     0
  9
$PEXTMIN
 10
1.000000E+20
 20
1.000000E+20
 30
1.000000E+20
  9
$PEXTMAX
 10
-1.000000E+20
 20
-1.000000E+20
 30
-1.000000E+20
  9
$PLIMMIN
 10
0.0
 20
0.0
  9
$PLIMMAX
 10
12.0
 20
9.0
  9
$UNITMODE
 70
     0
  9
$VISRETAIN
 70
     0
  9
$PLINEGEN
 70
     1
  9
$PSLTSCALE
 70
     0
  9
$TREEDEPTH
 70
  3020
  9
$CMLSTYLE
  2
Standard
  9
$CMLJUST
 70
     0
  9
$CMLSCALE
 40
1.0
  9
$PROXYGRAPHICS
 70
     0
  9
$MEASUREMENT
 70
     0
  9
$CELWEIGHT
370
     0
  9
$ENDCAPS
280
     0
  9
$JOINSTYLE
280
     0
  9
$LWDISPLAY
290
     0
  9
$INSUNITS
 70
     0
  9
$HYPERLINKBASE
  1

  9
$XEDIT
290
     1
  9
$CEPSNTYPE
380
     0
  9
$PSTYLEMODE
290
     1
  9
$FINGERPRINTGUID
  2

  9
$VERSIONGUID
  2

  9
$EXTNAMES
290
     1
  9
$PSVPSCALE
 40
0.0
  0
ENDSEC
  0
SECTION
  2
CLASSES
  0
CLASS
  1
LWPOLYLINE
  2
AcDbPolyline
  3
AutoCAD 2000
 90
    32768
280
     0
281
     1
  0
CLASS
  1
IMAGE
  2
AcDbRasterImage
  3
ISM
 90
    32895
280
     0
281
     1
  0
CLASS
  1
OLE2FRAME
  2
AcDbOle2Frame
  3
AutoCAD 2000
 90
    32768
280
     0
281
     1
  0
CLASS
  1
HATCH
  2
AcDbHatch
  3
AutoCAD 2000
 90
    32768
280
     0
281
     1
  0
CLASS
  1
DICTIONARYVAR
  2
AcDbDictionaryVar
  3
AutoCAD 2000
 90
    32768
280
     0
281
     0
  0
CLASS
  1
RASTERVARIABLES
  2
AcDbRasterVariables
  3
ISM
 90
    32768
280
     0
281
     0
  0
CLASS
  1
IMAGEDEF
  2
AcDbRasterImageDef
  3
ISM
 90
    32768
280
     0
281
     0
  0
CLASS
  1
IMAGEDEF_REACTOR
  2
AcDbRasterImageDefReactor
  3
ISM
 90
    32769
280
     0
281
     0
  0
CLASS
  1
IDBUFFER
  2
AcDbIdBuffer
  3
AutoCAD 2000
 90
    32768
280
     0
281
     0
  0
CLASS
  1
SPATIAL_FILTER
  2
AcDbSpatialFilter
  3
AutoCAD 2000
 90
    32768
280
     0
281
     0
  0
CLASS
  1
XRECORD
  2
AcDbXrecord
  3
AutoCAD 2000
 90
    32768
280
     0
281
     0
  0
CLASS
  1
SORTENTSTABLE
  2
AcDbSortentsTable
  3
AutoCAD 2000
 90
    32768
280
     0
281
     0
  0
CLASS
  1
LAYER_INDEX
  2
AcDbLayerIndex
  3
AutoCAD 2000
 90
    32768
280
     0
281
     0
  0
CLASS
  1
SPATIAL_INDEX
  2
AcDbSpatialIndex
  3
AutoCAD 2000
 90
    32768
280
     0
281
     0
  0
CLASS
  1
OBJECT_PTR
  2
CAseDLPNTableRecord
  3
"ASE-LPNTableRecord"
 90
    32769
280
     0
281
     0
  0
CLASS
  1
LAYOUT
  2
AcDbLayout
  3
AutoCAD 2000
 90
        0
280
     0
281
     0
  0
CLASS
  1
PLOTSETTINGS
  2
AcDbPlotSettings
  3
AutoCAD 2000
 90
    32768
280
     0
281
     0
  0
CLASS
  1
ACDBDICTIONARYWDFLT
  2
AcDbDictionaryWithDefault
  3
AutoCAD 2000
 90
        0
280
     0
281
     0
  0
CLASS
  1
ACDBPLACEHOLDER
  2
AcDbPlaceHolder
  3
AutoCAD 2000
 90
        0
280
     0
281
     0
  0
ENDSEC
  0
SECTION
  2
TABLES
  0
TABLE
  2
VPORT
  5
7
100
AcDbSymbolTable
 70
     1
  0
VPORT
  5
15
100
AcDbSymbolTableRecord
100
AcDbViewportTableRecord
  2
*ACTIVE
 70
     0
 10
0.0
 20
0.0
 11
1.0
 21
1.0
 12
6.591288
 22
4.579184
 13
0.0
 23
0.0
 14
1.0
 24
1.0
 15
0.0
 25
0.0
 16
0.0
 26
0.0
 36
1.0
 17
0.0
 27
0.0
 37
0.0
 40
9.158369
 41
0.688564
 42
50.0
 43
0.0
 44
0.0
 50
0.0
 51
0.0
 71
     0
 72
   100
 73
     1
 74
     1
 75
     0
 76
     0
 77
     0
 78
     0
281
     0
 65
     0
110
0.0
120
0.0
130
0.0
111
1.0
121
0.0
131
0.0
112
0.0
122
1.0
132
0.0
345
0
346
0
 79
     0
146
0.0
  0
ENDTAB
  0
TABLE
  2
LTYPE
  5
4
100
AcDbSymbolTable
 70
     3
  0
LTYPE
  5
11
100
AcDbSymbolTableRecord
100
AcDbLinetypeTableRecord
  2
ByBlock
 70
    64
  3

 72
    65
 73
     0
 40
0.0
  0
LTYPE
  5
12
100
AcDbSymbolTableRecord
100
AcDbLinetypeTableRecord
  2
ByLayer
 70
    64
  3

 72
    65
 73
     0
 40
0.0
  0
LTYPE
  5
13
100
AcDbSymbolTableRecord
100
AcDbLinetypeTableRecord
  2
Continuous
 70
    64
  3
Solid line
 72
    65
 73
     0
 40
0.0
  0
ENDTAB
  0
TABLE
  2
LAYER
  5
2
100
AcDbSymbolTable
 70
     2
  0
LAYER
  5
14
100
AcDbSymbolTableRecord
100
AcDbLayerTableRecord
  2
0
 70
     0
 62
     7
  6
Continuous
290
     1
370
    -3
390
1D
  0
LAYER
  5
23
100
AcDbSymbolTableRecord
100
AcDbLayerTableRecord
  2
CELL_BM_BENCHMARK__REV_
 70
     0
 62
     7
  6
Continuous
290
     1
370
    -3
390
1F
  0
ENDTAB
  0
TABLE
  2
STYLE
  5
3
100
AcDbSymbolTable
 70
     1
  0
STYLE
  5
17
100
AcDbSymbolTableRecord
100
AcDbTextStyleTableRecord
  2
Standard
 70
     0
 40
0.0
 41
1.0
 50
0.0
 71
     0
 42
0.0
  3
txt
  4

  0
ENDTAB
  0
TABLE
  2
VIEW
  5
5
100
AcDbSymbolTable
 70
     0
  0
ENDTAB
  0
TABLE
  2
UCS
  5
6
100
AcDbSymbolTable
 70
     0
  0
ENDTAB
  0
TABLE
  2
APPID
  5
8
100
AcDbSymbolTable
 70
     1
  0
APPID
  5
16
100
AcDbSymbolTableRecord
100
AcDbRegAppTableRecord
  2
ACAD
 70
     0
  0
ENDTAB
  0
TABLE
  2
DIMSTYLE
  5
9
100
AcDbSymbolTable
 70
     1
100
AcDbDimStyleTable
 71
     0
  0
DIMSTYLE
105
18
100
AcDbSymbolTableRecord
100
AcDbDimStyleTableRecord
  2
Standard
 70
     0
  3

  4

 40
1.0
 41
0.18
 42
0.0625
 43
0.38
 44
0.18
 45
0.0
 46
0.0
 47
0.0
 48
0.0
 71
     0
 72
     0
 73
     1
 74
     1
 75
     0
 76
     0
 77
     0
 78
     0
 79
     0
140
0.18
141
0.09
142
0.0
143
25.4
144
1.0
145
0.0
146
1.0
147
0.09
148
0.0
170
     0
171
     2
172
     0
173
     0
174
     0
175
     0
176
     0
177
     0
178
     0
179
     0
271
     4
272
     4
273
     2
274
     2
275
     0
276
     0
277
     2
278
    46
279
     0
280
     0
281
     0
282
     0
283
     1
284
     0
285
     0
286
     0
288
     0
340
17
341
0
342
0
343
0
344
0
371
    -2
372
    -2
  0
ENDTAB
  0
TABLE
  2
BLOCK_RECORD
  5
1
100
AcDbSymbolTable
 70
     0
  0
BLOCK_RECORD
  5
A
100
AcDbSymbolTableRecord
100
AcDbBlockTableRecord
  2
*MODEL_SPACE
340
20
  0
BLOCK_RECORD
  5
B
100
AcDbSymbolTableRecord
100
AcDbBlockTableRecord
  2
*PAPER_SPACE
340
21
  0
ENDTAB
  0
ENDSEC
  0
SECTION
  2
BLOCKS
  0
BLOCK
  5
D
100
AcDbEntity
  8
0
100
AcDbBlockBegin
  2
*MODEL_SPACE
 70
     0
 10
0.0
 20
0.0
 30
0.0
  3
*MODEL_SPACE
  1

  0
ENDBLK
  5
E
100
AcDbEntity
  8
0
100
AcDbBlockEnd
  0
BLOCK
  5
F
100
AcDbEntity
 67
     1
  8
0
100
AcDbBlockBegin
  2
*PAPER_SPACE
 70
     0
 10
0.0
 20
0.0
 30
0.0
  3
*PAPER_SPACE
  1

  0
ENDBLK
  5
10
100
AcDbEntity
 67
     1
  8
0
100
AcDbBlockEnd
  0
ENDSEC
  0
SECTION
  2
ENTITIES
  0
ARC
  5
24
100
AcDbEntity
  8
CELL_BM_BENCHMARK__REV_
 62
    30
100
AcDbCircle
 10
0.0
 20
0.0
 30
0.0
 40
0.15
210
0.0
220
0.0
230
1.0
100
AcDbArc
 50
0.0
 51
90.0
  0
ARC
  5
25
100
AcDbEntity
  8
CELL_BM_BENCHMARK__REV_
 62
    30
100
AcDbCircle
 10
0.0
 20
0.0
 30
0.0
 40
0.15
210
-0.0
220
0.0
230
1.0
100
AcDbArc
 50
90.0
 51
180.0
  0
ARC
  5
26
100
AcDbEntity
  8
CELL_BM_BENCHMARK__REV_
 62
    30
100
AcDbCircle
 10
0.0
 20
0.0
 30
0.0
 40
0.15
210
-0.0
220
-0.0
230
1.0
100
AcDbArc
 50
180.0
 51
270.0
  0
ARC
  5
27
100
AcDbEntity
  8
CELL_BM_BENCHMARK__REV_
 62
    30
100
AcDbCircle
 10
0.0
 20
0.0
 30
0.0
 40
0.15
210
-0.0
220
0.0
230
1.0
100
AcDbArc
 50
270.0
 51
0.0
  0
LINE
  5
28
100
AcDbEntity
  8
CELL_BM_BENCHMARK__REV_
 62
    30
100
AcDbLine
 10
-0.250499
 20
-0.150197
 30
0.0
 11
0.249501
 21
-0.150197
 31
0.0
  0
LINE
  5
29
100
AcDbEntity
  8
CELL_BM_BENCHMARK__REV_
 62
    30
100
AcDbLine
 10
0.249501
 20
-0.150197
 30
0.0
 11
-0.000499
 21
0.338803
 31
0.0
  0
LINE
  5
2A
100
AcDbEntity
  8
CELL_BM_BENCHMARK__REV_
 62
    30
100
AcDbLine
 10
-0.250499
 20
-0.150197
 30
0.0
 11
-0.000499
 21
0.338803
 31
0.0
  0
LINE
  5
2B
100
AcDbEntity
  8
CELL_BM_BENCHMARK__REV_
 62
    30
100
AcDbLine
 10
0.000501
 20
0.319803
 30
0.0
 11
0.102501
 21
0.118803
 31
0.0
  0
LINE
  5
2C
100
AcDbEntity
  8
CELL_BM_BENCHMARK__REV_
 62
    30
100
AcDbLine
 10
0.102501
 20
0.118803
 30
0.0
 11
0.054501
 21
0.145803
 31
0.0
  0
LINE
  5
2D
100
AcDbEntity
  8
CELL_BM_BENCHMARK__REV_
 62
    30
100
AcDbLine
 10
0.054501
 20
0.145803
 30
0.0
 11
-0.001499
 21
0.156803
 31
0.0
  0
LINE
  5
2E
100
AcDbEntity
  8
CELL_BM_BENCHMARK__REV_
 62
    30
100
AcDbLine
 10
-0.001499
 20
0.156803
 30
0.0
 11
-0.045499
 21
0.147803
 31
0.0
  0
LINE
  5
2F
100
AcDbEntity
  8
CELL_BM_BENCHMARK__REV_
 62
    30
100
AcDbLine
 10
-0.045499
 20
0.147803
 30
0.0
 11
-0.079499
 21
0.135803
 31
0.0
  0
LINE
  5
30
100
AcDbEntity
  8
CELL_BM_BENCHMARK__REV_
 62
    30
100
AcDbLine
 10
-0.079499
 20
0.135803
 30
0.0
 11
-0.109499
 21
0.114803
 31
0.0
  0
LINE
  5
31
100
AcDbEntity
  8
CELL_BM_BENCHMARK__REV_
 62
    30
100
AcDbLine
 10
-0.109499
 20
0.114803
 30
0.0
 11
-0.002499
 21
0.319803
 31
0.0
  0
LINE
  5
32
100
AcDbEntity
  8
CELL_BM_BENCHMARK__REV_
 62
    30
100
AcDbLine
 10
-0.001499
 20
0.298803
 30
0.0
 11
0.084501
 21
0.142803
 31
0.0
  0
LINE
  5
33
100
AcDbEntity
  8
CELL_BM_BENCHMARK__REV_
 62
    30
100
AcDbLine
 10
0.084501
 20
0.142803
 30
0.0
 11
0.049501
 21
0.154803
 31
0.0
  0
LINE
  5
34
100
AcDbEntity
  8
CELL_BM_BENCHMARK__REV_
 62
    30
100
AcDbLine
 10
0.049501
 20
0.154803
 30
0.0
 11
0.012501
 21
0.159803
 31
0.0
  0
LINE
  5
35
100
AcDbEntity
  8
CELL_BM_BENCHMARK__REV_
 62
    30
100
AcDbLine
 10
0.012501
 20
0.159803
 30
0.0
 11
-0.028499
 21
0.152803
 31
0.0
  0
LINE
  5
36
100
AcDbEntity
  8
CELL_BM_BENCHMARK__REV_
 62
    30
100
AcDbLine
 10
-0.028499
 20
0.152803
 30
0.0
 11
-0.050499
 21
0.149803
 31
0.0
  0
LINE
  5
37
100
AcDbEntity
  8
CELL_BM_BENCHMARK__REV_
 62
    30
100
AcDbLine
 10
-0.050499
 20
0.149803
 30
0.0
 11
-0.088499
 21
0.139803
 31
0.0
  0
LINE
  5
38
100
AcDbEntity
  8
CELL_BM_BENCHMARK__REV_
 62
    30
100
AcDbLine
 10
-0.088499
 20
0.139803
 30
0.0
 11
-0.075499
 21
0.171803
 31
0.0
  0
LINE
  5
39
100
AcDbEntity
  8
CELL_BM_BENCHMARK__REV_
 62
    30
100
AcDbLine
 10
-0.075499
 20
0.171803
 30
0.0
 11
-0.002499
 21
0.297803
 31
0.0
  0
LINE
  5
3A
100
AcDbEntity
  8
CELL_BM_BENCHMARK__REV_
 62
    30
100
AcDbLine
 10
-0.002499
 20
0.281803
 30
0.0
 11
0.067501
 21
0.157803
 31
0.0
  0
LINE
  5
3B
100
AcDbEntity
  8
CELL_BM_BENCHMARK__REV_
 62
    30
100
AcDbLine
 10
0.067501
 20
0.157803
 30
0.0
 11
0.040501
 21
0.162803
 31
0.0
  0
LINE
  5
3C
100
AcDbEntity
  8
CELL_BM_BENCHMARK__REV_
 62
    30
100
AcDbLine
 10
0.040501
 20
0.162803
 30
0.0
 11
0.001501
 21
0.163803
 31
0.0
  0
LINE
  5
3D
100
AcDbEntity
  8
CELL_BM_BENCHMARK__REV_
 62
    30
100
AcDbLine
 10
0.001501
 20
0.163803
 30
0.0
 11
-0.054499
 21
0.155803
 31
0.0
  0
LINE
  5
3E
100
AcDbEntity
  8
CELL_BM_BENCHMARK__REV_
 62
    30
100
AcDbLine
 10
-0.054499
 20
0.155803
 30
0.0
 11
-0.075499
 21
0.151803
 31
0.0
  0
LINE
  5
3F
100
AcDbEntity
  8
CELL_BM_BENCHMARK__REV_
 62
    30
100
AcDbLine
 10
-0.075499
 20
0.151803
 30
0.0
 11
-0.004499
 21
0.280803
 31
0.0
  0
LINE
  5
40
100
AcDbEntity
  8
CELL_BM_BENCHMARK__REV_
 62
    30
100
AcDbLine
 10
-0.002499
 20
0.260803
 30
0.0
 11
0.049501
 21
0.169803
 31
0.0
  0
LINE
  5
41
100
AcDbEntity
  8
CELL_BM_BENCHMARK__REV_
 62
    30
100
AcDbLine
 10
0.049501
 20
0.169803
 30
0.0
 11
-0.005499
 21
0.171803
 31
0.0
  0
LINE
  5
42
100
AcDbEntity
  8
CELL_BM_BENCHMARK__REV_
 62
    30
100
AcDbLine
 10
-0.005499
 20
0.171803
 30
0.0
 11
-0.056499
 21
0.160803
 31
0.0
  0
LINE
  5
43
100
AcDbEntity
  8
CELL_BM_BENCHMARK__REV_
 62
    30
100
AcDbLine
 10
-0.056499
 20
0.160803
 30
0.0
 11
-0.006499
 21
0.261803
 31
0.0
  0
LINE
  5
44
100
AcDbEntity
  8
CELL_BM_BENCHMARK__REV_
 62
    30
100
AcDbLine
 10
-0.004499
 20
0.245803
 30
0.0
 11
0.036501
 21
0.178803
 31
0.0
  0
LINE
  5
45
100
AcDbEntity
  8
CELL_BM_BENCHMARK__REV_
 62
    30
100
AcDbLine
 10
0.036501
 20
0.178803
 30
0.0
 11
-0.003499
 21
0.178803
 31
0.0
  0
LINE
  5
46
100
AcDbEntity
  8
CELL_BM_BENCHMARK__REV_
 62
    30
100
AcDbLine
 10
-0.003499
 20
0.178803
 30
0.0
 11
-0.041499
 21
0.170803
 31
0.0
  0
LINE
  5
47
100
AcDbEntity
  8
CELL_BM_BENCHMARK__REV_
 62
    30
100
AcDbLine
 10
-0.041499
 20
0.170803
 30
0.0
 11
-0.005499
 21
0.242803
 31
0.0
  0
LINE
  5
48
100
AcDbEntity
  8
CELL_BM_BENCHMARK__REV_
 62
    30
100
AcDbLine
 10
-0.001499
 20
0.224803
 30
0.0
 11
0.016501
 21
0.188803
 31
0.0
  0
LINE
  5
49
100
AcDbEntity
  8
CELL_BM_BENCHMARK__REV_
 62
    30
100
AcDbLine
 10
0.016501
 20
0.188803
 30
0.0
 11
-0.021499
 21
0.184803
 31
0.0
  0
LINE
  5
4A
100
AcDbEntity
  8
CELL_BM_BENCHMARK__REV_
 62
    30
100
AcDbLine
 10
-0.021499
 20
0.184803
 30
0.0
 11
-0.003499
 21
0.226803
 31
0.0
  0
LINE
  5
4B
100
AcDbEntity
  8
CELL_BM_BENCHMARK__REV_
 62
    30
100
AcDbLine
 10
0.154501
 20
0.014803
 30
0.0
 11
0.234501
 21
-0.141197
 31
0.0
  0
LINE
  5
4C
100
AcDbEntity
  8
CELL_BM_BENCHMARK__REV_
 62
    30
100
AcDbLine
 10
0.234501
 20
-0.141197
 30
0.0
 11
0.061501
 21
-0.144197
 31
0.0
  0
LINE
  5
4D
100
AcDbEntity
  8
CELL_BM_BENCHMARK__REV_
 62
    30
100
AcDbLine
 10
0.061501
 20
-0.144197
 30
0.0
 11
0.106501
 21
-0.116197
 31
0.0
  0
LINE
  5
4E
100
AcDbEntity
  8
CELL_BM_BENCHMARK__REV_
 62
    30
100
AcDbLine
 10
0.106501
 20
-0.116197
 30
0.0
 11
0.145501
 21
-0.059197
 31
0.0
  0
LINE
  5
4F
100
AcDbEntity
  8
CELL_BM_BENCHMARK__REV_
 62
    30
100
AcDbLine
 10
0.145501
 20
-0.059197
 30
0.0
 11
0.157501
 21
0.003803
 31
0.0
  0
LINE
  5
50
100
AcDbEntity
  8
CELL_BM_BENCHMARK__REV_
 62
    30
100
AcDbLine
 10
0.216501
 20
-0.131197
 30
0.0
 11
0.091501
 21
-0.135197
 31
0.0
  0
LINE
  5
51
100
AcDbEntity
  8
CELL_BM_BENCHMARK__REV_
 62
    30
100
AcDbLine
 10
0.091501
 20
-0.135197
 30
0.0
 11
0.119501
 21
-0.112197
 31
0.0
  0
LINE
  5
52
100
AcDbEntity
  8
CELL_BM_BENCHMARK__REV_
 62
    30
100
AcDbLine
 10
0.119501
 20
-0.112197
 30
0.0
 11
0.152501
 21
-0.063197
 31
0.0
  0
LINE
  5
53
100
AcDbEntity
  8
CELL_BM_BENCHMARK__REV_
 62
    30
100
AcDbLine
 10
0.152501
 20
-0.063197
 30
0.0
 11
0.157501
 21
-0.017197
 31
0.0
  0
LINE
  5
54
100
AcDbEntity
  8
CELL_BM_BENCHMARK__REV_
 62
    30
100
AcDbLine
 10
0.157501
 20
-0.017197
 30
0.0
 11
0.217501
 21
-0.128197
 31
0.0
  0
LINE
  5
55
100
AcDbEntity
  8
CELL_BM_BENCHMARK__REV_
 62
    30
100
AcDbLine
 10
0.200501
 20
-0.123197
 30
0.0
 11
0.115501
 21
-0.128197
 31
0.0
  0
LINE
  5
56
100
AcDbEntity
  8
CELL_BM_BENCHMARK__REV_
 62
    30
100
AcDbLine
 10
0.115501
 20
-0.128197
 30
0.0
 11
0.134501
 21
-0.108197
 31
0.0
  0
LINE
  5
57
100
AcDbEntity
  8
CELL_BM_BENCHMARK__REV_
 62
    30
100
AcDbLine
 10
0.134501
 20
-0.108197
 30
0.0
 11
0.148501
 21
-0.076197
 31
0.0
  0
LINE
  5
58
100
AcDbEntity
  8
CELL_BM_BENCHMARK__REV_
 62
    30
100
AcDbLine
 10
0.148501
 20
-0.076197
 30
0.0
 11
0.163501
 21
-0.045197
 31
0.0
  0
LINE
  5
59
100
AcDbEntity
  8
CELL_BM_BENCHMARK__REV_
 62
    30
100
AcDbLine
 10
0.163501
 20
-0.045197
 30
0.0
 11
0.205501
 21
-0.125197
 31
0.0
  0
LINE
  5
5A
100
AcDbEntity
  8
CELL_BM_BENCHMARK__REV_
 62
    30
100
AcDbLine
 10
0.165501
 20
-0.067197
 30
0.0
 11
0.188501
 21
-0.115197
 31
0.0
  0
LINE
  5
5B
100
AcDbEntity
  8
CELL_BM_BENCHMARK__REV_
 62
    30
100
AcDbLine
 10
0.188501
 20
-0.115197
 30
0.0
 11
0.140501
 21
-0.115197
 31
0.0
  0
LINE
  5
5C
100
AcDbEntity
  8
CELL_BM_BENCHMARK__REV_
 62
    30
100
AcDbLine
 10
0.140501
 20
-0.115197
 30
0.0
 11
0.162501
 21
-0.068197
 31
0.0
  0
LINE
  5
5D
100
AcDbEntity
  8
CELL_BM_BENCHMARK__REV_
 62
    30
100
AcDbLine
 10
0.164501
 20
-0.085197
 30
0.0
 11
0.174501
 21
-0.106197
 31
0.0
  0
LINE
  5
5E
100
AcDbEntity
  8
CELL_BM_BENCHMARK__REV_
 62
    30
100
AcDbLine
 10
0.174501
 20
-0.106197
 30
0.0
 11
0.152501
 21
-0.106197
 31
0.0
  0
LINE
  5
5F
100
AcDbEntity
  8
CELL_BM_BENCHMARK__REV_
 62
    30
100
AcDbLine
 10
-0.069499
 20
-0.143197
 30
0.0
 11
-0.235499
 21
-0.142197
 31
0.0
  0
LINE
  5
60
100
AcDbEntity
  8
CELL_BM_BENCHMARK__REV_
 62
    30
100
AcDbLine
 10
-0.235499
 20
-0.142197
 30
0.0
 11
-0.157499
 21
0.019803
 31
0.0
  0
LINE
  5
61
100
AcDbEntity
  8
CELL_BM_BENCHMARK__REV_
 62
    30
100
AcDbLine
 10
-0.157499
 20
0.019803
 30
0.0
 11
-0.159499
 21
-0.026197
 31
0.0
  0
LINE
  5
62
100
AcDbEntity
  8
CELL_BM_BENCHMARK__REV_
 62
    30
100
AcDbLine
 10
-0.159499
 20
-0.026197
 30
0.0
 11
-0.145499
 21
-0.066197
 31
0.0
  0
LINE
  5
63
100
AcDbEntity
  8
CELL_BM_BENCHMARK__REV_
 62
    30
100
AcDbLine
 10
-0.145499
 20
-0.066197
 30
0.0
 11
-0.116499
 21
-0.109197
 31
0.0
  0
LINE
  5
64
100
AcDbEntity
  8
CELL_BM_BENCHMARK__REV_
 62
    30
100
AcDbLine
 10
-0.116499
 20
-0.109197
 30
0.0
 11
-0.068499
 21
-0.140197
 31
0.0
  0
LINE
  5
65
100
AcDbEntity
  8
CELL_BM_BENCHMARK__REV_
 62
    30
100
AcDbLine
 10
-0.094499
 20
-0.136197
 30
0.0
 11
-0.219499
 21
-0.131197
 31
0.0
  0
LINE
  5
66
100
AcDbEntity
  8
CELL_BM_BENCHMARK__REV_
 62
    30
100
AcDbLine
 10
-0.219499
 20
-0.131197
 30
0.0
 11
-0.167499
 21
-0.013197
 31
0.0
  0
LINE
  5
67
100
AcDbEntity
  8
CELL_BM_BENCHMARK__REV_
 62
    30
100
AcDbLine
 10
-0.167499
 20
-0.013197
 30
0.0
 11
-0.162499
 21
-0.038197
 31
0.0
  0
LINE
  5
68
100
AcDbEntity
  8
CELL_BM_BENCHMARK__REV_
 62
    30
100
AcDbLine
 10
-0.162499
 20
-0.038197
 30
0.0
 11
-0.145499
 21
-0.075197
 31
0.0
  0
LINE
  5
69
100
AcDbEntity
  8
CELL_BM_BENCHMARK__REV_
 62
    30
100
AcDbLine
 10
-0.145499
 20
-0.075197
 30
0.0
 11
-0.129499
 21
-0.103197
 31
0.0
  0
LINE
  5
6A
100
AcDbEntity
  8
CELL_BM_BENCHMARK__REV_
 62
    30
100
AcDbLine
 10
-0.129499
 20
-0.103197
 30
0.0
 11
-0.097499
 21
-0.134197
 31
0.0
  0
LINE
  5
6B
100
AcDbEntity
  8
CELL_BM_BENCHMARK__REV_
 62
    30
100
AcDbLine
 10
-0.119499
 20
-0.125197
 30
0.0
 11
-0.204499
 21
-0.121197
 31
0.0
  0
LINE
  5
6C
100
AcDbEntity
  8
CELL_BM_BENCHMARK__REV_
 62
    30
100
AcDbLine
 10
-0.204499
 20
-0.121197
 30
0.0
 11
-0.171499
 21
-0.041197
 31
0.0
  0
LINE
  5
6D
100
AcDbEntity
  8
CELL_BM_BENCHMARK__REV_
 62
    30
100
AcDbLine
 10
-0.171499
 20
-0.041197
 30
0.0
 11
-0.156499
 21
-0.074197
 31
0.0
  0
LINE
  5
6E
100
AcDbEntity
  8
CELL_BM_BENCHMARK__REV_
 62
    30
100
AcDbLine
 10
-0.156499
 20
-0.074197
 30
0.0
 11
-0.121499
 21
-0.121197
 31
0.0
  0
LINE
  5
6F
100
AcDbEntity
  8
CELL_BM_BENCHMARK__REV_
 62
    30
100
AcDbLine
 10
-0.169499
 20
-0.062197
 30
0.0
 11
-0.189499
 21
-0.111197
 31
0.0
  0
LINE
  5
70
100
AcDbEntity
  8
CELL_BM_BENCHMARK__REV_
 62
    30
100
AcDbLine
 10
-0.189499
 20
-0.111197
 30
0.0
 11
-0.141499
 21
-0.119197
 31
0.0
  0
LINE
  5
71
100
AcDbEntity
  8
CELL_BM_BENCHMARK__REV_
 62
    30
100
AcDbLine
 10
-0.141499
 20
-0.119197
 30
0.0
 11
-0.168499
 21
-0.064197
 31
0.0
  0
LINE
  5
72
100
AcDbEntity
  8
CELL_BM_BENCHMARK__REV_
 62
    30
100
AcDbLine
 10
-0.169499
 20
-0.084197
 30
0.0
 11
-0.158499
 21
-0.108197
 31
0.0
  0
LINE
  5
73
100
AcDbEntity
  8
CELL_BM_BENCHMARK__REV_
 62
    30
100
AcDbLine
 10
-0.158499
 20
-0.108197
 30
0.0
 11
-0.168499
 21
-0.085197
 31
0.0
  0
TEXT
  5
75
100
AcDbEntity
  8
CELL_BM_BENCHMARK__REV_
 62
    30
100
AcDbText
 10
0.958501
 20
-3.964197
 30
0.0
 40
0.625002
  1
(ASSUMED)
210
0.0
220
0.0
230
1.0
100
AcDbText
  0
TEXT
  5
77
100
AcDbEntity
  8
CELL_BM_BENCHMARK__REV_
 62
    30
100
AcDbText
 10
1.019501
 20
-2.995197
 30
0.0
 40
0.625002
  1
RL ______
210
0.0
220
0.0
230
1.0
100
AcDbText
  0
TEXT
  5
79
100
AcDbEntity
  8
CELL_BM_BENCHMARK__REV_
 62
    30
100
AcDbText
 10
1.032501
 20
-0.908197
 30
0.0
 40
0.625002
  1
BM ____
210
0.0
220
0.0
230
1.0
100
AcDbText
  0
ENDSEC
  0
SECTION
  2
OBJECTS
  0
DICTIONARY
  5
19
100
AcDbDictionary
280
     0
281
     1
  3
ACAD_GROUP
350
1A
  3
ACAD_MLINESTYLE
350
1B
  3
ACAD_LAYOUT
350
1E
  3
ACAD_PLOTSETTINGS
350
22
  3
ACAD_PLOTSTYLENAME
350
1F
  0
DICTIONARY
  5
1A
102
{ACAD_REACTORS
330
19
102
}
100
AcDbDictionary
280
     0
281
     1
  0
DICTIONARY
  5
1B
102
{ACAD_REACTORS
330
19
102
}
100
AcDbDictionary
280
     0
281
     1
  3
Standard
350
1C
  0
MLINESTYLE
  5
1C
102
{ACAD_REACTORS
330
1B
102
}
100
AcDbMlineStyle
  2
Standard
 70
     0
  3

 62
     0
 51
90.0
 52
90.0
 71
     2
 49
0.5
 62
   256
  6
BYLAYER
 49
-0.5
 62
   256
  6
BYLAYER
  0
ACDBDICTIONARYWDFLT
  5
1F
102
{ACAD_REACTORS
330
19
102
}
100
AcDbDictionary
281
     1
  3
Normal
350
1D
100
AcDbDictionaryWithDefault
340
1D
  0
ACDBPLACEHOLDER
  5
1D
102
{ACAD_REACTORS
330
1F
102
}
  0
LAYOUT
  5
20
102
{ACAD_REACTORS
330
1E
102
}
100
AcDbPlotSettings
  1

  2

  4

  6

 40
0.0
 41
0.0
 42
0.0
 43
0.0
 44
0.0
 45
0.0
 46
0.0
 47
0.0
 48
0.0
 49
0.0
140
0.0
141
0.0
142
1.0
143
1.0
 70
  1024
 72
     0
 73
     0
 74
     0
  7

 75
     0
147
1.0
148
0.0
149
0.0
100
AcDbLayout
  1
Model
 70
     0
 71
     0
 10
0.0
 20
0.0
 11
0.0
 21
0.0
 12
0.0
 22
0.0
 32
0.0
 14
0.0
 24
0.0
 34
0.0
 15
0.0
 25
0.0
 35
0.0
146
0.0
 13
0.0
 23
0.0
 33
0.0
 16
0.0
 26
0.0
 36
0.0
 17
0.0
 27
0.0
 37
0.0
 76
     0
330
A
331
0
345
0
346
0
  0
LAYOUT
  5
21
102
{ACAD_REACTORS
330
1E
102
}
100
AcDbPlotSettings
  1

  2

  4

  6

 40
0.0
 41
0.0
 42
0.0
 43
0.0
 44
0.0
 45
0.0
 46
0.0
 47
0.0
 48
0.0
 49
0.0
140
0.0
141
0.0
142
1.0
143
1.0
 70
     0
 72
     0
 73
     0
 74
     0
  7

 75
     0
147
1.0
148
0.0
149
0.0
100
AcDbLayout
  1
Layout1
 70
     0
 71
     0
 10
0.0
 20
0.0
 11
0.0
 21
0.0
 12
0.0
 22
0.0
 32
0.0
 14
0.0
 24
0.0
 34
0.0
 15
0.0
 25
0.0
 35
0.0
146
0.0
 13
0.0
 23
0.0
 33
0.0
 16
0.0
 26
0.0
 36
0.0
 17
0.0
 27
0.0
 37
0.0
 76
     0
330
B
331
0
345
0
346
0
  0
DICTIONARY
  5
1E
102
{ACAD_REACTORS
330
19
102
}
100
AcDbDictionary
280
     0
281
     1
  3
Layout1
350
21
  3
Model
350
20
  0
DICTIONARY
  5
22
102
{ACAD_REACTORS
330
19
102
}
100
AcDbDictionary
280
     0
281
     1
  0
ENDSEC
  0
EOF
